<?xml version="1.0" encoding="UTF-8"?>
<svg width="752pt" height="752pt" version="1.1" viewBox="0 0 752 752" xmlns="http://www.w3.org/2000/svg">
 <g>
  <path d="m429.16 295.49c-3.2695-7.2617-4.0625-15.934-2.168-23.793l8.9961 2.1641c-1.418 5.9062-0.83594 12.402 1.6094 17.828z"/>
  <path d="m397.1 415.53c-16.523-8.9531-32.188-19.633-46.559-31.746l5.9609-7.0703c13.887 11.707 29.031 22.031 45.004 30.688z"/>
  <path d="m407.28 384.48c-12.133-5.3516-23.215-13.246-32.059-22.832l6.7969-6.2695c7.9883 8.6641 18.008 15.797 28.988 20.641z"/>
  <path d="m420.62 358.52c-8.0391-3.6445-15.332-8.6016-21.68-14.734l6.4258-6.6562c5.5859 5.3906 12.008 9.7578 19.078 12.965z"/>
  <path d="m436.42 473.19c-16.391 0-36.062-6.1367-54.352-17.012-9.3867-5.582-18.188-12.164-26.699-18.527-7.0195-5.25-14.277-10.68-21.719-15.414-19.129-12.188-36.785-17.406-52.48-15.52-1.3555 0.16016-2.7109-0.28125-3.7109-1.2109-1-0.92969-1.5312-2.2539-1.4609-3.6172 0.69531-13.676 9.832-21.742 18.684-27.828 21.09-14.504 44.984-26.117 68.098-37.344 8.7812-4.2695 17.867-8.6797 26.523-13.129 8.5938-4.418 17.102-9.3789 18.488-17.094 0.35156-1.9609-0.85156-5.6914-1.9141-8.9844-1.5312-4.75-3.1133-9.6562-2.1289-14.078 1.3555-6.0742 6-11.168 12.418-13.625 4.8008-1.8398 9.8477-1.9141 14.203-0.32813 4.0664-4.9336 10.113-9.2109 17.453-12.285 9.2188-3.8555 19.5-5.3281 28.941-4.1445 7.6992 0.96484 13.129 3.8281 16.141 8.5078 3.4492 5.3594 2.7656 11.371 2.1641 16.676-0.22656 2.0039-0.4375 3.8945-0.43359 5.6523 0.007812 3.0508 0.73828 6.1914 1.5078 9.5234 0.67188 2.8984 1.3633 5.8984 1.6367 9.0664 0.92188 10.715-3.4648 21.176-11.445 27.309-3.082 2.3672-8.0859 2.457-15.992 2.3906-3.1914-0.023437-8.5156-0.066406-9.9258 0.51172-5.6406 3.668-9.9609 9.4453-14.148 15.035-5.5156 7.3711-5.2383 14.906-4.8555 25.336l0.003907 0.17969c0.21875 5.9023 1.6016 12.34 2.8203 18.02 0.50781 2.3555 0.98438 4.5781 1.3242 6.5195 0.29297 1.6914 0.60547 3.375 0.91016 5.0547 1.8164 9.8555 3.6953 20.047 1.8203 30.699-0.64453 3.668-1.4844 7.3164-2.293 10.852-1.8945 8.2461-3.6875 16.031-3.1367 23.84 0.085938 1.2539-0.33594 2.4922-1.1836 3.4258-0.83984 0.93359-2.0312 1.4844-3.2891 1.5234-0.64453 0.003906-1.3047 0.019531-1.9688 0.019531zm-148.89-76.102c15.844 0 32.992 5.8125 51.09 17.344 7.7344 4.9258 15.133 10.457 22.285 15.812 8.3203 6.2188 16.918 12.652 25.887 17.984 15.566 9.2539 32.664 14.934 46.746 15.637 0.19531-7.4062 1.8438-14.582 3.4492-21.566 0.78516-3.418 1.5938-6.9453 2.1953-10.379 1.582-9.0156-0.066407-17.957-1.8086-27.426-0.31641-1.707-0.62891-3.4219-0.92969-5.1523-0.30469-1.7578-0.76172-3.8945-1.25-6.1562-1.2383-5.7539-2.7812-12.906-3.0234-19.625l-0.003907-0.17969c-0.39844-10.914-0.77734-21.223 6.6953-31.211 4.4727-5.9805 9.5469-12.762 16.621-17.324 2.9883-1.9258 7.6133-1.9883 14.926-1.9336 3.3438 0.023438 8.8945 0.066406 10.414-0.57422 5.3398-4.1797 8.3789-11.656 7.7422-19.086-0.21875-2.5117-0.80859-5.0625-1.4336-7.7695-0.85156-3.6797-1.7344-7.4883-1.75-11.574-0.007812-2.293 0.24609-4.5469 0.49609-6.7227 0.48828-4.3164 0.91016-8.043-0.75391-10.633-1.8164-2.8242-6.1758-3.918-9.5078-4.332-17.027-2.1328-34.336 6.3164-39.816 15.555-0.66016 1.1133-1.7578 1.8945-3.0234 2.1641-1.2617 0.26953-2.5859-0.007812-3.6406-0.75781-2.5352-1.8086-6.1445-2.0859-9.6602-0.73828s-6.0156 3.9648-6.6953 7.0039c-0.4375 1.9609 0.80469 5.8164 1.9062 9.2227 1.4609 4.5352 2.9727 9.2266 2.2148 13.461-2.1328 11.867-13.18 18.449-23.363 23.684-8.75 4.4961-17.879 8.9336-26.707 13.223-22.801 11.082-46.383 22.535-66.898 36.648-5.9023 4.0625-11.496 8.7344-13.711 15.418 0.42969-0.011718 0.87109-0.015624 1.3086-0.015624z"/>
  <path d="m321.06 519.55c-1.3125 0-2.6367-0.082031-3.9688-0.26172-4.8242-0.66016-9.25-2.5742-13.152-4.2656-7.8281-3.3867-15.922-6.8906-23.676-11.008-18.582-9.8789-29.023-21.918-31.039-35.773-1.0781-7.4102 0.46094-14.66 2.1055-20.777 4.3477-16.156 13.82-34.977 25.988-51.637l7.4688 5.457c-11.355 15.543-20.523 33.707-24.523 48.578-1.4023 5.2031-2.7188 11.305-1.8828 17.047 1.5625 10.781 10.387 20.512 26.227 28.934 7.418 3.9453 15.34 7.3711 23.004 10.688 3.5234 1.5273 7.168 3.1016 10.738 3.5898 6.8164 0.93359 14.098-1.9414 21.137-4.7227l1.332-0.52734c9.2227-3.625 19.234-7.0547 29.984-7.5664 5.4727-0.25781 10.938 0.25 16.223 0.74609 8.8438 0.82812 17.191 1.6055 24.691-1.1836 10.273-3.8203 17.52-15.359 16.496-26.27l9.207-0.85938c1.4102 15.113-8.2539 30.504-22.484 35.797-9.4805 3.5234-19.289 2.6094-28.781 1.7188-5.1992-0.48438-10.105-0.94531-14.926-0.71875-9.4062 0.44922-18.555 3.5977-27.043 6.9336l-1.3164 0.51953c-6.6328 2.6406-14.039 5.5625-21.809 5.5625z"/>
  <path d="m261.16 423.25c-12.586-12.145-19.637-29.82-18.859-47.293 0.32422-7.25 1.9766-13.457 4.9062-18.445 5.8008-9.8555 15.883-14.727 25.629-19.438 2.6719-1.2891 5.1953-2.5117 7.6328-3.8281 9.3867-5.0781 17.879-12.168 24.547-20.496 0.5-0.625 1-1.2578 1.5-1.9023 4.3008-5.4883 9.1719-11.707 16.965-13.434 4.8086-1.0664 10.113-0.20312 15.762 2.5703 5.9844 2.9414 12.023 7.8945 17.859 12.688 8.1484 6.6914 16.578 13.605 24.371 14.809l-1.4062 9.1445c-10.301-1.582-19.719-9.3203-28.836-16.797-5.6797-4.6602-11.043-9.0664-16.066-11.535-2.5547-1.2539-6.3086-2.5938-9.6836-1.8438-4.5547 1.0078-8.0195 5.4297-11.684 10.109-0.52344 0.66406-1.0391 1.3281-1.5586 1.9766-7.4375 9.293-16.898 17.191-27.371 22.855-2.6211 1.418-5.3594 2.7422-8.0039 4.0195-8.9023 4.3008-17.305 8.3633-21.68 15.797-2.1602 3.6719-3.3867 8.4375-3.6406 14.16-0.66016 14.859 5.3359 29.898 16.039 40.227z"/>
  <path d="m253.73 411.75c-17.066 0-33.734-10.719-40.734-26.297-0.41016-0.91016-0.78125-1.8203-1.1406-2.6953-0.82031-1.9961-1.5859-3.8789-2.6406-5.3789-1.1641-1.6602-2.8867-3.1367-4.7031-4.6992-0.62109-0.53125-1.2383-1.0625-1.8438-1.6094-6.5039-5.8359-11.488-13.934-13.676-22.219-2.4688-9.3477-1.3125-18.473 3.25-25.688 6.0898-9.625 16.266-13.969 26.113-18.172 4.6992-2.0078 9.1367-3.9023 13.121-6.3281 3.2383-1.9688 6.2383-4.3516 9.4102-6.8672 2.7969-2.2188 5.6992-4.5195 8.8242-6.5625 6.1445-4.0156 15.512-8.2773 25.211-5.793 3.6602 0.9375 6.7422 2.6719 9.7305 4.3516 1.5625 0.87891 3.0391 1.7109 4.5273 2.3867 3.5234 1.6016 7.5586 2.5547 11.82 3.5625 8.5195 2.0156 17.328 4.1016 23.082 11.695l-7.3711 5.5859c-3.7461-4.9453-10.59-6.5625-17.84-8.2773-4.5078-1.0664-9.168-2.168-13.508-4.1406-1.8555-0.83984-3.5742-1.8086-5.2461-2.7461-2.5742-1.4531-5.0078-2.8203-7.4883-3.4531-6.4336-1.6523-13.266 1.582-17.855 4.5781-2.7695 1.8086-5.375 3.875-8.1289 6.0625-3.2578 2.582-6.6211 5.2539-10.352 7.5234-4.5469 2.7656-9.5039 4.8828-14.297 6.9336-8.9336 3.8164-17.375 7.418-21.926 14.609-7.1172 11.254-1.125 27.176 8.7891 36.074 0.55469 0.5 1.125 0.98438 1.6914 1.4766 2.168 1.8633 4.418 3.793 6.25 6.3945 1.6523 2.3477 2.6602 4.8086 3.6289 7.1914 0.34766 0.83984 0.67188 1.6367 1.0156 2.4102 5.6367 12.543 19.176 21.113 32.926 20.836l0.18359 9.25c-0.28516 0.003906-0.55469 0.003906-0.82422 0.003906z"/>
  <path d="m515.72 482.16c-3.832 0-7.6758-0.9375-11.223-2.8594-3.7773-2.043-6.9961-5.0469-9.9648-7.9453-2.5742-2.5156-5.1797-5.1328-7.6992-7.668-14.453-14.531-29.395-29.562-46.973-33.07l1.8125-9.0703c20.34 4.0664 36.289 20.109 51.719 35.621 2.4961 2.5117 5.0781 5.1055 7.6016 7.5703 2.6094 2.543 5.1719 4.9492 7.9023 6.4297 5.5039 2.9727 12.227 2.043 17.137-2.3711 2.0781-1.8672 3.9805-4.4453 5.8242-6.9375l16.859-22.785c2.3203-3.1406 4.7266-6.3867 5.8867-10.078 1.8398-5.8516 0.29297-13.172-3.6055-17.027-2.3203-2.293-5.5664-3.6055-8.7148-4.875l-15.105-6.0938c-5.8594-2.3672-12.504-5.0469-18.402-3.9219-2.2656 0.43359-4.4961-0.86328-5.2383-3.0391-2.4336-7.082-11.707-8.7188-15.578-9.0938-4.9062-0.47266-9.8828-0.058594-15.152 0.375-2.957 0.24609-6.0078 0.49609-9.0742 0.58203-9.0039 0.25391-21.707-2.3984-29.82-8.9023l5.7852-7.2188c5.9688 4.7852 16.484 7.0859 23.777 6.8711 2.8164-0.078125 5.6133-0.30859 8.5742-0.55469 5.4453-0.44922 11.07-0.91406 16.801-0.35937 10.262 0.98828 18.008 5.2383 21.855 11.84 7.2578-0.27734 14.203 2.5234 19.938 4.8438l15.105 6.0938c3.8008 1.5352 8.1133 3.2734 11.758 6.8789 6.2852 6.2188 8.7773 17.316 5.9258 26.379-1.6289 5.1719-4.6289 9.2227-7.2734 12.801l-16.859 22.785c-2.1133 2.8594-4.3008 5.8164-7.0703 8.3047-4.7617 4.2852-10.625 6.4961-16.508 6.4961z"/>
  <path d="m489.38 413.79-7.2344-5.7656c3.9922-5.0039 8.1172-10.184 13.25-14.211 6.4766-5.0859 13.199-7.1328 19.449-5.9062l-1.7773 9.0781c-4.6953-0.91406-9.5078 2.1797-11.961 4.1016-4.2812 3.3633-8.0664 8.1133-11.727 12.703z"/>
  <path d="m345.09 513.54-3.7617-8.4492c15.797-7.0234 30.113-16.684 42.543-28.695l6.4297 6.6523c-13.207 12.766-28.418 23.023-45.211 30.492z"/>
  <path d="m228.29 350.45c-1.0078-5.5469-2.9766-10.809-5.8594-15.648l7.9492-4.7305c3.4453 5.7891 5.8047 12.094 7.0117 18.727z"/>
  <path d="m259.09 319.85-3.5664-8.5312c5.7656-2.4102 12.117-3.5625 18.359-3.3242l-0.34766 9.2461c-4.9141-0.1875-9.9062 0.71484-14.445 2.6094z"/>
  <path d="m286.77 466.11-9.2461-0.21094c0.14844-6.2852 3.4883-12.363 8.7148-15.859l5.1367 7.6914c-2.7227 1.8164-4.5312 5.1094-4.6055 8.3789z"/>
  <path d="m329.7 477.05 7.1328-10.227 7.5859 5.293-7.1328 10.227z"/>
  <path d="m325.36 433.32-6.4648-6.6133c4.2031-4.1133 9.4062-7.1719 15.043-8.8555l2.6445 8.8672c-4.207 1.25-8.0859 3.5352-11.223 6.6016z"/>
 </g>
</svg>
