<?xml version="1.0" encoding="UTF-8"?>
<svg width="752pt" height="752pt" version="1.1" viewBox="0 0 752 752" xmlns="http://www.w3.org/2000/svg">
 <path d="m360.54 391.17c0.96094 1.7031 2.0703 3.2578 3.4023 4.8086 2.0703 2.4414 3.4023 5.8477 3.8477 9.9883v0.22266c-0.074218 0-0.14844-0.074218-0.22266-0.074218-4.1445-0.44531-7.4727-1.7031-9.9883-3.8477-1.4805-1.2578-3.0352-2.3672-4.7344-3.3281l-4.7344-2.3672c-11.246-4.5156-25.086-2.293-34.41 5.6992-2.5898 2.1445-5.7734 3.4023-9.9141 3.8477-7.7695 0.8125-14.949 4.293-20.422 9.7695-5.4766 5.4766-8.9531 12.652-9.8398 20.348-0.14844 2.5898-1.0352 6.6602-3.6992 9.9141-5.3281 6.2148-8.2148 14.059-8.2148 22.051 0 5.9922 1.7031 11.988 4.7344 17.168 0.96094 1.6289 2.1445 3.2578 3.4023 4.8086 2.0703 2.4414 3.4023 5.7734 3.8477 9.9141 0.51953 5.1797 2.3672 10.137 5.1055 14.504l-70.742 70.742c-2.8867 2.8867-2.8867 7.6211 0 10.508 1.4805 1.4062 3.332 2.1445 5.2539 2.1445 1.9258 0 3.7734-0.73828 5.2539-2.1445l70.742-70.742c4.3672 2.7383 9.3242 4.5859 14.504 5.1055 4.1445 0.44531 7.4727 1.7773 9.9141 3.8477 6.1406 5.2539 13.984 8.1406 21.977 8.1406 8.0664 0 15.836-2.8867 21.977-8.1406 2.5156-2.0703 5.8477-3.4023 9.9883-3.8477 7.6953-0.8125 14.949-4.293 20.422-9.6953 5.4023-5.4766 8.8789-12.727 9.6953-20.422 0.44531-4.1445 1.7031-7.4727 3.8477-9.9141 5.2539-6.1406 8.0664-13.984 8.0664-21.977 0-8.0664-2.8125-15.91-8.0664-21.977-2.1445-2.5156-3.4023-5.8477-3.8477-9.9883 0-0.074219 0-0.14844-0.074219-0.22266h0.22266c4.1445 0.44531 7.5469 1.7773 9.9883 3.8477 6.1406 5.2539 13.984 8.1406 21.977 8.1406 8.0664 0 15.836-2.8867 21.977-8.1406 2.5156-2.0703 5.8477-3.4023 9.9883-3.8477 7.6953-0.8125 14.875-4.2188 20.348-9.6953 5.4766-5.4766 8.9531-12.727 9.7695-20.348 0.44531-4.1445 1.7031-7.5469 3.8477-9.9883 5.1797-6.1406 8.0664-13.984 8.0664-21.977 0-8.0664-2.8867-15.836-8.0664-21.977-2.1445-2.5156-3.4023-5.8477-3.8477-9.9883 0-0.074219-0.074219-0.14844-0.074219-0.22266 0.074219 0 0.14844 0 0.22266 0.074219 4.1445 0.37109 7.5469 1.7031 9.9883 3.8477 6.1484 5.1758 13.918 8.0586 21.984 8.0586s15.836-2.8867 21.977-8.1406c2.4414-2.0703 5.8477-3.4023 9.9883-3.7734 7.6953-0.8125 14.875-4.293 20.348-9.7695 5.4766-5.4766 8.9531-12.652 9.6953-20.348 0.51953-4.1445 1.7773-7.5469 3.8477-9.9883 5.2539-6.1406 8.1406-13.91 8.1406-21.977 0-8.0664-2.8867-15.836-8.0664-21.977-2.1445-2.4414-3.4023-5.8477-3.9219-9.9883-0.51953-5.1797-2.3672-10.062-5.1055-14.504l14.949-14.875c2.8867-2.8867 2.8867-7.6211 0-10.508-2.8867-2.8867-7.6211-2.8867-10.508 0l-14.875 14.949c-4.4414-2.7383-9.3242-4.5859-14.504-5.1797-4.1445-0.37109-7.5469-1.7031-9.9883-3.8477-1.4805-1.2578-3.0352-2.293-4.6602-3.2578 0 0-0.074219 0-0.074219-0.074219-12.062-6.8086-28.488-5.8477-39.219 3.3281-2.3672 2.0703-5.625 3.3281-9.7695 3.8477-7.8438 0.8125-15.094 4.293-20.57 9.7695-5.4766 5.4766-8.9531 12.652-9.6953 20.273-0.59375 4.3672-1.8516 7.6211-3.9219 10.062-5.1797 6.0703-8.0625 13.914-8.0625 21.98 0 4.5156 0.88672 9.1016 2.6641 13.172l2.0703 3.9961c0.96094 1.7031 2.0703 3.3281 3.3281 4.8086 2.1445 2.4414 3.4023 5.8477 3.9219 9.9883v0.22266c-0.074219 0-0.14844-0.074219-0.22266-0.074219-4.1445-0.44531-7.4727-1.7031-9.9883-3.8477-1.4805-1.2578-3.0352-2.3672-4.7344-3.3281l-4.0703-2.0703c-11.395-4.8086-25.602-2.7383-35.148 5.4023-2.3672 2.0703-5.625 3.3281-9.8398 3.8477-7.7695 0.8125-15.02 4.293-20.496 9.7695-5.4023 5.4766-8.8789 12.727-9.7695 20.422-0.22266 2.6641-1.0352 6.7344-3.7734 9.9141-5.2539 6.1406-8.1406 13.984-8.1406 21.977 0 4.2188 0.8125 8.5078 2.5156 12.652zm-61.566 82.211c-2.8867 2.8867-7.5469 2.8867-10.434 0-2.8867-2.8867-2.8867-7.5469 0-10.434 2.8867-2.8867 7.5469-2.8867 10.434 0 2.8867 2.8828 2.8867 7.5469 0 10.434zm15.762-26.121c-2.8867-2.8867-2.8867-7.6211 0-10.508 2.8867-2.8867 7.5469-2.8867 10.434 0 2.8867 2.8867 2.8867 7.6211 0 10.508-2.8828 2.8828-7.5469 2.8828-10.434 0zm20.426 34.406c-2.8867 2.8867-7.6211 2.8867-10.508 0-2.8867-2.8867-2.8867-7.5469 0-10.434 2.8867-2.8867 7.6211-2.8867 10.508 0 2.8828 2.8867 2.8828 7.5508 0 10.434zm8.8047-58.457c2.8867-2.8867 7.5469-2.8867 10.434 0 2.8867 2.9609 2.8867 7.6211 0 10.508s-7.5469 2.8867-10.434 0c-2.9609-2.8867-2.9609-7.5469 0-10.508zm13.469 90.352c-2.8867 2.8867-7.5469 2.8867-10.434 0-2.8867-2.8867-2.8867-7.5469 0-10.434 2.8867-2.8867 7.5469-2.8867 10.434 0 2.8828 2.8867 2.8828 7.5469 0 10.434zm14.797-29.672c-2.8867 2.8867-7.5469 2.8867-10.434 0s-2.8867-7.6211 0-10.508c2.8867-2.8867 7.5469-2.8867 10.434 0 2.8867 2.8828 2.8867 7.6211 0 10.508zm9.1758-26.195c-2.8867 2.8867-7.6211 2.8867-10.508 0-2.8867-2.8867-2.8867-7.5469 0-10.434s7.6211-2.8867 10.508 0c2.8867 2.8828 2.8867 7.5469 0 10.434zm17.02-83.691c-2.8867 2.8867-7.5469 2.8867-10.434 0-2.9609-2.8867-2.9609-7.6211 0-10.508 2.8867-2.8867 7.5469-2.8867 10.434 0 2.8867 2.8867 2.8867 7.6211 0 10.508zm31.375 31.375c-2.8867 2.8867-7.5469 2.8867-10.434 0-2.8867-2.8867-2.8867-7.5469 0-10.434 2.8867-2.8867 7.5469-2.8867 10.434 0 2.8867 2.8867 2.8867 7.5469 0 10.434zm3.625-26.566c-2.8867 2.8867-7.6211 2.8867-10.508 0-2.8867-2.8867-2.8867-7.5469 0-10.434 2.8867-2.8867 7.6211-2.8867 10.508 0 2.8867 2.8867 2.8867 7.5469 0 10.434zm1.6289-41.438c-2.8867 2.8867-7.5469 2.8867-10.508 0-2.8867-2.8867-2.8867-7.6211 0-10.508 2.9609-2.8867 7.6211-2.8867 10.508 0 2.8867 2.8867 2.8867 7.6211 0 10.508zm31.375 52.316c-2.8867 2.8867-7.5469 2.8867-10.434 0-2.8867-2.8867-2.8867-7.5469 0-10.508 2.8867-2.8867 7.5469-2.8867 10.434 0 2.8867 2.9609 2.8867 7.6211 0 10.508zm41.883-83.691c-2.8867 2.8867-7.6211 2.8867-10.508 0s-2.8867-7.6211 0-10.508c2.8867-2.8867 7.6211-2.8867 10.508 0 2.8867 2.8867 2.8867 7.6211 0 10.508zm0-41.883c-2.8867 2.8867-7.6211 2.8867-10.508 0-2.8867-2.8867-2.8867-7.6211 0-10.508s7.6211-2.8867 10.508 0c2.8867 2.8867 2.8867 7.6211 0 10.508zm26.121-15.688c2.8867-2.8867 7.6211-2.8867 10.508 0 2.8867 2.8867 2.8867 7.5469 0 10.434s-7.6211 2.8867-10.508 0c-2.8867-2.8867-2.8867-7.5469 0-10.434zm15.762 57.57c-2.8867 2.8867-7.6211 2.8867-10.508 0-2.8867-2.8867-2.8867-7.6211 0-10.508 2.8867-2.8867 7.6211-2.8867 10.508 0 2.8867 2.8867 2.8867 7.6211 0 10.508zm20.867-31.449c-2.8867 2.8867-7.5469 2.8867-10.434 0s-2.8867-7.5469 0-10.434c2.8867-2.8867 7.5469-2.8867 10.434 0 2.8867 2.8867 2.8867 7.5469 0 10.434zm-323.29 203.12c-0.66406-3.1094-0.96094-6.2891-0.96094-9.4727 0-7.8438 1.9258-15.465 5.4766-22.348-0.59375-0.29687-1.1094-0.66406-1.6289-1.1836-2.8867-2.8867-2.8867-7.5469 0-10.434 2.293-2.293 5.6992-2.7383 8.4375-1.4062 1.5547-10.508 6.3633-20.055 13.762-27.453 5.5508-5.4766 12.285-9.5469 19.609-11.84-0.73828-2.4414-0.14844-5.3281 1.8516-7.3242 2.8867-2.8867 7.5469-2.8867 10.434 0 0.8125 0.8125 1.4062 1.8516 1.7031 2.8867 9.7695-7.3984 22.645-10.805 34.926-9.3984-0.22266-1.8516-0.37109-3.7734-0.37109-5.6992 0-8.4375 2.2188-16.648 6.3633-23.977-1.6289-2.8125-1.1836-6.5117 1.1836-8.8789 1.2578-1.2578 2.9609-1.9961 4.7344-2.0703 1.4805-10.656 6.2891-20.348 13.688-27.824 4.2188-4.2188 9.0273-7.5469 14.355-9.9141-0.44531-0.29688-0.8125-0.59375-1.1836-0.96094-2.8867-2.8867-2.8867-7.6211 0-10.508 2.9609-2.8867 7.6211-2.8867 10.508 0 2.1445 2.1445 2.6641 5.3281 1.6289 7.9922 1.332-0.29688 2.7383-0.44531 4.0703-0.59375 1.4062-0.22266 1.9258-0.51953 1.9961-0.51953 10.137-8.6562 23.902-12.801 37.148-11.246-0.22266-1.8477-0.29688-3.7695-0.29688-5.6953 0-8.3633 2.1445-16.574 6.2891-23.828-1.0352-0.37109-1.9961-0.88672-2.8867-1.7773-2.8867-2.8867-2.8867-7.6211 0-10.508 2.5156-2.5156 6.3633-2.8125 9.1758-1.0352 1.7031-9.6211 6.3633-18.574 13.395-25.676 5.625-5.5508 12.578-9.6953 20.055-11.988-1.332-2.7383-0.88672-6.0664 1.4062-8.3633 2.8867-2.8867 7.6211-2.8867 10.508 0 1.1094 1.1836 1.7773 2.5156 1.9961 3.9219 8.2891-6.1367 18.426-9.543 28.859-9.543 3.1836 0 6.3633 0.29688 9.4727 0.96094-0.8125-3.6992-2.3672-7.1758-4.3672-10.434l14.949-14.875c2.8867-2.8867 2.8867-7.6211 0-10.508-2.8867-2.8867-7.6211-2.8867-10.508 0l-14.875 14.949c-4.4414-2.7383-9.3242-4.5859-14.504-5.1797-4.1445-0.37109-7.5469-1.7031-9.9883-3.8477-12.285-10.434-31.672-10.434-43.953 0.074219-2.4414 2.0703-5.8477 3.4023-9.9883 3.7734-7.6953 0.8125-14.875 4.293-20.348 9.7695-5.4766 5.4766-8.9531 12.652-9.6953 20.348-0.51953 4.1445-1.7773 7.5469-3.8477 9.9883-5.2578 6.1445-8.1445 13.914-8.1445 21.98 0 8.0664 2.8867 15.836 8.0664 21.977 2.1445 2.4414 3.4023 5.8477 3.9219 9.9883v0.22266c-0.074219 0-0.14844-0.074218-0.22266-0.074218-4.1445-0.44531-7.4727-1.7031-9.9883-3.8477-12.285-10.434-31.672-10.434-43.953 0-2.4414 2.1445-5.8477 3.4023-9.9883 3.8477-7.6211 0.8125-14.875 4.293-20.348 9.7695-5.4766 5.4023-8.8789 12.652-9.6953 20.348-0.44531 4.1445-1.7773 7.4727-3.8477 9.9883-5.2539 6.1406-8.1406 13.91-8.1406 21.977 0 7.9922 2.8867 15.836 8.1406 21.977 2.0703 2.4414 3.4023 5.8477 3.8477 9.9883v0.22266c-0.074219 0-0.14844-0.074219-0.22266-0.074219-4.1445-0.44531-7.4727-1.7031-9.9883-3.8477-12.211-10.434-31.672-10.434-43.879 0-2.5156 2.1445-5.8477 3.4023-9.9883 3.8477-7.6953 0.8125-14.949 4.293-20.422 9.6953-5.4023 5.4766-8.8789 12.727-9.6953 20.422-0.44531 4.1445-1.7773 7.4727-3.8477 9.9883-5.2539 6.0664-8.1406 13.91-8.1406 21.977 0 7.9922 2.8867 15.836 8.1406 21.977 2.0703 2.4414 3.4023 5.7734 3.8477 9.9141 0.51953 5.1797 2.3672 10.137 5.1055 14.504l-70.742 70.742c-2.8867 2.8867-2.8867 7.6211 0 10.508 1.4766 1.4102 3.3242 2.1523 5.25 2.1523 1.9258 0 3.7734-0.73828 5.2539-2.1445l70.742-70.742c3.1797 1.9961 6.6602 3.5508 10.359 4.3633zm198.24-275.86c2.8867-2.8867 7.6211-2.8867 10.508 0s2.8867 7.6211 0 10.508c-2.8867 2.8867-7.6211 2.8867-10.508 0-2.8867-2.8867-2.8867-7.6211 0-10.508zm-102.41 102.48c2.8867-2.8867 7.5469-2.8867 10.434 0 2.8867 2.8867 2.8867 7.6211 0 10.508-2.8867 2.8867-7.5469 2.8867-10.434 0-2.9609-2.8828-2.9609-7.6211 0-10.508zm-73.258 73.258c2.8867-2.8867 7.5469-2.8867 10.434 0 2.8867 2.8867 2.8867 7.6211 0 10.508s-7.5469 2.8867-10.434 0c-2.8828-2.8867-2.8828-7.6211 0-10.508zm-26.191 26.195c2.8867-2.8867 7.5469-2.8867 10.434 0s2.8867 7.5469 0 10.434c-2.8867 2.8867-7.5469 2.8867-10.434 0-2.8867-2.8867-2.8867-7.5469 0-10.434z"/>
</svg>
