<?xml version="1.0" encoding="UTF-8"?>
<svg width="752pt" height="752pt" version="1.1" viewBox="0 0 752 752" xmlns="http://www.w3.org/2000/svg">
 <g>
  <path d="m591.27 377.39c-1.043-93.832-93.883-137-175.37-146.64-85.504-10.074-197.55 9.7578-238.79 95.848-13.004 27.16-19.234 59.238-8.3008 88.18 10.41 27.605 31.477 50.188 55.496 66.75 43.984 30.34 94.145 43.332 147.16 43.172 92.168-0.28516 218.66-34.906 219.8-147.31zm6.7266-1.1523c0.039062 9.4414-0.875 18.859-2.7227 28.117-20.215 96.145-134.15 126.13-219.25 127.04-49.059 0.49609-96.812-8.1641-139.59-33.258-42.57-24.98-85.539-67.379-82.242-120.85 7.2461-117.93 138.63-164.38 239.75-157.47 91.359 6.2539 202.88 49.113 204.05 156.42z"/>
  <path d="m351.8 349.39c-12.012 20.172-39.328 31.398-62.016 30.09v0.003906c-9.8359-0.375-18.77-5.8203-23.602-14.395-1.4336-2.7891-1.8281-6-1.1094-9.0547-1.8125 5.457-2.0039 11.32-0.55078 16.879 1.043 2.6836 2.7227 5.0742 4.8945 6.9609 9.9883 9.1055 23.734 9.7344 36.348 6.4375 23.887-6.1797 39.301-19.809 55.156-37.156-3.0312 0.28516-6.0781 0.36328-9.1211 0.23438zm186.84 41.84c5.1016 8.6094-4.1602 14.496-11.148 17.453-0.12891 0.050781-0.25781 0.078125-0.39063 0.13281 0.16016 0.78516 0.31641 1.5703 0.42188 2.4297 1.6211 11.41-7.1719 23.234-17.062 28.117h-0.003907c-4.2109 2.1641-8.8477 3.3711-13.578 3.5352-3.6094 6.8828-14.801 6.2266-17.324 12.352-2.1719 5.2852 0.41797 8.7383-4.0703 13.059-10.859 10.469-32.789 11.434-45.879 6.4648-0.12891-0.054688-0.23438-0.13281-0.37109-0.18359-2.8281 1.2031-5.5508 2.2188-8.0312 3.0898-3.0859 28.363-52.566 28.602-60.129 6.9844l0.003906-0.003906c-0.25391 0.10547-0.51562 0.1875-0.78516 0.23438-18.996 3.1133-47.805 3.0859-63.715-9.918-14.086 5.4219-29.945 3.4375-42.262-5.2852-4.3789-2.4375-7.6016-6.5273-8.9453-11.355-0.19922-2.9883-0.20703-5.9883-0.027344-8.9766 0-2.7969-0.23828-5.2578-1.3086-5.9883-10.281 1.4805-19.152-4.5-24.051-14.574v-0.003906c-0.09375-0.21094-0.17188-0.42969-0.23438-0.65234-0.058594-0.09375-0.10938-0.19141-0.15625-0.28906-2.1016-4.3281-2.8633-9.1875-2.1875-13.949 0.67578-4.7656 2.7578-9.2188 5.9805-12.793-3.25-1.1133-5.5469-4.0352-5.8594-7.457-0.35938-5.7852 2.8945-11.191 8.1758-13.582 3.4531-1.5156 9.0547-2.3789 11.469-5.4414 1.832-2.3008 1.8828-5.3086 3.6992-7.5625 0.62891-0.75 1.3398-1.4258 2.1211-2.0117-3.2812-2.3242-5.1445-6.1641-4.9453-10.18 0.050781-6.0469 5.7031-9.3945 10.648-11.801-4.5547-5.4414-8.582-13.031-0.80859-17.348v-0.003906c-0.55859-0.53516-1.082-1.1016-1.5742-1.6953-0.10547-0.13281-0.17969-0.28906-0.28516-0.41797-0.10547-0.12891-0.21094-0.23828-0.31641-0.37109-20.977-29.375 38.625-49.859 46.676-25.629 11.312-4.9258 23.547-7.3984 35.887-7.25 2.3516-13.215 22.344-13.711 36.16-7.6133 0.125-0.066406 0.25781-0.12109 0.39453-0.16016 5.0625-1.4805 10.32-2.1836 15.594-2.0898-4.5273-36.477 92.418-15.832 50.184 15.801 10.152 5.8359 19.238 13.762 21.113 25.25l0.003906 0.003906c4.0586 2.1875 7.6367 5.168 10.52 8.7656 9.5781 12.062 10.887 26.48 8.6094 41.16 7.9805 1.6992 14.105 7.0117 12.77 16.168h-0.003906c-0.47656 3.0312-1.5234 5.9453-3.082 8.582 2.1211-0.65625 4.3164-1.2852 6.5664-1.8516-8.4258-13.582 16.648-15.859 26.77-12.613 7.2734 2.3242 20.301 1.9844 24.777 9.4688zm-13.578 11.695c2.9805-1.3594 12.531-6.2266 7.0312-9.3633h-0.003906c-2.4219-1.3594-5.0312-2.3594-7.7422-2.9609-4.0703-0.94141-8.1133-1.7812-12.168-2.7695v-0.003906c-3.7305-0.90625-7.5742-1.2656-11.406-1.0703-4.582 0.17969-12.09 0.33984-7.0312 6.1758 12.801-2.25 25.75-1.2852 31.328 9.9922zm-16.379 28.367c7.8984-5.5508 16.648-18.395 7.6133-27.242-10.469-10.258-28.445-2.3008-40.219 1.9375 2.7188 6.125 2.5391 16.168 1.6992 22.867 0.16016 0.078125 0.33984 0.12891 0.5 0.21094 9.9219 5.6016 20.074 9.4609 30.41 2.2266zm-36.164 24.543c2.5117-9.1836 11.957-8.1602 17.164-13.629v-0.003906c-4.832-1.1758-9.4727-3.0273-13.785-5.4961-5.4961 14.023-22.266 25.98-37.969 33.855v0.003906c8.5352 1.5859 17.355 0.46875 25.227-3.1953 6.9883-3.0078 7.6172-5.2031 9.3711-11.539zm-2.543-56.754c7.1133-5.9414 11.434-17.926 1.4805-21.09 0.875 7.0586 0.37109 14.223-1.4805 21.09zm1.8516 23.363c0-0.52344 0.027344-2.0664-0.050781-3.9531v0.003906c-1.0195 8.1523-4.5938 15.77-10.211 21.77-12.035 12.145-27.496 17.062-41.574 25.898 0.28906 0.91406 0.54687 1.832 0.80859 2.7695h0.003907c0.066406 0.32031 0.10937 0.64453 0.12891 0.96875 0.050781 0.39062 0.10547 0.78516 0.16016 1.1523h-0.003906c17.32-6.1406 32.754-16.66 44.797-30.535 4.2344-5.0352 6.3633-11.508 5.9414-18.074zm-3.1172-15.305c-0.39063 0.18359-0.73828 0.39062-1.1523 0.55078h0.003906c-0.22266 0.10547-0.46094 0.17188-0.70703 0.20703-9.4961 21.461-31.078 38.23-53.172 46.656 0.78906 0.92578 1.5156 1.9023 2.1719 2.9297 22.391-10.023 49.711-24.23 52.848-50.344zm-60.477 42.703c27.816-9.3945 57.488-34.172 57.461-64.961-1.9883 2.3164-4.2656 4.3711-6.7773 6.1172-3.5312 13.863-10.641 26.551-20.617 36.801-4.957 5.6094-10.918 10.246-17.582 13.66-5.2344 2.5625-10.703 4.1836-15.859 6.6172 1.1758 0.48828 2.3047 1.0781 3.375 1.7656zm56.102-77.402c2.5625-13.969 2.1211-30.875-9.6016-40.871-4.6406-3.8828-10.098-6.6719-15.961-8.1641 22.938 14.391 31.633 48.562 1.1094 62.668-0.14844 0.070312-0.30859 0.11328-0.47266 0.13281 0.33984 2.8789 0.57812 5.707 0.70703 8.5078 10.18-4.8086 22.348-10.965 24.203-21.223-0.046874-0.34766-0.042968-0.70313 0.015626-1.0508zm-7.5625 67.09c3.418-3.4023 6.1602-7.418 8.0859-11.84-10.602 15.41-29.934 25.512-47.02 33.176 0.26172 0.52344 0.46875 1.0469 0.70703 1.5742 12.766-7.7852 27.418-11.996 38.227-22.91zm-2.707-45.422c-2.7227 1.625-5.5195 3.0586-8.1406 4.3945h0.003907c-0.011719 0.10156-0.046876 0.20312-0.10547 0.28906-10.395 15.172-24.098 27.789-40.074 36.895-15.359 8.8711-32.398 14.441-50.031 16.352-26.086 2.5117-58.742-2.1445-81.688-17.586v0.003906c-0.12109 0.17969-0.26172 0.34766-0.41797 0.49609 25.898 21.379 64.996 36.445 96.293 23.105h-0.003906c5.25-5.4062 11.918-9.2266 19.242-11.016 3.3086-0.76953 6.7305-0.92969 10.094-0.46875 11.254-6.9336 24.52-8.9258 34.039-19.152v-0.003906c9.3516-9.3984 16.457-20.781 20.789-33.309zm-8.4688-48.645c4.9453 10.492-0.96484 19.836-8.8438 26.453 0.88672 3.3984 1.5703 6.8555 2.1211 10.281 31.504-15.516 13.945-55.184-15.168-60.73-2.043-0.027344-4.1055 0-6.1758 0.078125 10.328 7.4336 22.234 11.535 28.066 23.918zm-10.027 22.375c4.0703-3.457 8.0078-7.8242 7.8477-13.27-0.34375-7.8477-4.4883-15.035-11.109-19.266-3.2461-2.1719-6.6602-4.1094-9.9883-6.125 5.2617 5.8086 8.582 13.66 5.1797 20.801 3.4961 5.5547 6.2109 11.566 8.0703 17.859zm8.6445-49.48c-3.5078-8.2969-11.957-14.547-20.832-19.129h0.003907c-0.10156-0.070313-0.20703-0.13281-0.31641-0.18359-4.5273-2.2812-9.1914-4.2734-13.969-5.9648-11.801-4.2383-24.543-7.6914-37-5.707 1.1484 0.96484 2.1836 2.0508 3.0859 3.2461 20.719-1.9883 40.508 5.7578 50.605 24.648 6.2539 0.17969 12.453 1.2188 18.422 3.0898zm-5.4414 83.68c-3.8984 1.9336-7.8242 3.8086-11.777 5.625-26.375 31.477-77.844 46.656-116.18 30.488-14.43-2.3555-27.707-8.3477-41.652-13.949-0.21094 0.33984-0.39453 0.70703-0.62891 1.0469 20.75 18.523 56.543 25.824 83.312 23.234v-0.003906c18.297-1.4062 36.039-6.9375 51.898-16.172 13.32-8.0117 25.168-18.25 35.023-30.27zm-6.5703-7.8516c-0.34766-14.543-4.5508-28.734-12.172-41.125-4.7891-7.0312-11.906-14.316-21.062-14.656h-0.003906c-6.582-0.054688-13.039 1.8086-18.578 5.3672 2.9062 2.1719 5.6797 4.1875 8.2969 6.125l-0.003906-0.003907c4.0898-1.1367 8.3516-1.5273 12.582-1.1484 2.9219 0.25 5.793 0.91016 8.5312 1.9609 1.0156 0.44531 1.8828 0.83984 2.5625 1.207v-0.003906c0.52734 0.34375 1.0312 0.71484 1.5195 1.1133 0.73828 0.625 0.99609 1.0469 0.83594 1.2812-0.16016 0.23437-0.62891 0.26172-1.5156 0.078124l-0.003906-0.003906c-0.57422-0.12109-1.1445-0.27734-1.6992-0.46875-0.70703-0.15625-1.5156-0.33984-2.5117-0.54688h-0.003907c-2.6133-0.58203-5.2773-0.91406-7.9531-0.99609-2.7305-0.10938-5.4688 0.074218-8.1602 0.54687 2.7461 2.043 5.3125 3.9531 7.668 5.7812h-0.003906c2.9883-0.76172 6.125-0.74219 9.1055 0.054688 2.125 0.60156 4.0898 1.6641 5.7578 3.1133 0.90234 0.71875 1.6367 1.6328 2.1445 2.668 0.33984 0.65625 0.33984 1.0195 0.12891 1.207-0.21094 0.18359-0.59766 0.15625-1.2266-0.13281-0.62891-0.28906-1.4141-0.86328-2.6406-1.4805-1.5703-0.875-3.2656-1.5-5.0273-1.8516-1.3633-0.29297-2.7695-0.37891-4.1602-0.25781 4.2422 3.4258 8.1992 7.1914 11.84 11.25 2.3984 2.5508 4.5469 5.3242 6.4141 8.2852 1.1758 1.8047 1.543 2.6719 1.332 2.8516-0.21094 0.17969-0.99219-0.41797-2.5391-1.9102-1.5469-1.4922-3.6992-4.0039-7.1914-7.2734-1.2344-1.2344-2.6484-2.543-4.2383-3.9258 0.46875 2.8789 1.1758 4.9727 1.3047 6.5664 0.31641 2.3047 0.10547 3.1172-0.41797 3.2695-0.52344 0.15625-1.2539-0.52344-2.25-2.5898v0.003907c-0.66406-1.3789-1.2344-2.8047-1.7031-4.2656-0.25781-0.99219-0.52344-1.9883-0.83594-3.1914-0.15625-0.86328-0.23828-2.5078-0.33984-3.3984-1.8516-1.4805-3.8164-3.0859-6.0156-4.7891-0.070312 1.3281 0.011719 2.6641 0.23438 3.9766 0.28516 1.8281 0.66797 3.6406 1.1484 5.4258 0.96875 3.2969 1.7031 5.8867 2.2539 7.8516 1.1094 4.0039 1.1523 5.7031 0.625 5.8594-0.52344 0.16016-1.4375-1.1094-3.2461-4.8945h0.003906c-1.1758-2.5273-2.2031-5.125-3.0859-7.7695-0.65625-1.9102-1.1641-3.8711-1.5195-5.8594-0.46875-2.4102-0.48047-4.8906-0.023437-7.3047-2.043-1.5156-4.2656-3.0859-6.6211-4.7891l-0.003906 0.003907c-0.11328 3.7188 0.30078 7.4375 1.2344 11.043 0.73828 2.7188 1.0469 3.8945 0.52344 4.2109-0.23828 0.13281-0.57422 0.027344-1.1094-0.46875l-0.003906-0.003906c-0.81641-0.78125-1.4922-1.6992-1.9883-2.7188-2.1367-4.6211-2.9961-9.7305-2.4844-14.797-2.8789-2.0664-5.9922-4.3438-9.2109-6.7773-0.44531 0.26172-0.91406 0.52344-1.3633 0.78516-0.8125 28.152 28.848 55.227 56.871 47.516zm-7.5352-48.156c1.543-7.1133-4.4414-14.625-10.234-18.551-0.14062 3.2227 0.27734 6.4453 1.2344 9.5234 2.7031 2.0547 5.1797 4.3984 7.3789 6.9883 0.57422 0.63281 1.0977 1.3398 1.6211 2.0391zm-1.8047-53.875v0.003906c3.2891-1.9141 6.168-4.4609 8.4766-7.4844-12.77 5.4414-32.051-0.23828-43.227-7.5898-0.14062 0.70703-0.14844 1.4336-0.023437 2.1445 0.097656 0.60547 0.0625 1.2188-0.10938 1.8086 9.3242 1.2969 18.422 3.8867 27.031 7.6914 2.4844 1.0742 5.1016 2.2188 7.7695 3.5078zm-31.555-19.469c10.438 6.8555 31.164 12.715 41.133 5.0508-4.1602-9.0938-31.531-11.582-41.133-5.0664zm22.086 42.832c2.5625-0.17969 5.207-0.28906 7.875-0.31641-9.4453-15.699-26.219-22.004-44.145-20.828l-0.003906 0.007812c0.51562 1.5625 0.63672 3.2266 0.35938 4.8477 6.875-1.3906 14.008-0.70703 20.492 1.9648 6.4648 2.1836 11.77 6.8945 14.707 13.055 0.20703 0.41797 0.37109 0.86328 0.54687 1.2812 0.03125 0 0.10938-0.027344 0.16406-0.027344zm-8.4805 173.56-0.003906 0.003906c3.2422-1.6016 5.8359-4.2695 7.3477-7.5586 1.5078-3.2852 1.8438-6.9922 0.94922-10.496-2.3008-9.1562-7.7695-16.406-16.223-16.98-4.0117 0.54688-7.7227 2.4336-10.531 5.3477-2.8086 2.9141-4.5547 6.6914-4.957 10.719-2.3047 14.844 11.039 19.605 23.414 18.953zm17.02-85.668-0.003906 0.007813c-4.7031-0.070313-9.3672-0.83203-13.852-2.2578-18.734 10.965-42.809 20.227-64.344 21.742v0.003906c-23.934 1.1289-47.906-1.1602-71.195-6.8008-0.23828 0.80859-0.46875 1.6211-0.73828 2.4297 15.305 6.2891 31.32 14.707 48.199 14.469 19.465-0.28516 37-6.5156 55.312-12.375h-0.003906c15.852-4.8789 31.422-10.629 46.637-17.23zm-3.8164 8.1875c-5.6016 2.4102-11.254 4.6875-16.957 6.8281-13.215 13.27-27.379 17.559-46.078 15.57l-0.003906 0.007812c-9.1094 2.7969-18.516 4.5195-28.027 5.1289 31.418 6.3164 68.336-5.3828 91.078-27.547zm-11.406-79.449c-0.70703-8.6602 0.78516-17.82-8.7656-22.398-5.8086-2.7969-20.254-7.4297-23.602 1.1094-0.019531 0.054687-0.046875 0.10938-0.078125 0.15625 0.54688 0.91406 1.0742 1.8516 1.5703 2.8516 4.0039-5.4961 13.27-6.4375 19.129-3.7461 7.6133 3.5078 8.8438 13.531 8.6602 21.172v0.003906c1.043 0.22656 2.0742 0.51172 3.0859 0.85156zm-7.0312-1.4375c0.10547-5.5977-0.47266-14.336-5.7305-16.746-4.6836-2.1445-12.297-1.9648-15.281 2.8281v-0.003907c0.60938-0.40625 1.2812-0.70703 1.9883-0.89062 9.3945-2.4609 9.8125 7.9023 8.3477 15.727 3.4922-0.89062 7.1094-1.1992 10.703-0.91797zm3.5039 68.66c-2.8203-1.2109-5.5391-2.6367-8.1406-4.2656-26.035 13.004-56.023 15.621-84.699 17.086-11.066 0.57812-24.121 0.21094-33.961-5.6523v-0.003906c-1.3398-0.77344-2.625-1.6406-3.8477-2.5898 0.87891 2.6836 1.1328 5.5273 0.73828 8.3203 22.688 5.0508 47.254 9.3945 70.438 6.6992v0.003906c20.887-2.75 41.07-9.3984 59.5-19.598zm-12.27 22.633c-1.5977 0.55078-3.168 1.1523-4.8086 1.6758-6.5156 2.1445-13.133 4.5234-19.832 6.75v-0.003907c8.875-0.30078 17.461-3.2344 24.668-8.4258zm0.44531-29.438c-3.1211-2.2969-6.0195-4.8828-8.6602-7.7227-19.113 8.3945-39.312 14.059-60 16.828-16.457 1.9609-37.969 3.2461-49.137-11.488h-0.003906c-3.0625-1.625-5.8281-3.75-8.1914-6.2891 4.1055 12.402 10.414 20.984 25.484 23.422v-0.003906c10.352 1.3164 20.824 1.375 31.191 0.18359 23.684-1.7695 47.727-4.6484 69.344-14.93zm-7.9531-65.938c0.050781-0.70703 0.37109-6.4102-1.3633-4.3945-2.4609 2.8516-2.6172 8.7656-2.25 12.977 0.70703-0.33594 1.4375-0.67578 2.1445-1.0156l0.003906-0.007812c0.81641-2.4453 1.3164-4.9883 1.4883-7.5625zm-4.1875 133.79-0.31641 0.15625c-4.4688 3.0859-7.9062 7.4414-9.8633 12.508-4.1836 12.324 8.2422 19.238 21.012 19.387-9.5742-3.5039-16.379-11.328-13.895-23.836v0.003906c0.59766-2.8828 1.6406-5.6562 3.0859-8.2188zm0.78516-78.68h-0.003906c-1.6602-2.0586-3.1875-4.2227-4.5742-6.4727-19.57 8.5586-39.695 15.125-61.23 15.332-9.9336 3.7617-20.68 4.8438-31.164 3.1406 13.238 8.5078 34.668 5.2617 48.469 2.5898 16.641-3.1602 32.902-8.0508 48.527-14.59zm-6.0703-43.309c-0.050782-0.39062-0.10547-0.80859-0.16016-1.2266-1.5703-5.207-6.5938-5.9375-11.516-5.1523l0.003907-0.003906c1.582 3.6484 4.3242 6.6719 7.7969 8.6094 1.3125-0.76172 2.5898-1.4922 3.875-2.2266zm-0.44922 33.441c-0.80859-1.5742-1.543-3.168-2.2188-4.7617-6.8008 1.8203-13.859 2.4688-20.879 1.9102-7.2617 6.8281-15.52 12.508-24.492 16.848 16.469-2.2891 32.504-7.0078 47.59-13.996zm-1.6719-45.191v0.003907c-0.058594-0.14453-0.10156-0.29297-0.13281-0.44531-5.6758-30.93-48.301-32.711-72.738-22.938 13.918 23.473 34.016 41.16 61.988 38.047v-0.003906c-2.2422-2.3945-3.9609-5.2266-5.0508-8.3203-2.6211 0.62109-5.3164 0.87891-8.0078 0.76172-2.6602-0.074219-5.2969-0.48828-7.8516-1.2305-0.94531-0.28906-1.7266-0.57422-2.3828-0.83594-0.65625-0.26172-1.1094-0.60156-1.5156-0.83594-0.73828-0.5-0.99219-0.83984-0.88672-1.1094s0.52344-0.39062 1.3867-0.37109c0.41797 0.03125 0.96484 0.082031 1.5938 0.18359 0.62891 0.10547 1.4805 0.12891 2.3555 0.23828 2.4258 0.25781 4.8633 0.37109 7.3008 0.33984 2.4375-0.042968 4.8633-0.37891 7.2227-0.99609 0.003906-0.054687 0.023438-0.10937 0.050781-0.15625-2.5898-2.7461-5.332-5.3398-8.2148-7.7734-3.6523 1.5039-7.5312 2.3789-11.473 2.5898-2.7617 0.15234-5.5312 0.015625-8.2656-0.41797-4.0703-0.73828-5.4688-1.6758-5.3633-2.1445 0.10547-0.60156 1.6719-0.62891 5.5977-0.62891 2.5781 0 5.1562-0.14062 7.7227-0.41797 2.793-0.29297 5.5469-0.89062 8.2109-1.7812-2.668-1.9844-5.4883-3.7656-8.4258-5.3281-5.7461 0.67578-11.547 0.71484-17.297 0.10547-3.375-0.39063-4.6562-0.89063-4.6562-1.4375 0-0.54688 1.2852-1.0195 4.6836-1.3633 2.2539-0.28906 5.5234-0.31641 9.8672-0.57812-1.4375-0.52344-2.6953-1.043-3.7695-1.3047-1.2539-0.31641-2.25-0.60156-3.0078-0.83594-1.5703-0.5-2.25-0.86719-2.1992-1.1562 0.050781-0.28906 0.73828-0.39062 2.4062-0.37109 0.83984 0.027344 1.9141 0.082032 3.2734 0.21094v0.003906c1.5977 0.23047 3.1797 0.57031 4.7344 1.0195 1.8203 0.47656 3.6016 1.0781 5.3359 1.8047 0.10547 0.003906 0.21094-0.003906 0.3125-0.023437l0.027343 0.17969c2.5898 1.1172 5.1016 2.4102 7.5117 3.875-1.6211-3.6992-3.375-6.2266-4.3164-8.1406-1.6758-2.7695-2.043-4.0703-1.6211-4.4414s1.543 0.33984 3.8711 2.8281h-0.003906c3.4648 3.9219 6.0625 8.5312 7.6172 13.527 3.1016 2.3984 6.0391 5.0039 8.793 7.7969 0.91016-4.5781 0.39453-9.3281-1.4805-13.605-0.59766-1.543-1.1523-2.5625-1.4102-3.2969-0.25781-0.73438-0.26172-1.1758-0.054688-1.3633 0.20703-0.18359 0.60156-0.050781 1.2578 0.42188 1.0586 0.80078 1.957 1.793 2.6406 2.9297 1.4102 2.082 2.3906 4.4219 2.8789 6.8828 0.62109 3.0781 0.58594 6.25-0.10156 9.3125 3.8477-0.80859 7.8398-0.60547 11.586 0.59375zm-1.9102 36.789c-1.2969-3.9648-2.0977-8.0781-2.3828-12.242-4.3711 4.8906-8.6367 9.5742-13.059 13.945h0.003906c5.207 0.33203 10.43-0.24609 15.438-1.7031zm-3.0898-61.047c12.715-13.32-26.324-20.094-30.535-11.645h0.003906c11.113 0.74609 21.746 4.8047 30.535 11.648zm-5.5195 169.27c0.53125-1.6523 1.2031-3.2539 2.0156-4.7891-20.93 5.5508-44.086 1.0195-64.68-8.6875 12.793 17.09 43.434 19.656 62.664 13.48zm-1.1758 7.2461c0-0.95312 0.058593-1.9062 0.18359-2.8516-22.66 6.4102-57.801 1.5977-68.215-21.168-0.15234-0.097656-0.3125-0.18359-0.47266-0.26172 4.4414 27.656 45.324 27.75 66.969 24.18h-0.003906c0.51562-0.10156 1.0469-0.0625 1.5391 0.10547zm-12.719-129.91c-0.70703-0.082032-1.3828-0.18359-2.0898-0.31641-11.539 14.801-35.887 25.695-54.242 24.488-11.469-0.73828-20.883-9.7344-20.961-19.938-2.3906 3.8594-2.0938 8.8047 0.73828 12.352 3.3828 4.4141 8.1758 7.5391 13.582 8.8438 7.8359 1.8047 16 1.5977 23.73-0.60156 15.066-4.0273 30.449-11.59 39.242-24.828zm-6.4609-1.1445c-0.57812-0.12891-1.1094-0.28516-1.6758-0.41797-9.25 12.641-30.117 18.293-44.926 18.293-17.531 0-16.145-8.7148-16.012-21.953-0.62891 0.55078-1.2852 1.1094-1.9375 1.7266-8.8438 13.918 7.1719 24.859 18.945 24.051l-0.003906-0.003906c6.9492-0.41016 13.746-2.2148 19.98-5.3086 8.8945-4.332 18.953-8.8359 25.629-16.387zm-5.6328-1.6328c-1.8047-0.62891-3.5859-1.3359-5.3398-2.1445-0.25781 0.625-0.71875 1.1445-1.3086 1.4805-12.09 7.0664-34.277 6.6172-46.5-2.8789h0.003906c-0.89062 4.7227-0.98438 9.5586-0.28516 14.312 2.2773 7.3516 15.438 4.9414 20.957 3.8945 11.102-2.1016 24.992-5.3984 32.473-14.664zm-11.402-5.2852c-2.207-1.3086-4.3477-2.7305-6.4102-4.2617-11.84 4.1602-28.469-1.3086-36.766-10.809-0.28516 0.20703-0.57422 0.44531-0.86328 0.65625 1.3633 18.051 30.328 20.93 44.039 14.414zm-40.219-17.66h0.003906c7.7344 8.168 18.961 12.051 30.09 10.41-2.9023-2.4844-5.6406-5.1602-8.1914-8.0039-6.6875 0.066406-13.203-2.1172-18.5-6.2031-1.043 1.3438-2.1797 2.6133-3.3984 3.7969zm18.523-1.5469h0.003907c-3.4727-4.2969-6.6367-8.8359-9.4727-13.578-0.69922 2.8789-1.8555 5.6289-3.4297 8.1406 3.7734 2.8711 8.2109 4.7422 12.902 5.4375zm-10.516 148.34c-4.1523-5.3555-6.5-11.887-6.707-18.66-0.003906-0.19922 0.003906-0.39844 0.027344-0.59766-8.1836-5.0352-15.809-10.93-22.738-17.586-3.3281 3.3945-7.2578 6.1445-11.59 8.1094 2.6172 4.3984-1.3359 8.6367 0.73828 15.309 4.3711 14.078 27.293 17.242 40.27 13.426zm-15.465-134.15v-0.003906c-1.0469-1.8594-1.7969-3.8711-2.2188-5.9648-6.4336 3.1523-13.965 3.1328-20.383-0.054687-0.24609 0.25781-0.53906 0.46094-0.86719 0.60547-6.1992 2.7695 0.5 8.6875 3.6094 10.91 1.7031 1.2266 2.332 4.3711 0 5.4414h0.003906c-3.4336 1.0977-6.6484 2.7891-9.5 4.9961-1.1328 1-1.8438 2.3945-1.9844 3.8984 3.6992 2.6953 8.8789 2.1211 13.289 2.25 2.1953-9.7969 8.8867-17.98 18.051-22.082zm7.1445-37.574v-0.003906c-3.2266-2.7969-7.457-4.1484-11.707-3.7422-9.3125 0.39453-21.141 7.1172-21.848 16.121 11.836 1.957 30.047 0.625 33.555-12.379zm-31.215 20.41c10.699 12.211 29.172 1.9922 32.758-11.934-7.3008 9.1562-21.93 11.121-34.066 9.5547v-0.003906c0.37109 0.82422 0.80859 1.6211 1.3086 2.3789zm12.211 97.23v-0.003907c1.1367-2.9453 1.3945-6.1602 0.73828-9.25-2.8242 14.129-25.98 24.727-38.387 17.871 0.054688 0.16016 0.13281 0.31641 0.18359 0.47266 3.9531 7.9805 11.039 13.629 20.121 9.3906 7.957-3.6758 14.172-10.305 17.324-18.484zm0.33984-21.715c-3.1133-1.9375-3.793-11.438-5.1289-15.539-0.12891-0.33984-0.23828-0.62891-0.33984-0.89062v-0.003907c-1.1289 0.85156-2.0938 1.8984-2.8516 3.0898-1.5586 2.9805-2.4062 6.2852-2.4805 9.6484h0.082031c3.7891 0.45313 7.4375 1.7148 10.699 3.6914zm-39.113 21.293c5.4961 14.578 39.277-0.65234 33.496-15.539-0.007813-0.042969-0.015625-0.085937-0.027344-0.12891-0.89062-0.38672-1.8086-0.69922-2.7461-0.94531-13.84-3.2695-29.539 3.3281-30.953 16.172 0.078125 0.125 0.15234 0.28516 0.23047 0.44141zm32.656-45.137c-0.17969-0.86719-0.33984-1.7266-0.46875-2.6172-0.12891 0.03125-0.26172 0.046874-0.39453 0.050781-5.3398 0.41797-10.336-0.13281-12.562 5.7031h0.003906c-0.89453 2.543-2.4219 4.8125-4.4414 6.5977-2.7266 1.9805-5.793 3.4453-9.0508 4.3242-5.5195 2.0898-12.211 10.52-2.3281 11.746h0.003907c5.5625-3.6328 12.012-5.6797 18.652-5.918 0.85547-7.7969 3.3945-16.434 10.586-19.887z"/>
  <path d="m506.8 311.11c15.285 0.46875 34.148 11.355 32.105 28.887-1.5703 13.527-15.098 24.883-27.945 27.555-15.281 3.1641-27.188-4.4414-32.449-18.66l0.003906 0.003906c-0.13281-0.27734-0.23828-0.56641-0.3125-0.86328-0.11719-0.3125-0.1875-0.63672-0.20703-0.96875-0.8125-3.3906-1.0625-6.8906-0.74219-10.359-2.6719 0.79297-5.5664 0.14062-7.6406-1.7305-2.1992-2.0938-1.4141-5.5195-3.0625-7.7461-3.6992-5.0195-15.125-7.0312-10.359-15.621 3.3281-5.9883 13.996-5.8359 19.703-5.1797 6.125 0.70703 14.34 1.832 18.684 6.8281 3.8828-1.5469 8.0469-2.2773 12.223-2.1445zm3.3281 48.562 0.003906 0.003906c8.5391-2.2422 15.715-8.0195 19.727-15.887-16.012 6.4102-39.801 2.2188-42.703-14.801v0.003907c-2.793 5.2148-3.2969 11.355-1.3867 16.957 3.7383 10.848 12.871 17.074 24.359 13.727zm-17.758-36.055c-2.2773 18.941 25.746 21.113 38.777 13.551-0.011719-16.086-25.547-22.316-38.762-13.551zm-13.633 6.2539c1.8672-5.3984 5.3555-10.086 9.9883-13.422-6.0195-4.7109-19.078-5.3633-25.227-2.8516-5.3398 2.1992 6.0977 7.2734 7.8789 9.6836v-0.003906c0.92188 1.2852 1.5742 2.7461 1.9102 4.2891 0.73828 3.0898 1.2812 3.4805 4.6836 2.4336 0.25781-0.066406 0.51562-0.10938 0.78125-0.12891z"/>
  <path d="m519.12 329.71c0.73438 0.94531 1.0547 2.1484 0.89453 3.332-0.14062 0.69531-0.71094 1.2227-1.4141 1.3047-0.60156 0.10547-1.1523-0.41797-1.6758-0.78516-0.54688-0.25781-1.0078-0.66797-1.332-1.1758-0.93359-0.98438-1.2812-2.3906-0.91797-3.6992 0.55078-1.0664 2.8281-1.0391 4.4453 1.0234z"/>
  <path d="m511.07 477.97c-3.293 2.3555-6.7969 4.4062-10.465 6.125-4.2227 2.1914-8.5547 4.1641-12.98 5.918-5.8047 2.4727-11.73 4.6445-17.758 6.5156-1.6445 0.54688-3.3477 1.1523-5.1016 1.6719-1.7539 0.52344-3.5859 0.96875-5.418 1.4805-3.6992 0.96875-7.5312 1.9922-11.512 3.0391-4.0703 0.83594-8.2188 1.6719-12.508 2.5391-2.1719 0.41797-4.3438 0.86328-6.5664 1.2812-2.2188 0.31641-4.5 0.65625-6.7773 0.96875v-0.003906c-19.875 3.0195-39.984 4.2227-60.074 3.5859-5.3125-0.18359-10.574-0.37109-15.727-0.55078-5.207-0.49609-10.332-1.1094-15.359-1.6445-2.5117-0.26172-5-0.55078-7.457-0.83984-2.6406-0.25781-4.8672-0.86328-7.3008-1.2812-2.3555-0.44531-4.7109-0.91797-7.0312-1.3633-2.3047-0.54688-4.6055-1.2266-6.8555-1.8047s-4.4766-1.2266-6.6602-1.832c-2.1836-0.60156-4.2617-1.4375-6.3555-2.1445-4.1367-1.4805-8.2188-2.7461-11.984-4.4727-3.7695-1.6484-7.4844-3.1172-10.941-4.7617-3.4258-1.7266-6.6953-3.3828-9.8125-4.9727-3.1641-1.5156-5.9375-3.3984-8.6875-4.9453-2.6953-1.6445-5.3359-3.0352-7.5859-4.6562-4.5547-3.2148-8.582-5.8086-11.621-8.293v-0.003906c-3.2812-2.3828-6.3203-5.082-9.0781-8.0625 0.57812-0.78516 13.555 10.859 38.387 23.184 14.461 7.2344 29.641 12.926 45.293 16.984 2.1992 0.57812 4.3945 1.207 6.6602 1.7031 2.2656 0.49609 4.6562 0.86328 7.0312 1.3086 2.332 0.37109 4.8438 0.99219 7.0938 1.2031 2.4297 0.23438 4.8672 0.49609 7.3242 0.73828 4.9453 0.49609 9.9688 1.0195 15.043 1.543 5.1797 0.18359 10.441 0.37109 15.727 0.52344v0.003906c19.848 0.62109 39.707-0.44922 59.371-3.1953 2.2773-0.28906 4.5-0.57812 6.7227-0.86719 2.1992-0.39062 4.3438-0.78516 6.4883-1.1758l12.402-2.2773c3.9531-0.96875 7.7695-1.8828 11.438-2.7734 1.8516-0.44531 3.6641-0.86328 5.418-1.3047 1.7539-0.44531 3.4258-1.0195 5.0781-1.5195 26.598-7.7461 41.75-16.406 42.141-15.57z"/>
  <path d="m510.34 333.04c0.74219 0.78125 0.96875 1.9258 0.57812 2.9297-0.49219 1.0547-1.6328 1.6484-2.7773 1.4414-0.64844-0.20703-1.168-0.69922-1.4102-1.3398-0.23828-0.63672-0.17187-1.3516 0.18359-1.9336 0.83594-1.7266 2.6562-1.9883 3.4258-1.0977z"/>
  <path d="m509.89 329.56c0.15625 1.2031-2.3555 2.3516-5.6289 2.5898-3.1367 0.027343-5.7031-0.94531-5.7031-2.1719 0-1.2266 2.5117-2.2188 5.625-2.25 3.0117-0.19141 5.5508 0.60156 5.707 1.832z"/>
  <path d="m504.45 269.61c3.5586 2.0664 5.4414 3.3281 5.3125 3.6094-2.1367-0.33594-4.2031-1.043-6.0977-2.0898-3.7969-1.5742-9.1055-4.1641-16.016-6.5664-1.6992-0.65625-3.4766-1.3086-5.3359-2.0156-1.9102-0.79297-3.8672-1.4766-5.8594-2.043-4.0703-1.2812-8.4531-2.668-13.059-4.1055-4.6562-1.2031-9.5547-2.4609-14.629-3.7422-2.5391-0.70703-5.1523-1.2305-7.8203-1.7266-2.668-0.49609-5.3398-1.0742-8.0625-1.5977-5.4414-1.2266-10.859-1.8516-16.039-2.6172-2.5898-0.39062-5.1289-0.75781-7.6406-1.1094-2.5117-0.23438-4.9453-0.46875-7.3516-0.70703-4.8086-0.41797-9.3164-1.0195-13.633-1.2539s-8.3203-0.41797-11.984-0.60156c-1.8516-0.10547-3.5859-0.20703-5.2305-0.28906-1.6445-0.082031-3.1406-0.027344-4.582-0.050781-2.9297-0.050781-5.4414-0.10547-7.4844-0.15625v-0.003906c-2.1602 0.15625-4.3281-0.074219-6.4062-0.67969 2.043-0.70703 4.1914-1.0586 6.3555-1.0469 2.043-0.15625 4.5547-0.33984 7.457-0.57812 1.4805-0.10547 3.0586-0.20703 4.7344-0.3125h5.2305c3.6992 0.027344 7.6914 0.050781 12.008 0.050781 4.3164 0.078126 8.9766 0.54688 13.871 0.86328 2.4297 0.18359 4.9414 0.37109 7.4805 0.57812 2.5391 0.3125 5.1289 0.67578 7.7695 1.0156 5.2578 0.73828 10.73 1.3086 16.25 2.5664 2.7461 0.54688 5.4961 1.1094 8.1875 1.6445 2.6953 0.53516 5.3398 1.0742 7.9023 1.8047 5.1289 1.3867 10.102 2.668 14.801 4.0703 4.6055 1.5977 9 3.1172 13.109 4.5547l0.003906 0.007812c1.9961 0.65234 3.9531 1.418 5.8594 2.3008 1.8516 0.80859 3.6094 1.5977 5.3125 2.332h0.003907c5.375 2.2578 10.582 4.8945 15.582 7.8945z"/>
  <path d="m506.7 411.12c0.55859 1.1172 0.73828 2.3828 0.51953 3.6094-0.23438 0.86328-0.65234 1.4805-1.2539 1.5938-1.2031 0.37109-2.5117-1.8047-3.2695-3.3477-0.83594-1.7539-1.3633-3.3984-0.65625-4.5 0.37109-0.47266 1.1094-0.52344 2.0664-0.10547h0.003906c1.1523 0.59375 2.0664 1.5625 2.5898 2.75z"/>
  <path d="m497.04 411.85c1.4375 2.9062 1.7266 5.6797 0.62891 6.2266s-3.1406-1.3633-4.5781-4.2383c-1.4336-2.8789-1.7266-5.6758-0.65625-6.2266 1.0742-0.55078 3.1641 1.3633 4.6055 4.2383z"/>
  <path d="m484.59 413.29c0.80859 0.94531 1.2578 1.8828 1.1094 2.3281-0.57812 0.73828-1.4688 1.168-2.4102 1.1523-0.55469-0.050781-1.0781-0.28906-1.4805-0.67969-0.45703-0.53906-0.55859-1.2969-0.25781-1.9375 0.16016-0.63281 0.64453-1.1289 1.2695-1.3047 0.62891-0.17969 1.3008-0.011718 1.7695 0.44141z"/>
  <path d="m410.91 274.62c-0.027344 1.207-1.7539 2.2188-4.1641 2.0664-2.7695-0.26172-3.9258-1.8047-3.6992-2.9609 0.23828-1.2305 2.4609-1.543 4.0703-1.4375 1.9883 0.11328 3.793 1.0859 3.793 2.332z"/>
  <path d="m403.05 475.64c1.0195 0.65625 0.60156 3.0352-0.99609 5.2852-1.6445 1.9609-3.7656 2.9297-4.6836 2.1172s-0.31641-3.0352 1.3359-4.9961c1.3633-1.9883 3.2969-3.0586 4.3438-2.4062z"/>
  <path d="m396.49 463.24c3.2461 1.9336 5.3906 4.3438 4.7617 5.3906s-3.7656 0.33984-7.0117-1.5977c-3.2461-1.9375-5.3906-4.3164-4.7617-5.3633 0.62891-1.0469 3.7656-0.33594 7.0117 1.5703z"/>
  <path d="m393.66 471.25c2.5391 0 4.582 0.99609 4.582 2.2188 0 1.2266-2.043 2.1992-4.582 2.1992-2.5391 0-4.582-0.99609-4.582-2.1992 0.003906-1.1992 2.0703-2.2188 4.582-2.2188z"/>
  <path d="m269.11 299.65c2.3555 1.5195 3.0898 3.8203 2.2188 4.6055-0.91797 0.86328-2.8281 0.23828-4.5547-0.86328-1.2578-0.89062-3.2461-2.332-2.8516-3.5078 0.375-1.0703 2.3359-1.9062 5.1875-0.23437z"/>
  <path d="m260.27 303.34c2.3828 0.625 4.2383 1.8516 4.1055 3.0859-0.13281 1.2344-2.5391 1.8828-5.2578 1.1758-2.9805-0.86328-4.3438-2.6953-3.8984-3.793 0.44531-1.0977 2.9297-1.0469 5.0508-0.46875z"/>
  <path d="m243 405.44c1.207 0.23828 1.9922 1.9375 1.7539 3.7969-0.23828 1.9336-1.4141 3.3477-2.6172 3.168-1.2031-0.17969-1.9922-1.8516-1.7539-3.7969 0.23828-2.0156 1.4141-3.4258 2.6172-3.168z"/>
  <path d="m236.01 408.48c0.99609 0.73828 0.88672 2.4844 0.10547 3.9258-0.59766 1.0703-1.9883 2.5898-3.1367 2.1992-1.1523-0.39062-1.9141-1.9375-0.73828-4.2383 1.0195-1.9141 2.8242-2.6211 3.7695-1.8867z"/>
 </g>
</svg>
