<?xml version="1.0" encoding="UTF-8"?>
<svg width="752pt" height="752pt" version="1.1" viewBox="0 0 752 752" xmlns="http://www.w3.org/2000/svg">
 <g>
  <path d="m376.41 386.63c-1.9648 0-3.8477 0.77734-5.2344 2.168-1.3906 1.3867-2.168 3.2695-2.168 5.2305v24.078c0 4.0898 3.3125 7.4023 7.4023 7.4023 4.0859 0 7.3984-3.3125 7.3984-7.4023v-24.078c0-1.9609-0.77734-3.8438-2.168-5.2305-1.3867-1.3906-3.2695-2.168-5.2305-2.168z"/>
  <path d="m519.58 321.57c-43.68-35.438-90.441-66.902-139.72-94.02-0.125-0.066406-0.26172-0.089844-0.38672-0.14844-0.16016-0.074219-0.32422-0.125-0.48828-0.1875v0.003906c-1.6641-0.62891-3.4961-0.625-5.1602 0-0.16797 0.0625-0.32812 0.11328-0.48828 0.18359-0.125 0.058593-0.26562 0.082031-0.38672 0.14844-49.281 27.117-96.039 58.582-139.72 94.02-24.57 20.152-39.699 49.578-41.789 81.281-2.0938 31.707 9.0391 62.867 30.746 86.07 21.707 23.203 52.059 36.383 83.832 36.402h121.16c72.336 0 113.17-42.008 127.27-81.309 7.8867-21.477 8.7578-44.895 2.4922-66.898-6.2617-22-19.344-41.449-37.359-55.547zm20.941 117.44c-12.398 34.57-48.684 71.512-113.34 71.512h-121.16c-20.664 0.31641-40.898-5.918-57.801-17.809-16.906-11.887-29.613-28.82-36.305-48.375-7.2891-19.426-8.2422-40.66-2.7227-60.66 5.5195-20 17.227-37.738 33.449-50.676 30.496-24.832 62.582-47.648 96.055-68.297-30.52 36.059-71.891 92.121-75 134.25-0.14453 1.957 0.49609 3.8945 1.7773 5.3789s3.1016 2.3984 5.0586 2.543c4.0625 0.25781 7.582-2.7812 7.9219-6.8359 3.4844-47.211 63.82-118.02 90.551-147.27v106.82c0 4.0859 3.3125 7.3984 7.3984 7.3984 4.0898 0 7.4023-3.3125 7.4023-7.3984v-106.67c26.805 29.336 86.93 99.957 90.406 147.12 0.28125 3.8633 3.4961 6.8555 7.3711 6.8555 0.17969 0 0.36719-0.007812 0.55078-0.023437v0.003906c1.957-0.14453 3.7773-1.0586 5.0586-2.543 1.2812-1.4883 1.9219-3.4219 1.7773-5.3789-3.1094-42.195-44.613-98.383-75.148-134.44 33.578 20.703 65.762 43.578 96.348 68.484 15.621 12.188 26.977 29.016 32.43 48.066 5.4531 19.047 4.7266 39.336-2.0781 57.941z"/>
  <path d="m242.46 433.37c-1.3906-3.8359-5.625-5.8203-9.4648-4.4375-3.8398 1.3828-5.8398 5.6094-4.4648 9.4531 2.2422 6.2188 5.1992 12.152 8.8086 17.691 1.3633 2.1016 3.6992 3.3711 6.207 3.3672 1.4297 0.003907 2.8281-0.41406 4.0234-1.1992 1.6445-1.0703 2.8008-2.7461 3.207-4.668 0.40625-1.918 0.03125-3.9219-1.0391-5.5664-2.9844-4.582-5.4258-9.4922-7.2773-14.641z"/>
  <path d="m348.76 478.06h-42.738c-14.453 0.28516-28.598-4.2188-40.227-12.805-3.2734-2.4453-7.9102-1.7773-10.355 1.4961-2.4492 3.2734-1.7773 7.9102 1.4961 10.355 14.176 10.523 31.434 16.062 49.086 15.754h42.738c4.0859 0 7.3984-3.3125 7.3984-7.3984 0-4.0859-3.3125-7.4023-7.3984-7.4023z"/>
 </g>
</svg>
