<?xml version="1.0" encoding="UTF-8"?>
<svg width="752pt" height="752pt" version="1.1" viewBox="0 0 752 752" xmlns="http://www.w3.org/2000/svg">
 <g>
  <path d="m399.27 227.64c-2.4492-1.7148-4.9805-3.1836-7.5117-4.082-31.438-11.676-55.359-8.4922-71.445 9.3906-82.633 19.27-140.28 79.934-140.28 148.03 0 85.082 87.938 154.4 195.96 154.4s195.96-69.242 195.96-154.4c0-78.465-74.219-144.2-172.69-153.34zm-10.371 3.7539c2.7773 0.98047 5.5508 2.6953 8.082 4.8984 44.012 38.867 91.367 75.039 140.52 107.7 8.8203 5.8789 13.637 16.168 12.328 26.129-0.41016 3.1016-0.98047 6.043-1.7148 8.8203-2.4492-3.5117-5.5508-6.5312-9.3086-8.7383-6.7773-4-15.023-5.1445-22.617-3.1836-2.2031 0.57031-3.5938 2.8594-3.0195 5.0625 0.57031 2.2031 2.8594 3.5938 5.0625 3.0195 5.4688-1.3867 11.594-0.48828 16.41 2.2852 4.4102 2.6133 7.6758 6.7773 9.3906 11.594-6.6953 12.168-18.453 18.699-35.762 19.68-4.8984 0.16406-9.7148-0.89844-13.961-3.1016-2.7773-5.8789-7.1836-11.105-12.902-14.941-48.746-32.336-95.695-68.344-139.62-106.96-3.3477-2.9414-6.9414-5.1445-10.777-6.5312-4-1.4688-7.7578-2.6953-11.512-3.6758-4.1641-8.082-4.2461-17.473 0-25.066 1.7148-3.1016 3.6758-5.7969 5.7148-8.3281-0.082032 5.8789 1.5508 11.758 4.3281 16.332 5.3086 8.8203 13.555 14.207 20.902 19.023l34.129 22.211c4.5742 3.0195 9.3086 6.043 13.719 9.4727 8 6.2891 15.27 14.043 22.289 21.637 4.2461 4.5742 8.5742 9.1445 13.062 13.473 15.676 15.188 30.375 22.945 44.988 23.762h0.24609c2.2031 0 4-1.7148 4.1641-3.918 0.16406-2.2852-1.6328-4.2461-3.918-4.4102-12.574-0.73437-25.559-7.7578-39.766-21.473-4.4102-4.2461-8.5742-8.7383-12.738-13.145-7.2656-7.7578-14.777-15.84-23.27-22.453-4.6523-3.5938-9.5547-6.8594-14.289-9.9609l-34.129-22.211c-6.5312-4.2461-14.043-9.1445-18.289-16.332-3.7578-6.207-4.7344-15.84 0-21.148 0.16406-0.16406 0.16406-0.32812 0.32812-0.57031 12.98-7.3555 30.129-7.1094 51.93 1.0547zm63.445 194.09c0.57031 2.2031 2.8594 3.5938 5.0625 3.0195 5.4688-1.3867 11.594-0.48828 16.41 2.2852 4.4102 2.6133 7.7578 6.7773 9.3906 11.594-6.6953 12.086-18.453 18.617-35.844 19.598-5.8789 0.24609-11.922-1.3867-16.984-4.8164-29.066-19.598-57.891-40.008-86.305-60.992-2.4492-2.2852-5.3086-4.4102-8.4922-6.3672-23.598-17.637-46.867-35.52-69.73-53.891-10.371-8.4102-13.473-23.109-7.1836-34.211 1.7148-3.1016 3.6758-5.7148 5.7148-8.2461-0.082031 5.7969 1.5508 11.758 4.3281 16.25 5.3086 8.8203 13.555 14.207 20.902 19.023l34.129 22.211c4.5742 3.0195 9.3086 6.043 13.719 9.4727 8 6.2891 15.27 14.043 22.289 21.555 4.2461 4.5742 8.5742 9.1445 13.062 13.473 15.676 15.188 30.375 22.945 44.988 23.762h0.24609c2.2031 0 4-1.7148 4.1641-3.918 0.16406-2.2852-1.6328-4.2461-3.918-4.4102-12.574-0.73438-25.559-7.7578-39.766-21.473-4.4102-4.2461-8.5742-8.7383-12.738-13.145-7.2656-7.7578-14.777-15.84-23.27-22.453-4.6523-3.6758-9.5547-6.8594-14.289-9.9609l-34.129-22.211c-6.5312-4.2461-14.043-9.1445-18.289-16.332-3.7578-6.207-4.7344-15.84 0-21.148 0.16406-0.24609 0.32812-0.48828 0.41016-0.73438 6.125-3.4297 13.145-5.1445 21.148-5.1445 8.9805 0 19.188 2.1211 30.621 6.4492 2.8594 1.0625 5.6328 2.7773 8.1641 4.9805 44.172 38.867 91.449 75.121 140.52 107.7 8.8203 5.8789 13.637 16.086 12.328 26.047-0.41016 3.1836-0.98047 6.125-1.7148 8.8203-2.4492-3.5117-5.6328-6.6133-9.3086-8.8203-6.7773-4-15.023-5.1445-22.617-3.1836-2.207 0.72656-3.5977 2.9297-3.0234 5.2188zm-200.29-44.504c0-12.984 3.5117-25.559 10.043-37.477 15.188 12.168 30.621 24.25 46.133 36.09-7.6758-1.5508-15.922-2.4492-24.66-2.4492-11.43 0-22.047 1.4688-31.52 4.082 0.003907-0.082031 0.003907-0.16406 0.003907-0.24609zm31.516 4.4102c18.781 0 36.008 4.4922 47.52 11.352 2.6133 1.9609 5.1445 3.918 7.6758 5.7969 4.4102 4.2461 7.0234 9.0625 7.0234 14.125 0 16.984-28.496 31.273-62.219 31.273-33.723 0-62.219-14.371-62.219-31.273 0-16.902 28.496-31.273 62.219-31.273zm0 70.957c22.535 0 42.297-5.6328 55.113-14.617-10.453 17.148-31.191 28.906-55.113 28.906-23.926 0-44.664-11.758-55.113-28.906 12.82 8.9023 32.578 14.617 55.113 14.617zm70.547-39.602c0-1.0625-0.16406-2.1211-0.24609-3.1836 23.762 17.309 47.684 34.211 71.934 50.543 1.7148 1.1445 3.5117 2.1211 5.3906 2.9414-16.984 6.6133-35.844 10.125-55.113 10.125-18.207 0-36.09-3.2656-52.422-9.2266 18.293-11.273 30.457-30.051 30.457-51.199zm21.883 110.31c-103.45 0-187.64-65.484-187.64-146.07 0-61.566 50.625-116.84 124.27-137.42-0.16406 0.24609-0.24609 0.41016-0.41016 0.65234-4.6523 8.1641-5.4688 17.965-2.6953 27.027-26.211-4.2461-45.645 4.5742-58.055 26.457-7.1836 12.656-5.1445 28.824 4.4102 40.008-7.9219 13.719-12.168 28.25-12.168 43.355 0 0.98047 0.082031 1.8789 0.082031 2.8594-18.699 7.0234-30.781 19.023-30.781 32.906 0 34.293 31.68 62.219 70.547 62.219 10.695 0 20.82-2.2031 29.965-5.9609 19.105 8.1641 40.664 12.492 62.547 12.492 24.332 0 48.012-5.3086 68.668-15.188 0.41016 0 0.89844 0.082031 1.3047 0.082031 0.65234 0 1.2266 0 1.8789-0.082031 21.148-1.1445 35.602-9.6367 43.438-25.148 0.082031-0.16406 0.16406-0.24609 0.24609-0.41016 2.8594-5.7969 4.8164-12.492 5.8789-20.168 0.41016-3.0195 0.32812-6.043-0.16406-9.0625 3.1836 0.89844 6.4492 1.3867 9.7969 1.3867h1.5508c21.066-1.1445 35.52-9.6367 43.355-25.066 0.16406-0.16406 0.24609-0.41016 0.32812-0.57031 2.7773-5.7148 4.8164-12.41 5.7969-20.004 1.7148-12.984-4.4922-26.375-15.922-34.051-45.645-30.293-89.57-63.77-130.89-99.535 87.777 12.902 152.36 72.75 152.36 143.46-0.074219 80.27-84.258 145.84-187.71 145.84z"/>
  <path d="m511.05 401.31c0.48828 0.16406 0.89844 0.24609 1.3867 0.24609 1.7148 0 3.3477-1.0625 3.918-2.7773 0.73438-2.1211-0.32812-4.5742-2.5312-5.3086-7.0234-2.5312-12.492-8.8984-13.879-16.332-1.4688-7.7578 2.043-16.574 7.8398-19.598 4.2461-2.2031 9.6367-1.6328 14.371-1.2266 2.2031 0.24609 4.3281-1.4688 4.5742-3.7578 0.24609-2.2852-1.4688-4.3281-3.7578-4.4922-5.6328-0.57031-12.574-1.2266-18.941 2.1211-9.1445 4.7344-14.371 16.984-12.168 28.496 1.875 10.219 9.4688 19.117 19.188 22.629z"/>
  <path d="m447.04 410.95c4.2461-2.2031 9.5547-1.6328 14.371-1.2266 2.1211 0.24609 4.3281-1.4688 4.4922-3.7578 0.24609-2.2852-1.4688-4.3281-3.7578-4.4922-5.6328-0.57031-12.574-1.2266-18.941 2.1211-9.1445 4.7344-14.371 16.984-12.168 28.496 1.9609 10.289 9.5547 19.188 19.27 22.617 0.48828 0.16406 0.89844 0.24609 1.3867 0.24609 1.7148 0 3.3477-1.0625 3.918-2.7773 0.73438-2.1211-0.32812-4.5742-2.5312-5.3086-7.0234-2.5312-12.492-8.8984-13.879-16.332-1.4688-7.8281 2.043-16.566 7.8398-19.586z"/>
  <path d="m283.57 441.65c25.395 0 45.234-10.941 45.234-24.902 0-13.961-19.922-24.902-45.234-24.902-25.395 0-45.234 10.941-45.234 24.902 0 13.961 19.844 24.902 45.234 24.902zm0-41.559c21.801 0 36.988 8.7383 36.988 16.656 0 7.9219-15.188 16.656-36.988 16.656-21.801 0-36.988-8.7383-36.988-16.656 0-7.9219 15.188-16.656 36.988-16.656z"/>
 </g>
</svg>
