<?xml version="1.0" encoding="UTF-8"?>
<svg width="752pt" height="752pt" version="1.1" viewBox="0 0 752 752" xmlns="http://www.w3.org/2000/svg">
 <path d="m365.07 249.34c-114.55 0-207.79 58.77-207.79 131 0 72.23 93.234 131 207.79 131 114.55 0 207.79-58.77 207.79-131 0-72.23-93.188-131-207.79-131zm0 258.02c-112.39 0-203.77-56.961-203.77-127.02 0-70.059 91.426-127.02 203.77-127.02s203.77 56.961 203.77 127.02-91.426 127.02-203.77 127.02zm0-250.03c-110.18 0-199.75 55.199-199.75 123.05s89.621 123.05 199.75 123.05c110.13 0 199.75-55.199 199.75-123.05s-89.621-123.05-199.75-123.05zm0 242.07c-107.96 0-195.77-53.395-195.77-119.03 0-65.629 87.812-119.11 195.77-119.11 107.96 0 195.77 53.395 195.77 119.07 0 65.68-87.812 119.03-195.77 119.03zm153.54-121.06c-0.36328-1.8516-0.54297-3.5234-0.8125-5.5117-0.26953-2.168-0.54297-4.7422-1.1289-8.1758-0.8125-4.6992-1.7148-5.918-2.8906-7.1367-0.36328-0.36328-0.63281-0.63281-0.90234-1.2188-1.4453-2.8477-3.3867-5.9609-7.8164-9.7578 0.40625-1.8086 0.17969-3.8398-0.85938-5.918-1.5352-3.0273-4.2461-4.9688-7.3164-5.2383-0.67578-0.046875-1.3555 0-1.9883 0.089844 0-0.13672 0.089844-0.22656 0.089844-0.36328 0.31641-2.9375-0.72266-5.6016-1.3086-6.9102-0.72266-1.5352-1.6719-2.9805-2.9375-4.5625-2.8906-3.4766-6.0547-6.0547-9.125-8.2227 1.1758-2.168 0.58594-5.4219-0.8125-8.1758-2.0781-4.0664-4.293-3.793-5.1953-3.5234-0.40625 0.13672-1.0391 0.26953-1.8516 0.40625-3.6602 0.72266-6.5039 1.4922-7.6328 3.3867-0.36328-0.089844-0.67578-0.17969-1.0391-0.31641 0.17969-0.17969 0.40625-0.31641 0.58594-0.49609 1.5352-1.625 2.2578-3.793 2.168-6.3242-0.089844-2.3477-1.582-4.3359-4.1094-5.4648-2.3945-1.0859-5.918-1.3555-7.9492 0.22656-0.90234 0.72266-1.5352 1.8984-1.8984 3.2969-4.0664-0.046875-8.4023 1.8516-9.3516 4.4727-0.22656 0.63281-0.36328 1.8516 0.63281 3.3438-0.8125 0-1.625 0-2.4375 0.046875-0.54297 0-1.0391 0.26953-1.3984 0.63281-0.36328 0.40625-0.54297 0.90234-0.54297 1.4453l0.31641 8.2227c0 1.0859 0.94922 1.8984 1.9883 1.8984h1.0859s-0.22656 0.45312-0.26953 0.72266c-0.046875 0.40625 0.046875 0.8125 0.26953 1.1758-0.40625-0.40625-0.76953-0.8125-1.2188-1.1758-2.3477-1.8984-5.2383-3.0703-8.582-3.6602 0.58594-0.22656 1.1289-0.49609 1.5352-0.76953 2.6641-1.7617 3.8398-5.0156 4.0664-7.2734 0.22656-2.0781-1.3984-4.1562-4.1094-5.2852-2.2578-0.94922-5.4648-1.1289-8.0859 0.67578-0.089844-0.13672-0.13672-0.31641-0.17969-0.45312-1.8984-4.0195-4.7422-7.8164-7.9961-10.75-3.0273-2.8477-6.4609-4.9688-9.4414-6.8672l-0.58594-0.36328c-2.9375-1.8516-6.5039-3.9766-10.523-5.8711-4.1562-1.9414-8.3555-3.207-12.469-3.75-1.9414-0.26953-4.0664-0.40625-6.5508-0.45312-2.5312 0.089844-4.6992 0.31641-6.6836 0.67578-8.7188 1.7148-16.398 5.0156-22.723 7.9961-0.13672 0.046875-0.22656 0.17969-0.31641 0.26953-0.31641-0.26953-0.58594-0.54297-0.90234-0.8125-1.1758-0.94922-2.3047-1.8086-3.4766-2.6211-2.3477-1.625-4.6523-3.0273-7.1367-4.3359l-0.63281-0.31641c-2.2578-1.1758-4.6094-2.3477-8.3125-3.207l-0.45312-0.089843c-0.94922-0.17969-2.2148-0.36328-4.6523 0.36328-0.72266 0.26953-1.625 0.72266-2.5742 1.6719-0.99219 0.94922-1.4922 2.125-1.8086 3.1602-0.31641 1.3555-0.22656 3.1172 0.17969 4.3828 0.26953 0.72266 0.63281 1.4453 1.1758 2.3477l0.90234 1.1758c0.49609 0.63281 0.94922 1.0391 1.3984 1.4922l0.63281 0.63281c2.0312 1.7148 4.0664 3.1172 6.0977 4.3828-0.99219-0.49609-2.125-0.76953-3.4336-0.76953-0.85938 0-1.582 0.17969-2.2148 0.49609-0.22656-0.26953-0.45312-0.49609-0.72266-0.72266-2.3945-1.9883-6.957-2.8477-11.34-2.0312-1.9883 0.36328-3.7031 1.3555-5.0156 2.8477-0.63281-0.58594-1.3555-1.1289-2.2578-1.4922-4.0664-1.7617-10.164-1.1289-13.055 1.4453-2.125 1.8516-4.1992 4.293-4.3828 7.7227-1.9883-0.089844-4.7891 0.31641-7.0469 2.8008-1.9414 2.125-2.9375 4.6992-2.8008 7.3633 0.13672 1.9883 0.90234 3.75 2.2148 5.1953-1.3086 0.22656-2.6211 0.40625-3.9766 0.63281 0.13672-0.089844 0.26953-0.17969 0.36328-0.31641 0.31641-0.45313 0.40625-0.99219 0.31641-1.5352l-1.7617-8.0391c-0.13672-0.49609-0.45312-0.99219-0.90234-1.2656-0.45312-0.26953-0.99219-0.36328-1.5352-0.26953-0.72266 0.17969-1.3086 0.40625-1.9414 0.63281-0.17969-0.13672-0.31641-0.31641-0.54297-0.40625-2.2578-1.0391-5.918-0.63281-8.6719 0.94922-0.90234 0.54297-1.6719 1.2188-2.3047 1.9414-0.22656-0.13672-0.40625-0.26953-0.67578-0.40625-3.5703-1.3086-12.422 0.089844-16.125 4.1992-3.2969 3.7031-1.3086 6.3242-0.089844 7.9062 0.8125 1.0391 1.3086 1.7617 1.2188 2.7109-0.089844 1.2188 0.36328 2.3945 1.2188 3.3438 2.4375 2.7109 8.0859 3.1602 13.641 3.4336h0.046875c0.17969 2.0312 0.58594 3.8867 1.3984 5.6016 1.0859 2.5742 3.3438 5.0586 5.918 6.5039 1.9883 1.0859 3.75 1.7617 5.1484 2.3047 0.31641 0.13672 0.58594 0.22656 0.85938 0.31641-1.0391 0.26953-2.125 0.67578-3.2539 1.2656-2.9375 1.582-6.3711 4.5625-6.3711 7.8594 0 1.8086 0.54297 3.2539 1.2188 4.3828l-0.046875-0.046875c-1.3086-1.4453-2.6641-2.9375-4.6094-2.8477-0.40625 0-0.72266 0.13672-1.0859 0.26953 0.089844-0.089844 0.17969-0.13672 0.31641-0.22656 2.9805-2.4844 4.0664-6.4141 4.7891-9.0352l-1.8516-0.85938 1.9414 0.54297c0.63281-2.3047-0.45312-4.4727-2.9375-5.7383-1.2188-0.63281-2.7109-0.99219-4.2461-1.0859 0.54297-1.8086 0.90234-4.0195 0.22656-5.7812-0.49609-1.2188-1.3984-2.0781-2.6641-2.4844-2.9375-0.99219-4.9688 0.089844-6.7773 1.0391-1.3086 0.67578-2.6211 1.3555-4.5625 1.5352-3.0273 0.22656-4.6992 1.625-5.6914 3.3438-0.94922-0.54297-2.0781-0.94922-3.3867-1.0391-3.793-0.31641-8.0391 1.582-9.2148 6.5039-0.94922 4.0195 0.31641 6.2773 1.5352 7.5 1.582 1.582 3.75 2.0312 5.375 2.0312 0.54297 0 1.0391-0.046875 1.3984-0.13672 1.2656-0.13672 4.1992-0.49609 5.8281-3.75 1.582 1.1758 3.9297 2.0781 6.3711 2.3047-0.22656 0.94922-0.22656 1.7617-0.046875 2.4844-0.36328-0.089843-0.67578-0.13672-1.0391-0.17969-4.6094-0.36328-6.4609 2.6641-7.6328 4.6094-0.17969 0.31641-0.40625 0.67578-0.63281 0.99219-0.76953 1.1289-0.85938 2.5742-0.26953 4.0664 0.90234 2.3477 3.3867 4.5625 6.1445 5.7812-0.046876 1.0391 0 2.0781 0.089843 3.0273-1.0391 0-2.125 0.13672-3.4336 0.49609-2.2148 0.63281-4.5156 1.6719-6.2773 3.0703 0.72266-0.8125 1.3555-1.7148 1.8086-2.5742 2.4375-4.5625-0.58594-6.2344-2.3477-7.1836-0.17969-0.089843-0.36328-0.22656-0.54297-0.31641 0-0.046875 0.046876-0.089844 0.089844-0.17969 1.4922-3.9766-2.3477-9.3945-3.1602-10.434-0.046875-0.046875-0.089844-0.13672-0.17969-0.17969-1.582-1.625-5.332-1.4453-8.0859-0.40625-3.0273 1.1289-4.8789 3.2539-5.0156 5.8281-0.13672 2.8477 1.0391 5.8281 2.9805 7.8594-0.17969 0-0.36328-0.089844-0.58594-0.089844-3.1172-0.13672-6.6406 2.3047-8.3125 5.5547-2.4375 4.832 2.9375 10.66 6.1445 14.184l1.7617-1.0391-1.4922 1.3555c0.26953 0.31641 0.63281 0.49609 0.99219 0.58594 1.0859 0.26953 2.9805 0.63281 4.832 0.63281 1.5352 0 3.0703-0.26953 4.1094-1.0859 0.85937-0.63281 1.3086-1.582 1.3086-2.6641 0-1.582-0.54297-3.6602-1.3555-5.918h0.36328 0.13672c1.5352-0.046875 3.2539-0.94922 4.7422-2.2148-0.72266 0.90234-1.2188 1.9414-1.3086 2.9805-0.26953 3.8398 1.3086 6.6836 4.2461 7.9961-0.54297 0.94922-1.0391 1.9883-1.3555 3.3438-0.54297 2.7539 0.17969 5.4648 1.8984 7.4531 0.36328 0.40625 0.8125 0.85938 1.3555 1.2656-0.99219 0.54297-1.9414 1.1758-2.5312 1.9883-0.85938 1.1289-1.1758 2.4375-0.90234 3.75 0.40625 2.168 1.625 4.2461 3.2969 5.7383l-3.75-1.1758c-0.49609-2.5742-2.0781-5.5117-6.1875-6.8203-0.49609-0.13672-0.94922-0.17969-1.3984-0.26953 0.45312-2.168-0.089843-5.6914-2.3945-6.7773-1.4922-0.72266-3.1172-0.76953-4.6094-0.36328 1.0391-2.7109 0-6.3711-0.26953-7.1367-0.26953-0.76953-0.94922-1.3086-1.7617-1.3984-3.2539-0.26953-7.7227 1.3086-9.2617 4.2461-0.94922 1.7617-0.67578 3.75 0.72266 5.4648 1.582 1.9883 3.2969 2.9805 5.1055 2.9805h0.17969c0.49609 0 1.1289-0.17969 1.8086-0.45312-0.089843 0.54297-0.13672 1.1289 0 1.6719 0.49609 2.3477 2.3477 3.75 4.4727 4.3828-1.5352 2.5312-1.4922 6.2344 0.22656 9.0781 0.54297 0.90234 1.2656 1.582 2.0781 2.0781-1.1289 1.3086-1.7148 2.9375-1.4922 4.6523 0.40625 2.9375 1.8984 5.2852 4.0195 6.2344 0.31641 0.13672 0.63281 0.22656 0.94922 0.31641-0.13672 1.7148 0.26953 3.3438 0.54297 4.4727 0.13672 0.49609 0.26953 0.94922 0.31641 1.3086 0.089844 0.76953 0.63281 2.6641 3.6133 3.3438 0.63281 0.13672 1.3086 0.22656 1.9883 0.22656 1.5352 0 3.1172-0.36328 4.3828-1.0859 0.13672 1.7617 0.67578 3.6602 1.7148 5.7812 0.40625 0.99219 1.1758 2.168 2.5742 3.793l0.54297 0.49609c0.72266 0.63281 1.4453 1.3086 2.125 1.6719 3.4766 2.3047 6.7305 3.4336 9.8477 4.5156 2.9375 0.99219 5.8711 1.8086 8.7188 2.6211l1.4453 0.40625c2.6211 0.76953 5.1055 1.4453 7.3633 2.2578 1.2188 0.40625 2.0781 0.85938 2.8008 1.3086 1.0391 0.67578 1.8984 1.4453 3.0703 2.4375 1.7617 1.5352 3.5234 2.7109 5.1484 3.4336 1.0859 0.54297 2.3047 0.94922 3.6133 1.3086 0.22656 0.089844 0.45313 0.13672 0.67578 0.17969 0.54297 0.13672 0.99219 0.26953 1.582 0.40625 3.75 0.72266 7.2266 0.85938 10.207 0.94922h0.046875c0.76953 0 1.3984-0.40625 1.7148-1.0391 3.1172-0.31641 11.383-1.5352 15.992-5.1484 0.089844 1.1289 0.22656 2.3945 0.67578 3.9297 0.22656 0.58594 0.40625 1.1289 0.76953 1.8984 0.22656 0.36328 1.1289 1.4922 1.8984 2.4375 0.36328 0.40625 0.63281 0.72266 0.76953 0.94922-0.17969 0.85938-0.26953 1.7148-0.22656 2.6211 0.17969 2.8906 1.9414 5.6445 4.7422 7.2266 2.7109 1.6719 6.0547 2.2148 8.2656 2.3945 0.67578 0.089844 1.2188 0.089844 1.7617 0.089844h0.36328 1.3555c1.0391 0 2.0312-0.17969 3.0273-0.31641 3.2969-0.49609 6.7305-1.4453 10.707-3.0273 1.0859-0.40625 2.125-0.90234 3.207-1.3555 0.22656 0.22656 0.49609 0.40625 0.8125 0.49609l1.3555 0.40625c4.1562 1.3555 11.34 3.6602 19.379 3.6602 4.1562 0 8.5391-0.63281 12.875-2.2578 0.13672-0.046875 0.26953-0.17969 0.40625-0.22656 2.5312 0.49609 5.0156 0.76953 7.4062 0.76953h2.9375c2.7539 0 5.5117 0 8.3555-0.13672 3.3438-0.17969 7.8164-0.54297 12.332-1.8984 0.26953-0.089844 0.54297-0.17969 0.76953-0.26953 3.6133 1.4453 9.3516 2.8008 14.23 2.8008 2.3047 0 4.4258-0.31641 5.9609-1.0391 1.8516-0.85938 2.5742-2.168 2.8477-3.1172 0.58594-1.9414 0.63281-4.1562 0.72266-6.3242 0.046875-2.2578 0.17969-4.6992 0.94922-5.7812 0.54297 0 1.1289 0.046875 1.7148 0.13672 4.4258 0.40625 7.5898-0.63281 9.6211-3.1602 0.67578-0.85938 1.1289-1.7617 1.4922-2.7109 0.31641 0.22656 0.72266 0.36328 1.1289 0.36328h0.22656l2.2578-0.26953c5.9609-0.67578 12.105-1.3984 18.699-4.0664 2.125-0.85938 4.1992-2.168 6.1445-3.9297 2.3047-2.3477 3.6133-5.5117 3.6602-8.6719-0.089844-1.7617-0.40625-3.4766-0.94922-5.1055 1.7617-0.17969 3.5234-0.31641 5.2852-0.58594 3.6133-0.54297 7.2734-1.3984 10.57-2.5312l1.3086-0.45312c2.8477-0.99219 5.8281-2.0312 9.125-4.2461 2.2148-1.4453 4.6992-4.3828 5.1953-7.6328 0.63281-3.3438-0.17969-5.9609-0.76953-7.9961-0.54297-1.4922-1.2188-3.0273-2.0312-4.6094 1.2656-0.63281 2.3477-1.7148 3.0703-3.2539 1.7617-3.75 1.625-10.027-0.17969-13.324 0.67578-0.22656 1.3984-0.54297 2.0781-1.0859 2.3945-1.7617 1.3555-4.9688 0.31641-8.0391-0.36328-1.1758-0.8125-2.3945-1.0391-3.5703zm-3.9297 0.76953c0.26953 1.3555 0.72266 2.7109 1.1289 4.0195 0.40625 1.3086 1.0859 3.2539 1.0859 3.5703-0.13672 0.13672-0.31641 0.17969-0.45312 0.26953-0.45312-1.4922-1.625-2.8008-3.207-3.5234-1.5352-0.67578-3.1602-0.67578-4.6992-0.089844-0.31641-0.67578-0.99219-1.1289-1.8086-1.1289l-2.7539 0.089844c-0.99219 0-1.8984 0.046875-2.4844 0.089843v-0.31641l-0.17969-3.8398c-0.089844-1.0391-0.17969-1.9883-0.31641-2.8906 1.4453 0.63281 2.9375 0.99219 4.4727 0.99219 0.45312 0 0.85938 0 1.3086-0.089844 2.7109-0.36328 5.0156-1.8086 6.2344-3.9766 0.26953-0.45312 0.45313-0.90234 0.58594-1.3984 0.089844 0.85938 0.22656 1.6719 0.26953 2.4375 0.22656 2.0781 0.45312 3.8867 0.85938 5.8281zm-53.527 43.23c-0.31641 0-0.8125 0-1.2656-0.99219-0.90234-2.125-0.17969-5.5117 0.40625-6.0977 0.17969-0.13672 0.67578-0.26953 1.3086-0.26953 0.72266 0 1.625 0.13672 2.4375 0.54297 0.63281 0.26953 1.7148 0.94922 1.7617 2.0312 0.046875 1.4453-0.31641 2.6211-1.0859 3.4766-0.8125 0.85938-2.0312 1.3086-3.6133 1.3555zm4.6094-10.434c-2.3945-1.0859-5.918-1.3555-7.9492 0.22656-2.3945 1.8516-2.9375 7.2266-1.7617 10.391 0.54297 1.4922 1.4922 2.5742 2.6641 3.1602-3.1602 0.49609-6.3711 1.2656-9.668 2.4844-0.26953 0.089844-0.49609 0.22656-0.67578 0.40625-0.26953-0.49609-0.49609-1.0391-0.76953-1.5352-0.67578-1.2188-1.4922-2.6211-2.4844-4.0664 0.85937 0.17969 1.6719 0.26953 2.4375 0.26953h0.8125c2.6641-0.26953 4.4727-1.7617 5.0156-4.0664 0.58594-2.5742 0.26953-4.9688-0.99219-6.8672h0.31641c2.0312-0.22656 5.375-0.67578 8.2227-3.8867 0.63281-0.72266 1.2188-1.7148 1.625-2.8906 0.63281 0.76953 1.2656 1.5352 1.9414 2.3047 3.0703 3.7031 6.2773 7.543 10.117 11.203-0.17969 0.17969-0.36328 0.31641-0.54297 0.49609-1.4922 1.582-2.8906 3.2969-4.1992 5.0156l-1.7617 0.13672c-0.58594 0.046876-1.2188 0.089844-1.8516 0.17969 0.49609-0.31641 0.90234-0.67578 1.3086-1.0859 1.5352-1.625 2.2578-3.793 2.168-6.3711-0.089844-2.3477-1.582-4.3359-4.1094-5.4648zm-22.855 38.938h-1.3086c-0.40625-0.089843-0.8125-0.089843-1.1758-0.046874-1.3555 0-2.7109 0.22656-3.8398 0.40625-0.26953 0.046874-0.58594 0.17969-0.85938 0.26953 1.0859-1.3555 2.125-2.7539 3.1602-4.3359 0.31641-0.45312 0.40625-0.99219 0.26953-1.4922 0-0.17969-0.13672-0.31641-0.22656-0.45312 0.99219 0 1.8984 0 2.7539 0.046875 0.58594 2.0781 0.99219 4.1094 1.1758 5.6445zm-103.08 0.089844c-0.17969 0.22656-0.26953 0.49609-0.36328 0.76953-1.1289 0-2.2578 0.046874-3.3438 0.26953-2.7109 0.54297-4.7891 1.625-6.3711 2.5312-1.8516 1.0859-3.2969 2.168-4.5156 3.0703v-0.40625-1.0391c0-0.99219 0-2.0781-0.089844-3.2539-0.046875-0.94922-0.22656-1.9883-0.45312-2.9375-0.26953-1.1289-0.72266-2.3047-1.5352-3.6602-0.046875-0.089844-0.13672-0.17969-0.17969-0.26953 0.17969-0.13672 0.31641-0.31641 0.40625-0.54297 0.90234-1.7617 3.0703-3.8867 6.3242-6.1875 1.4922-1.0391 3.2539-2.125 5.2383-3.2539 0 0.36328 0 0.72266 0.13672 1.0391 0.49609 1.0391 0.94922 2.125 1.3984 3.2969 0.36328 0.85937 0.72266 1.7148 1.1289 2.6641 0.49609 1.1289 1.2188 2.6211 2.3945 4.1562 0.40625 0.54297 0.90234 1.0391 1.4453 1.5352l-1.6719 2.168zm-46.391 10.301h-0.13672c0-0.046876 0-0.089844-0.089844-0.13672-0.54297-0.63281-1.3555-2.2148-2.2578-4.1992 0.90234 0.089844 1.8086 0.13672 2.7109 0.17969zm-29-19.922-1.3555-0.40625c-2.9375-0.8125-5.7812-1.625-8.5391-2.5742-3.207-1.0859-5.4648-2.0781-6.9102-3.0703-0.046875 0-0.36328-0.26953-0.45312-0.31641-0.089843-0.089844-0.17969-0.17969-0.26953-0.26953-0.046875-0.089844-0.13672-0.17969-0.17969-0.22656 0-0.13672 0-0.22656 0.046876-0.26953l2.9805-2.8008c5.9609 3.0273 12.016 6.1875 17.527 9.5312-0.22656 0.31641-0.40625 0.67578-0.58594 1.0391-0.76953-0.22656-1.5352-0.45312-2.2578-0.67578zm-24.98-30.582h0.49609c1.4453-0.089843 2.7539-0.49609 3.8398-1.0859 0 1.3984 0.089844 2.8008 0.40625 4.293 0.089844 0.40625 0.22656 0.8125 0.36328 1.2188l-4.832-2.3477s0.046876-0.17969 0.089844-0.26953c0.22656-0.63281 0-1.3086-0.36328-1.8086zm72.906-61.297c0.8125-3.0273 5.1953-9.4414 7.3164-10.707 0.49609 3.4336 0.94922 6.957 0.94922 9.6211 0 1.0859 0.8125 1.9414 1.8984 1.9883l8.3125 0.45312h0.089843c0.49609 0 0.99219-0.17969 1.3555-0.54297 0.40625-0.36328 0.63281-0.85938 0.63281-1.3984 0.089844-2.8008-0.17969-5.0586-0.45312-7.2266l-1.0859-8.4023c-0.31641-2.3477-0.58594-4.6992-0.76953-6.957v-0.58594c-0.089844-0.90234-0.13672-1.8086-0.13672-2.6641v-0.40625l4.832 1.9414c2.4375 0.72266 4.8789 0.76953 7.2734 0 2.125-0.8125 4.0195-2.3945 5.5117-4.5625 1.2656-1.9414 1.7617-3.1602 2.3945-4.832 0.49609-1.3984 0.90234-2.8008 1.2188-4.3359 0.13672-0.49609 0-1.0391-0.26953-1.4922-0.26953-0.45312-0.76953-0.76953-1.2656-0.85938l-4.4258-0.90234c0.40625-0.17969 0.85938-0.40625 1.2188-0.54297 0.72266-0.26953 1.0859-0.45312 1.2188-0.49609 0.22656 0.046875 1.2188 0.49609 2.0781 1.0859 1.8984 1.3086 4.0195 3.207 6.0547 5.4648 0.22656 0.22656 0.45312 0.36328 0.72266 0.49609v0.13672l3.3867 7.543c0.45312 0.99219 1.582 1.4453 2.5742 1.0391 2.2578-0.94922 6.0078-1.625 9.668-2.2148 0.54297-0.089843 1.1289-0.17969 1.6719-0.26953-1.2188 1.1289-2.3047 2.3945-3.1172 3.8398-0.63281 1.1289-1.0391 2.3047-1.2656 3.4336-1.7617-0.99219-3.6133-1.3086-5.4648-0.90234-2.8008 0.63281-5.0586 2.8477-6.957 5.2852l-2.0312-7.9062c-0.13672-0.54297-0.49609-0.99219-0.94922-1.2656-0.49609-0.26953-1.0391-0.31641-1.582-0.17969-3.75 1.1289-5.6016 3.0703-7.2734 4.7422 0 0-0.31641 0.31641-0.31641 0.36328-1.4453 1.582-2.7109 3.3438-4.1094 5.7383-2.0781 3.6602-3.793 7.5-5.1484 11.699-0.49609 1.4922-0.85938 2.9375-1.2188 4.3359-0.54297 2.125-1.0859 4.1094-1.8086 5.1953l-0.54297 0.76953c-0.67578 0.17969-2.0312 0.40625-4.4258 0.49609-3.7031 0.089844-7.6328-0.046875-11.562-0.31641-2.3047-1.8984-4.4727-4.5625-4.1992-5.6445zm-1.1289-8.7617c-1.4453-0.94922-3.2969-3.2969-4.0195-7.1367-0.089844-0.54297-0.089844-1.1758 0.8125-1.8984 2.6211-2.125 8.9883-2.3945 10.254-1.9414 0.089844 0.046875 0.22656 0.089844 0.36328 0.089844 0.17969 1.625 0.31641 3.2969 0.54297 4.8789-2.3945 0.72266-4.832 3.4766-6.8203 6.3711-0.26953 0-0.63281-0.089844-1.1289-0.40625zm6.9102-18.746v1.1758c0 0.90234 0.046875 1.7617 0.089844 2.6211-3.2969-0.45312-8.8555 0.22656-12.062 2.3477-0.67578-0.8125-1.1758-1.8984-1.1289-2.8477 0-0.36328 0.089844-1.3984 1.9414-2.2578 0.13672-0.046875 0.22656-0.13672 0.31641-0.22656 3.75-0.45312 7.4531-0.76953 10.797-0.8125zm-21.816-15.992c2.9805-1.0391 6.2344-1.8086 9.9375-2.3047 6.9102-0.85938 13.598-0.8125 19.785-0.63281l4.7891 0.13672c1.7148 0 3.0703-0.089844 4.3359-0.36328 2.0312-0.36328 3.8867-1.2188 6.0078-2.2148 0.8125-0.40625 1.7148-0.8125 2.6211-1.2188l1.3086-0.49609s0.26953-0.089844 0.45312-0.13672c3.1602 1.2188 6.1875 2.168 9.168 2.8906 0.13672 0 0.31641 0.046876 0.45312 0.046876 0.22656 0 0.45312-0.089844 0.67578-0.17969 1.8086 1.3086 3.4766 2.7539 5.332 4.6523l-3.207 2.8477c-1.4922-1.4922-3.3438-3.2539-5.375-4.6094-1.1289-0.8125-2.7539-1.582-3.4766-1.7148-1.1289-0.31641-1.8516 0-3.6133 0.67578-0.67578 0.26953-1.4453 0.63281-2.2578 1.0391-2.125 0.99219-4.4727 2.125-7.1367 2.6211-1.5352 0.31641-3.3438 0.45312-5.2383 0.45312l-4.9219-0.13672c-5.7383-0.17969-12.422-0.22656-19.062 0.58594-3.2969 0.45313-6.3242 1.1289-8.9453 2.0312-1.7148 0.58594-3.3438 1.3984-4.6523 2.3945l-1.6719 0.26953-2.8008-2.0781c1.8984-1.8984 4.3828-3.3867 7.5898-4.5156zm116.5 24.617c0.49609 0.99219 1.7148 1.3555 2.6641 0.90234 4.1992-2.0781 7.9062-3.2969 11.34-3.8867 3.4766-0.58594 6.9102-0.17969 8.3555 0.99219 0.63281 0.54297 0.99219 0.99219 1.4922 2.7109 0.089844 0.22656 0.089844 0.40625 0.13672 0.58594l0.13672 0.45312c-0.26953 0.26953-1.1289 1.1289-1.8984 1.8086-0.90234 0.85938-1.8516 1.8086-2.7539 2.7539-1.625 1.7617-3.2539 3.793-4.7422 6.0078-6.2344-2.8008-12.152-4.5156-17.797-5.2383-0.26953-0.22656-0.58594-0.45313-0.99219-0.49609-1.4453-0.22656-2.9375-1.4922-3.9297-3.207-1.2188-2.125-1.3984-4.6094-0.72266-6.9102 1.8516-0.67578 3.793-1.4453 5.7383-2.3477l2.9375 5.7812zm49.645 68.707c-0.36328-0.94922-0.8125-1.7148-1.1758-2.3477-2.6211-3.6133-5.332-5.4219-7.9961-7.1367l-0.76953-0.49609c-0.8125-0.49609-1.2656-0.76953-2.5742-1.4453-0.99219-0.45312-1.625-0.63281-2.168-0.76953-0.17969-0.046874-0.40625-0.13672-0.67578-0.22656-3.1602-1.8516-6.3242-3.6602-9.5781-5.1055-4.0195-1.7617-7.5898-2.6211-10.977-2.6211-0.49609 0-0.99219 0-1.4922 0.046874-3.9766 0.26953-8.1328 1.7148-12.875 3.3438l-4.6992 1.7148h-0.089844l-8.2656 3.0273c-2.168 0.76953-4.4258 1.5352-6.7305 2.2148-1.1289 0.31641-2.3477 0.63281-3.4336 0.85938l-0.85938 0.13672c-0.49609 0.089843-0.99219 0.17969-1.5352 0.17969l0.94922-4.3828s0.40625-0.089843 0.58594-0.089843c0.99219-0.22656 2.0781-0.45312 3.1602-0.76953 2.125-0.63281 4.293-1.3555 6.4609-2.125l13.008-4.7891 1.3984-0.49609c3.9297-1.3555 7.9492-2.7539 12.602-3.1172 5.6016-0.40625 10.977 1.3555 14.453 2.9375 4.293 1.8984 8.1758 4.1992 11.926 6.4141l0.54297 0.31641c3.75 2.2148 7.543 5.1953 11.246 8.9453 3.0273 3.0273 5.7812 6.3242 8.4023 9.5312 2.8477 3.4336 5.5547 6.7305 8.5391 9.5781l-2.8008 3.207c-3.5234-3.3867-6.5039-6.957-9.3945-10.48-1.7617-2.125-3.4766-4.1562-5.2383-6.0977zm-3.3438 3.0703c0.17969 1.1289-0.45312 2.7109-1.1289 3.4766-1.8086 2.0781-3.8398 2.3047-5.5117 2.5312-3.9297 0.22656-7.0938-0.67578-9.8945-1.7148-2.4375-0.90234-4.6992-2.168-6.8203-3.6602l2.7539-3.2969c1.7617 1.2188 3.6602 2.2148 5.6016 2.9375 2.5312 0.99219 5.1055 1.582 7.1836 1.4922 0.54297 0.63281 1.4453 0.90234 2.2578 0.63281 0.76953-0.26953 1.2188-1.0391 1.2656-1.8086 0.40625-0.58594 0.49609-1.3984 0.13672-2.0312-0.40625-0.72266-1.2656-1.1289-1.9883-1.0391-1.6719-1.582-3.9766-3.0273-4.7891-3.5703l-1.4922-0.85938c-0.26953-0.17969-0.58594-0.26953-1.3086-0.49609l-0.8125-0.26953c-1.3984-0.40625-2.8008-0.8125-4.2461-1.1289-2.9805-0.67578-5.8711-1.0391-8.582-1.1289-5.332-0.13672-9.0352 1.0391-13.234 3.2539l-3.1602-4.1562c5.0156-2.3477 10.797-3.5703 16.531-3.3438 2.9805 0.089844 6.1445 0.49609 9.4414 1.2188 1.4922 0.31641 2.9375 0.72266 4.293 1.1289 0.63281 0.36328 1.2656 0.72266 1.8984 1.1289 3.207 1.8984 6.3711 4.3828 9.6211 7.6797 0.63281 0.63281 1.2188 1.3086 1.8086 1.9414 0.089844 0.36328 0.22656 0.67578 0.26953 1.0859zm-16.715 15.043c-0.22656-0.49609 0.089844-2.2148 1.1758-3.5703 0.40625-0.49609 1.1289-1.2188 2.0781-1.2188h0.31641c1.4453 0.31641 2.4844 0.94922 3.1172 1.8984 0.63281 0.99219 0.76953 2.3047 0.45312 3.8398-0.089844 0.31641-0.17969 0.8125-1.3086 0.94922-2.3477 0.36328-5.4219-1.1758-5.8281-1.8984zm-7.6797-19.426c-0.13672-0.45312-0.31641-0.85938-0.54297-1.3086 0.49609 0.046875 0.99219 0.046875 1.5352 0.13672l-0.99219 1.1758zm-122.23 41.918c-2.4375-0.58594-5.4648-2.2148-6.1445-6.2344 0 0-0.046875-0.31641 0.36328-0.58594 0.45312-0.26953 1.1758-0.45312 1.8984-0.45312 0.85938 0 1.8086 0.22656 2.4844 0.72266 1.0391 0.72266 2.168 2.6211 2.8477 4.3359-0.49609 0.67578-0.99219 1.3555-1.4453 2.168zm8.4453 2.125-2.3945-1.2188c0-0.72266 0-1.4922-0.22656-2.3047 2.0781-2.4844 4.4727-4.293 6.6406-5.8711 3.6602-2.5742 7.3633-4.5625 10.523-6.1445 1.8086-0.90234 3.6133-1.7617 5.4219-2.6211l3.3867-1.5352c0.63281-0.26953 1.3086-0.58594 2.3047-0.94922 1.8984-0.67578 4.0664-0.99219 6.5938-0.94922h2.0781c2.0781 0.13672 2.8008 0.17969 3.1172 0.046875 1.4453-0.17969 2.6641-1.2188 2.9805-2.3945 0.54297-1.2656 0.49609-2.7539 0.31641-4.832-0.49609-3.793-1.8086-7.8594-2.8906-10.977-1.0859-3.1602-2.3945-6.5039-4.293-10.93l-1.1758-2.7109-2.6641-6.0977s-0.13672-0.26953-0.17969-0.40625l4.1562-1.3086 3.8398 8.8555c1.2656 2.9805 2.9375 6.957 4.3828 11.156 0.089843 0.26953 0.17969 0.54297 0.26953 0.8125 0.089844 0.45312 0.26953 0.85937 0.45312 1.3086 1.0391 3.1172 1.9414 6.2773 2.3945 9.8945 0.089844 0.99219 0.17969 1.9883 0.13672 3.0703l-0.17969 1.8516c-0.17969 0.67578-0.36328 1.3086-0.58594 1.9883-0.54297 1.582-1.6719 2.8906-2.9805 3.75-0.31641 0.089843-0.54297 0.26953-0.76953 0.49609-0.54297 0.26953-1.1289 0.45313-1.7148 0.54297-2.168 0.31641-3.5703 0.26953-4.832 0.17969-0.67578 0-1.3086-0.089844-1.8516-0.046875-2.0312 0-3.7031 0.17969-5.0586 0.67578-0.54297 0.17969-1.582 0.63281-2.6641 1.1289l-2.6641 1.2188c-1.8086 0.8125-3.5703 1.6719-5.2852 2.5312-4.1562 2.125-7.3164 3.9766-9.9844 5.8281-2.9375 2.0781-5.1055 4.0664-6.5039 5.918zm-7.9492-20.734c-2.8008 1.1289-5.375 1.8516-7.8594 2.125-1.4453 0.17969-2.8477 0.22656-4.0195 0.13672-0.36328-0.046876-0.67578-0.089844-0.99219-0.089844-0.40625 0-0.67578 0-1.1758-0.17969-0.36328-0.089844-0.72266-0.17969-1.0391-0.26953-0.17969-0.046875-0.40625-0.089844-0.58594-0.13672-0.90234-0.99219-1.8984-1.9414-3.0703-2.8906-0.45312-0.36328-0.90234-0.67578-1.3984-0.99219-0.63281-1.4922-0.99219-3.1602-0.90234-4.6523 0.046876-3.2539 0.94922-5.918 1.7617-8.0859 1.1758-2.8477 2.2148-4.9219 4.0664-7.2266 0.72266-0.85938 1.9414-2.0312 3.6133-2.8477 1.3086-0.63281 2.5312-0.94922 3.6133-1.1758l0.45312-0.089843c2.9375-0.67578 4.9688-1.3086 7-2.125 1.0859-0.45312 2.2578-0.94922 3.3438-1.4922 0.94922-0.49609 1.9883-1.0859 3.0273-1.8086 4.1562-2.7109 8.2656-6.0547 11.926-8.9883 1.3984-1.0859 2.7539-2.2148 4.0664-3.2969 1.9883-1.625 4.0664-3.3438 6.3242-5.0586l2.4375 3.4766c-1.9883 1.5352-4.0664 3.207-6.0547 4.8789-1.3555 1.1289-2.7109 2.2148-4.0664 3.2969l-0.45312 0.36328c-3.75 2.9805-7.6328 6.0977-11.879 8.8984-1.0859 0.67578-2.2148 1.3984-3.5234 2.0312-1.2188 0.58594-2.3945 1.1289-3.6602 1.625-2.6211 1.0859-5.5547 1.8086-7.543 2.3047-2.8477 0.67578-3.8867 1.0391-5.4648 2.8477-0.58594 0.67578-1.1289 1.582-1.625 2.4844 0 0 0 0.046875-0.046875 0.089843-0.63281 1.1758-1.2188 2.3945-1.582 3.3867-0.94922 2.3945-1.4453 4.7422-1.4922 6.5508 0 1.2188 0.17969 1.9883 0.36328 2.4844 0.046875 0.13672 0.089844 0.26953 0.17969 0.40625 0.31641 0.54297 0.85938 1.2656 1.6719 1.582 0.76953 0.36328 1.4922 0.45312 2.7539 0.54297 1.0859 0.089843 2.2148 0 3.4336-0.089844 2.125-0.26953 4.3359-0.85938 6.7305-1.8516 2.5312-1.0391 5.0156-2.3945 7.6328-3.793 1.8516-0.99219 3.793-2.0781 5.7812-3.0273 1.3086-0.58594 2.7109-1.1758 4.1992-1.7148 1.8516-0.72266 3.7031-1.4922 5.4648-2.3047-0.54297 1.4453-0.99219 2.9805-1.3984 4.6094-1.9414 1.1289-4.0195 2.2148-6.3711 3.2539-1.625 0.76953-3.2539 1.6719-4.9688 2.5742-2.8906 1.3555-5.7383 2.8477-7.0938 3.5703-0.089844 0-0.13672 0.089844-0.17969 0.13672-0.45312 0.22656-0.90234 0.45312-1.3984 0.63281zm-34.465 24.617c-0.17969-1.4453-0.22656-2.8906-0.17969-4.293 0.046875-0.22656 0.089844-0.49609 0-0.72266 0-1.1289 0.089844-2.3047 0.17969-3.3438 0.089843-1.2656 0.13672-2.4375 0.17969-3.5703 0-2.0781-0.22656-3.1172-0.90234-4.9688-0.36328-0.99219-0.8125-2.0781-1.2656-3.207l-0.90234-2.125c-1.3086-3.4336-2.9375-7.6797-2.168-12.559 0.36328-2.2578 1.3086-4.5156 2.7109-6.2773 0.54297-0.72266 0.90234-1.1758 1.3086-1.625l2.4844-2.9375c0.40625-0.49609 0.76953-0.94922 1.1758-1.3984 0.13672-0.13672 0.22656-0.26953 0.31641-0.40625 2.2578-2.7109 4.1094-5.0586 5.7812-7.2734 2.6211-3.4766 4.5625-6.4141 6.1445-9.168 0.40625-0.13672 0.85938-0.26953 1.3555-0.45312l0.40625-0.17969c0.99219-0.40625 2.0312-0.90234 3.5234-2.5312 0.40625-0.40625 0.58594-0.99219 0.49609-1.5352-0.046875-0.54297-0.36328-1.0859-0.8125-1.3984l-1.8516-1.3086c0.046875-0.26953 0.17969-0.54297 0.22656-0.8125l4.3359-0.22656c-0.36328 3.6602-1.8086 6.4609-3.3438 9.3516l-0.40625 0.76953c-2.2148 3.9297-4.6992 7.4062-6.6406 9.9844-2.0781 2.7539-4.3828 5.6016-7.4062 9.2148l-2.4375 2.8906c-0.54297 0.63281-1.1289 1.3086-1.1758 1.4922-1.0391 1.2656-1.6719 2.7109-1.9414 4.3828-0.49609 2.5742 0.089844 5.7812 1.8984 10.301l0.8125 1.9883c0.45312 1.0859 0.94922 2.2578 1.4453 3.5703 0.72266 1.7617 1.2188 4.5156 1.1289 6.3242 0 1.4453-0.13672 2.8008-0.17969 4.0664-0.17969 2.6211-0.31641 5.0586 0 7.3633 0.26953 2.7109 2.9805 10.164 5.332 14.816l-3.4336-0.17969c-2.8008-3.5234-5.7812-10.344-6.1445-14.184zm-10.074-33.109c-1.6719-0.26953-3.2969-1.0391-4.5156-2.2148-0.94922-0.90234-1.5352-2.0312-1.5352-2.8477 0-1.1289 0.26953-1.8984 0.72266-2.3945 0.58594-0.54297 1.625-0.72266 2.4844-0.72266h0.36328c2.125 0.089844 3.1602 0.94922 3.4766 2.8477 0.089844 0.63281-0.36328 2.8906-1.0391 5.332zm21.863-42.551c-0.22656 0.089844-0.54297 0.17969-0.94922 0.26953-0.26953 0.046875-0.54297 0.17969-0.76953 0.31641-0.58594 0.17969-1.1289 0.31641-1.7148 0.49609-2.8906 0.90234-5.8711 1.8086-8.9453 2.5312l-0.90234-4.1562c2.8008-0.67578 5.5547-1.5352 8.4922-2.4375 1.9414-0.58594 3.9297-1.2188 5.9609-1.7617 0.40625 0 0.85938 0.046876 1.2656 0.089844l14.047 1.0859-0.45312 1.4922c-4.6523-0.8125-9.7109 0.31641-13.73 1.4453-0.54297 0.13672-1.0859 0.31641-1.6719 0.49609-0.22656 0-0.45312 0-0.67578 0.089843zm83.883-38.895c-0.72266-1.8984-0.54297-3.793 0.58594-5.7383 2.125-3.75 7-6.5039 9.6211-7.0469l9.3516-0.8125-2.8477 0.85938c-1.6719 0.45312-3.3867 0.85937-5.0156 1.1758-1.0859 0.17969-1.8086 1.2188-1.625 2.3047l1.4453 8.1328c0.089843 0.54297 0.40625 0.99219 0.8125 1.3086 0.36328 0.22656 0.72266 0.36328 1.1289 0.36328h0.36328c1.8984-0.31641 3.8398-0.76953 6.1875-1.4453l5.6016-1.7617c-0.22656 2.5312 0.26953 5.0586 1.5352 7.3164 0.26953 0.49609 0.63281 0.94922 0.94922 1.3984-4.1094 0.13672-8.0391 0.99219-11.746 2.3945-2.6211-5.1055-11.156-5.2852-14.953-5.1055-0.36328-1.1289-0.85938-2.2148-1.4453-3.2539zm-1.9883-27.418c1.5352 0.94922 3.5703 1.4453 6.4609 1.4453 0.31641 0 0.67578 0 0.99219-0.046874-0.046875 0.49609-0.13672 0.99219-0.13672 1.4922-3.2969 0.36328-6.0977 0.76953-8.7188 1.1758-1.582 0.22656-3.207 0.54297-4.832 0.90234 1.3555-0.31641 3.1172-1.1289 5.1055-3.207 0.45312-0.49609 0.8125-1.0859 1.1289-1.7148zm26.969 1.3086c-1.3984 0.046875-2.8477 0.13672-4.2461 0.22656l-11.383 0.94922c0.36328-5.2383 2.8008-8.1758 7.2734-8.6289 6.0078-0.63281 9.4414 1.2188 10.164 3.2969 0 0.046875 0.046875 0.089844 0.089844 0.13672-0.99219 1.1758-1.6719 2.5312-1.8984 4.0664zm-35.188 3.75s0.36328 0.046875 0.63281 0.046875c0.26953 0 0.58594-0.046875 0.94922-0.089844-0.22656 0.046875-0.49609 0.089844-0.72266 0.13672 0 0-0.40625 0.089844-0.40625 0.089844-0.26953 0.046874-0.58594 0.13672-0.85938 0.22656l0.45312-0.40625zm1.6719 3.9766c1.9414-0.40625 3.8398-0.76953 5.7812-1.0859 3.2969-0.54297 6.8672-0.99219 11.473-1.4922l12.332-0.99219c5.9609-0.36328 12.738-0.63281 17.57-0.089844 0.54297 0 0.94922 0.13672 1.3086 0.22656 0.17969 0.046876 0.40625 0.089844 0.67578 0.13672 0.17969 0 0.31641 0.046875 0.54297 0.13672 0.72266 0.26953 1.3984 0.54297 2.0312 0.8125 0.17969 0.089844 0.36328 0.089844 0.54297 0.13672 0.36328 0.90234 0.76953 1.8086 1.1289 2.7539-0.17969 0.31641-0.31641 0.58594-0.54297 0.90234-0.8125 1.0859-1.8984 2.0781-3.3867 3.1172-3.1172 2.125-8.2656 4.4727-14.906 6.8203l-7.0938 2.2148c-1.3984 0.40625-2.6641 0.67578-3.8398 0.94922l-0.72266-4.1992c1.1289-0.26953 2.2578-0.54297 3.4336-0.85937l3.793-1.1289c1.2188-0.40625 2.4844-0.90234 3.6602-1.4453 0.63281-0.26953 1.2656-0.58594 1.8516-0.94922l0.36328-0.22656c0.54297-0.31641 2.125-1.3086 1.7148-3.1602-0.13672-0.63281-0.58594-1.1758-1.1758-1.3984-1.2656-0.54297-2.4375-0.49609-3.5703-0.49609h-0.90234c-1.2656 0-2.5742 0.089844-3.8398 0.13672l-10.523 0.90234c-4.4258 0.45313-7.9961 0.90234-11.246 1.4453-3.0703 0.49609-6.1875 1.0859-8.6719 1.8086l-1.7617-3.9297c1.3086-0.40625 2.5742-0.72266 4.0195-1.0391zm95.855 42.551-0.99219-2.4375c-0.36328-0.85938-0.58594-1.7148-0.72266-2.7109-0.36328-1.3984-0.31641-2.8906 0.089844-4.4727 0.49609-1.3555 1.4453-2.4375 2.5312-2.8906 0.67578-0.26953 1.2656-0.49609 1.9883-0.54297l1.0859-0.13672c0.22656 0 0.49609 0.046875 0.72266 0.089844l0.67578 0.089844c1.4453 0.13672 2.8008 0.63281 4.2461 1.1758l0.90234 0.31641c0.76953 0.31641 1.3555 0.58594 1.9414 0.85938l-2.0312 3.75-1.2188-0.58594s-0.31641-0.13672-0.36328-0.13672c-0.54297-0.22656-1.0859-0.45312-1.3086-0.45312-0.90234-0.31641-2.2148-0.36328-3.2969 0.31641-0.76953 0.49609-1.2656 1.3086-1.3086 2.2578 0 0.67578 0 1.3086 0.17969 1.8086 0.089843 0.31641 0.17969 0.63281 0.26953 0.85938 0 0.046874 0.13672 0.40625 0.17969 0.45312l0.31641 0.67578c0.26953 0.58594 0.54297 1.2656 0.8125 1.9414 0.63281 1.625 1.3086 3.4336 2.3945 4.832 0 0 0.089844 0.046875 0.089844 0.089844v0.13672c-2.3945-1.4453-4.7891-2.7539-7.1836-3.9766 0.089844-0.40625 0.089844-0.85938-0.089844-1.3086zm20.191 7.2734c-0.90234 0.76953-3.9297 1.8516-7 1.2188-1.0859-1.625-2.8008-4.8789-2.4375-7.3164 2.0312 0.13672 7.6797 4.1094 9.4414 6.0977zm7.8164 23.488s-0.22656-0.22656-0.31641-0.31641c0.089844-0.089844 0.17969-0.13672 0.22656-0.22656 0 0.17969 0.046875 0.36328 0.089844 0.54297zm-1.7617-8.582c0.67578 1.8516-0.13672 3.9766-1.2188 5.2852-0.76953 0.90234-1.582 1.3086-2.0781 1.3086-0.63281-0.40625-1.4922-2.3047-2.3047-4.8789-0.13672-1.3555-0.31641-2.7539-0.67578-4.1992-0.13672-0.67578-0.45312-1.2656-0.67578-1.9414 3.6133 0.26953 5.9609 1.7148 6.957 4.3828zm-9.4414 7.5v0.45312c-0.046874 1.8984-0.13672 3.793-0.22656 5.6445-0.13672 3.4766-0.26953 6.8672-0.31641 10.301h-2.5312c-0.26953-0.36328-0.58594-0.67578-0.85938-1.0391-0.26953-0.36328-0.58594-0.67578-0.85938-1.0391 0.046875-2.8008 0.17969-5.6445 0.26953-8.4023 0.089844-1.8516 0.13672-3.7031 0.22656-5.5117 0.089843-2.8906 0.046874-5.918-0.58594-8.2656-0.58594-2.3945-1.8086-4.1992-4.293-6.2773-1.9883-1.625-4.6523-3.207-7.2266-4.6523-0.58594-0.31641-1.2188-0.58594-1.8086-0.94922l-0.36328-0.22656s-0.17969-0.046875-0.31641-0.089843c-1.8086-0.94922-3.5703-1.8984-5.4219-2.7539-1.9883-0.94922-3.9766-1.8516-6.0078-2.7109-0.17969-0.089844-0.40625-0.089844-0.58594-0.13672-1.6719-2.6641-3.4766-4.9688-5.4219-6.957 4.7891 1.8984 9.3945 3.8398 13.867 5.9609l0.90234 0.45312c5.2383 2.5742 10.164 5.0156 15.223 8.8984 1.625 1.2656 3.4336 3.2539 4.6094 5.6445 0.40625 2.3477 0.94922 4.7891 1.625 6.957 0.13672 1.6719 0.089844 3.2539 0.089844 4.832zm-8.2656-1.6719c-0.54297-0.90234-1.0391-1.7617-1.4453-2.6211-1.0391-2.168-1.4453-4.1562-1.4453-6.3242 1.3555 1.2188 2.0312 2.2578 2.3945 3.6602 0.36328 1.4453 0.49609 3.3867 0.49609 5.2852zm-14.32-9.3047c-0.99219-1.7617-1.9883-3.5703-2.9805-5.4219-0.63281-1.1758-1.3086-2.3945-1.9883-3.6133 0.49609 0.22656 1.0391 0.45312 1.5352 0.67578 1.3984 0.67578 2.7539 1.3984 4.1094 2.125-0.31641 1.8086-0.54297 3.9766-0.67578 6.2773zm0.54297 8.1328s0.046875 0.31641 0.089844 0.45312c-0.13672-0.089844-0.26953-0.17969-0.40625-0.26953l0.31641-0.17969zm6.957 5.8711c-0.85938-1.3984-1.582-2.6641-2.168-3.9766-1.3984-2.9375-1.7148-8.0859-0.90234-14.141l3.1602 2.0312c-0.45312 3.793 0.046875 6.957 1.6719 10.391 0.94922 2.168 2.4375 4.3359 4.0195 6.6836l0.85938 1.2656v0.40625c-0.046875 1.3086-0.089844 2.6641-0.13672 4.0195-1.2656-1.4453-2.5312-2.8477-3.8867-4.1992-0.85937-0.85938-1.7148-1.6719-2.5742-2.4375zm7.9492-35.461c-0.58594 0.13672-1.0859 0.36328-1.5352 0.72266-0.17969-0.49609-0.40625-1.0391-0.58594-1.4922l-0.26953-0.54297s0.13672 0.046875 0.17969 0.089844l2.4844 1.2188h-0.31641zm2.3047-13.957-2.3047-2.9805c1.4922-0.94922 2.3477-1.0391 2.6641-0.94922 0.13672 0.046876 0.31641 0.36328 0.45312 0.94922 0.17969 0.85938-0.22656 1.9414-0.8125 2.9375zm-4.9219-7.5c-0.13672 0.31641-0.22656 0.49609-0.36328 0.67578l-3.75-5.0156c1.3984-0.13672 3.0273 0 3.9297 0.8125 0.31641 0.26953 1.2188 1.0391 0.13672 3.5703zm-12.285 21.141c0.17969 0.67578 0.26953 1.3086 0.54297 1.9414-0.49609-0.22656-1.0391-0.45312-1.5352-0.67578 0.40625-0.36328 0.72266-0.8125 0.99219-1.2656zm-5.5547-0.8125c-1.8516-0.8125-3.75-1.582-5.6445-2.3047-1.4922-1.625-2.4844-3.5703-2.3047-4.6523 0-0.26953 0.13672-0.58594 0.63281-0.85938 1.8516-1.0859 4.3828 0.31641 5.4219 0.99219 2.9375 1.8984 4.3359 4.5156 4.2461 5.1055-0.22656 1.2188-1.6719 1.582-2.3047 1.7148zm-13.867 1.3555c2.7109 2.2148 5.1953 5.1484 7.4531 8.7188 1.8516 3.0273 3.4336 6.0078 5.0156 8.8984s3.0703 5.6914 4.7422 8.4453l-1.8086 1.1289c-1.2188-0.72266-2.4844-1.4453-3.793-2.168-1.2656-2.2148-2.3945-4.2461-3.4336-6.2773-1.3984-2.6211-2.7539-5.1055-4.293-7.6328-3.3438-5.6914-8.2227-9.8945-15.449-13.281-7.1836-3.3438-14.004-5.1484-20.148-5.332-6.5508-0.26953-12.559 1.5352-17.254 4.9688l-2.8477-3.207c5.4648-4.0664 12.875-6.3242 20.191-6.0078 6.8672 0.22656 14.047 2.0781 21.91 5.7383 4.0195 1.9414 7.0938 3.8398 9.7578 6.0547zm-37.719 38.441c2.5312 3.5703 4.9688 6.8672 7.4062 9.8945l0.72266 0.90234c1.3086 1.582 2.6641 3.1602 4.1094 4.6992l4.3359 4.6992c0.26953 0.36328 0.49609 0.72266 0.72266 1.0859 0.17969 0.26953 0.36328 0.58594 0.54297 0.85938 0.089843 0.26953 0.17969 0.58594 0.31641 0.90234v0.31641 0.13672c0 0.046875-0.089844 0.13672-0.13672 0.17969-0.17969 0.26953-0.26953 0.36328-0.63281 0.63281-1.8516 1.7148-5.5547 3.0703-8.8984 4.0664-2.8008-2.4375-8.1758-6.8203-9.8477-8.1328-1.3086-0.94922-1.9883-1.9883-2.6211-3.7031-1.0391-3.3438-1.3555-7.8594-0.99219-14.23 0-0.22656 0-0.40625-0.089844-0.63281 1.7148-0.49609 3.3867-1.0859 5.0586-1.6719zm-13.598 35.008c-0.26953 0-0.58594-0.089843-0.85938-0.13672-3.2539-0.45312-6.5039-0.90234-9.7109-1.3555-2.4844-0.31641-4.9688-0.67578-7.4531-1.0391 0.63281-0.90234 1.2188-1.8984 1.582-2.9805 0.22656-0.72266 0.49609-1.4922 0.72266-2.5312 0 0 0.13672-0.13672 0.17969-0.22656 0.49609-0.40625 3.5703-1.8516 7-1.8516 4.0195 0.046875 9.3945 1.582 10.301 2.2148 0.94922 1.0859 1.9414 2.125 3.0273 2.8906 1.2656 0.90234 2.4375 1.625 3.4766 2.2578 0.089844 0.046875 0.13672 0.089844 0.22656 0.13672-3.0273 0.90234-5.8711 1.6719-7.6328 2.0781-0.36328 0.089844-0.63281 0.26953-0.90234 0.49609zm-84.02-17.391c0.26953-0.72266 0.63281-1.4922 0.99219-2.168 2.4375-0.67578 5.4219-1.4922 8.2656-2.4844 4.4258-1.4922 8.8086-2.9805 13.281-4.4258 3.0273-0.94922 8.2656-1.8984 12.828-2.7539 0.49609-0.089844 0.99219-0.17969 1.4922-0.26953l-1.8086 3.6133s-0.36328 0.22656-0.54297 0.36328c-2.8477 0.67578-5.4648 1.4922-8.4023 2.3945l-2.2578 0.72266c-4.3828 1.3984-8.8086 2.8906-13.191 4.3828-3.8867 1.3555-7.7227 2.7109-11.609 4.0664 0.17969-1.0859 0.49609-2.2148 0.94922-3.4336zm9.4414 4.0195c-0.36328 0.13672-0.72266 0.36328-1.0391 0.49609-1.3086 0.54297-2.4844 0.90234-3.6602 1.1758 1.582-0.54297 3.1172-1.1289 4.6992-1.6719zm21.32 3.4766s-0.089844-0.36328-0.17969-0.54297c0.046875 0 0.13672-0.046874 0.22656-0.089843v0.63281zm0.40625 3.9297c0.089844 0.49609 0.13672 0.99219 0.31641 1.4922 0.089844 0.31641 0.26953 0.63281 0.40625 0.94922-0.49609 0.26953-0.99219 0.54297-1.5352 0.8125 0.45312-1.0859 0.72266-2.168 0.8125-3.2539zm4.293 0.72266s-0.089844-0.22656-0.13672-0.31641c-0.90234-3.0703-0.49609-5.9609-0.17969-7.8164 1.0391-5.0586 3.1172-9.3516 5.1953-13.324 1.0859-2.0781 2.2578-4.1562 3.4336-6.1445 0.8125-1.3555 1.582-2.7109 2.2578-3.9766l2.3477 1.0859 0.85938 1.9414c-0.63281 1.1758-1.3086 2.3047-1.9414 3.3867-1.0859 1.8984-2.168 3.75-3.1602 5.6445-2.6211 5.0156-4.0664 8.7188-4.7422 12.152-0.40625 1.9883-0.36328 3.8867 0 5.5117l-1.625 0.72266c-0.76953 0.36328-1.5352 0.76953-2.3047 1.1289zm8.3125-3.7031s-0.36328 0.13672-0.58594 0.22656c-0.089844-0.90234-0.089844-1.9414 0.13672-3.1172 0.58594-2.9805 1.9414-6.4141 4.3828-11.066 0.94922-1.8984 1.9883-3.6602 3.0703-5.5117 0.13672-0.22656 0.26953-0.49609 0.40625-0.72266 0.90234 2.2578 1.6719 4.2461 2.3047 6.1445 1.0391 2.9375 2.2578 6.7773 2.7109 10.074 0.089844 0.85938 0.17969 2.3477 0.089844 2.8906h-2.3477-2.168c-3.0273-0.13672-5.6445 0.26953-7.9961 1.0859zm0.67578-36c0.40625 1.1289 0.72266 1.8516 1.0391 2.5742l0.49609 1.1289c-0.99219-0.45312-2.125 0-2.6211 0.90234-0.85938 1.7148-1.9414 3.5703-3.0703 5.5117-0.13672 0.22656-0.22656 0.45312-0.36328 0.67578-1.4922 0.31641-3.3438 0.63281-5.2852 0.99219-4.2461 0.76953-8.8984 1.6719-12.195 2.5742 4.1992-2.8008 7.9961-5.8281 11.699-8.7617l0.45312-0.36328c1.3555-1.0859 2.7539-2.2148 4.1094-3.3438 2.5742-2.0781 5.1055-4.1562 7.4531-5.918 0.85938-0.63281 1.0859-1.8516 0.45312-2.7539l-3.4336-4.9219 5.6016 4.4727c0.36328 0.26953 0.8125 0.45312 1.2656 0.45312h0.22656c0.54297-0.046875 0.99219-0.31641 1.3555-0.72266l5.2383-6.4141c0.31641-0.40625 0.49609-0.94922 0.45312-1.4453-0.046875-0.54297-0.31641-0.99219-0.72266-1.3555l-3.1172-2.4844c1.6719-1.2656 3.1602-3.2969 4.1562-5.6016-0.72266 4.5625-0.26953 8.0859 1.4922 10.391 0.54297 0.67578 1.1289 1.1289 1.6719 1.4922-3.7031 4.6523-4.7422 9.8477-2.3047 11.969 0.54297 0.45312 1.1289 0.94922 1.6719 1.3555-0.36328 0.8125-0.63281 1.7148-0.90234 2.7109l-3.0703-7.1367c-0.40625-0.94922-1.4453-1.4453-2.4375-1.1289l-7.9062 2.4844c-0.49609 0.17969-0.94922 0.54297-1.1758 0.99219-0.22656 0.45312-0.26953 1.0391-0.089844 1.5352zm7.9492-14.77-2.7109 3.2969-8.6289-6.957 2.7109-3.2969zm22.633-28.277c3.75-0.089844 8.9883 0.45312 10.391 2.8008-2.2148 1.1758-4.293 2.5742-6.1875 4.1992-0.31641 0.26953-0.49609 0.67578-0.58594 1.0391-0.36328 0.17969-0.67578 0.45312-0.90234 0.8125l-0.40625 0.72266c-0.76953-0.45312-1.7148-0.90234-2.8008-1.3086 0.63281-2.0781 0.85938-5.1055 0.40625-8.3125zm16.578 19.016c2.5742-0.8125 4.7422-0.76953 7-0.67578h1.1289c2.8477 0.17969 5.7812 0.54297 9.3047 1.1758 5.6914 1.0859 10.93 2.4844 15.992 4.2461l-1.5352 3.9766c-4.7891-1.6719-9.8945-3.0273-15.27-4.0195-3.2539-0.58594-6.0977-0.94922-8.6719-1.0859-0.58594 0-1.2188-0.046876-1.8516-0.046876-1.3984 0-2.8477 0.089844-4.0664 0.31641l-2.0781-3.8398zm-16.125-5.918-1.3086 2.3945s-0.046875 0-0.089844 0.046876c-0.76953 0.72266-0.76953 1.9883-0.089844 2.8008 0.089844 0.089843 0.17969 0.17969 0.26953 0.22656l0.26953 0.31641s0.45312 0.40625 0.76953 0.85937c0.58594 0.72266 1.2188 1.5352 1.8516 2.4375 0.54297 0.76953 1.0859 1.625 1.6719 2.4375-0.54297-0.089843-1.0859-0.17969-1.7148-0.17969-5.332-0.17969-9.7578 0.26953-13.371 2.8008h-0.046875s-0.90234-0.089844-1.625-1.0391c-0.67578-0.90234-1.625-3.207-0.45312-8.6289 0.67578-3.1602 2.125-5.1953 4.3359-6.0078 3.2969-1.2188 7.543 0.31641 9.4844 1.5352zm-1.3984 29.586c-3.2969-2.5312-6.7305-3.4336-10.254-2.6211-0.45312 0.089844-0.8125 0.22656-1.1758 0.40625-0.49609-0.36328-1.0391-0.8125-1.4922-1.1758-0.31641-0.63281 0.089844-3.4766 2.8477-6.8203 2.6641-3.2539 6.0977-4.293 13.008-4.0195 3.207 0.13672 4.293 1.4922 5.4219 3.3438-2.2578 0.58594-4.0664 1.9883-4.9219 2.6641-1.1758 0.58594-2.9375 4.1992-3.4336 8.2656zm-15.312-29.09c0.089844-1.3555 0-2.7109-0.45312-3.8867-0.26953-0.76953-0.58594-1.3984-0.94922-1.9883 0.94922 0.36328 1.9883 0.72266 3.1172 1.1289 0.45312 0.17969 0.94922 0.36328 1.4453 0.49609-1.1758 0.94922-2.3047 2.3047-3.1602 4.2461zm2.9375 38.668c0.26953-0.99219 0.49609-1.9883 0.72266-2.8906 0.67578-2.8008 1.3086-5.2383 2.2578-5.4648 4.7891-1.0391 8.9453 3.207 11.562 6.957 1.5352 2.2148 2.9805 3.6133 4.0664 4.4727-0.046875 1.2656-0.089844 2.6211-0.13672 4.0195-1.8086-0.94922-2.4375-2.2148-3.1602-3.75-1.0391-2.125-2.3047-4.7891-6.8672-5.5547-2.0781-0.36328-4.3359 0.90234-6.1875 3.3438-0.40625 0.49609-0.76953 1.1289-1.0859 1.7617-0.40625-0.99219-0.8125-1.9883-1.1758-2.8906zm35.371 31.348c-0.76953-0.58594-1.6719-1.1289-2.6211-1.7148-0.99219-0.58594-2.0781-1.2656-3.2539-2.125-2.3477-1.6719-4.5156-4.6992-5.4219-7.6328-1.582-5.2383-1.7148-9.9844-1.4922-15.402l4.2461 0.26953c-0.22656 5.8711 0.17969 10.254 1.2656 13.73 0.90234 2.5742 2.0781 4.1992 3.9766 5.6445 1.2188 0.94922 4.6094 3.6602 7.3164 5.9609l-4.0664 1.2656zm-28.547-8.2656c0-0.54297-0.089844-1.0859-0.13672-1.6719-0.046875-0.40625-0.13672-0.8125-0.22656-1.2188 0.58594-0.58594 0.85938-0.8125 2.125-1.625 1.7617-1.0859 4.3359-1.3555 6.4141-0.72266 1.7617 0.58594 3.3438 1.3555 5.0156 2.3945 0.089844 0.26953 0.13672 0.49609 0.22656 0.76953 0.17969 0.54297 0.40625 1.0859 0.63281 1.582-2.3477-0.54297-4.9688-0.94922-7-0.94922-2.5742 0-5.1055 0.63281-7.0469 1.3984zm-1.582-19.109c1.1758-1.7148 2.3047-2.168 2.5312-2.2148 2.5312 0.45312 3.0273 1.4922 3.9297 3.3438 0.99219 2.0312 2.3477 4.7891 6.8672 6.3242 0.089843 1.2188 0.17969 2.4375 0.36328 3.7031-0.90234-0.40625-1.7617-0.76953-2.7109-1.0859-3.207-0.99219-7.0469-0.58594-9.7578 1.1289-0.36328 0.22656-0.63281 0.40625-0.90234 0.58594-0.45312-1.7148-0.94922-3.3867-1.4922-5.0156-0.99219-2.2578 0-5.0586 1.1758-6.8203zm16.984-12.285c-0.85938 0.22656-1.4453 0.90234-1.5352 1.7148l-1.0859 5.1484c-0.54297-0.58594-1.0859-1.2656-1.7148-2.168-0.45312-0.67578-0.94922-1.2656-1.4453-1.8984-0.8125-3.75 0.99219-8.0859 1.625-9.0781 0.089843-0.046875 0.17969-0.13672 0.26953-0.17969 0.72266-0.58594 2.9805-2.3047 4.7422-1.9883 0.76953 0.13672 1.4453 0.72266 2.0781 1.7148 0.17969 0.26953 0.40625 0.49609 0.67578 0.63281l0.99219 1.5352c0.63281 0.99219 1.3086 1.9883 1.9414 2.9805-0.58594 0.17969-1.2188 0.40625-1.8516 0.58594-0.99219 0.26953-1.9414 0.49609-2.8477 0.67578-0.45313 0.089844-0.99219 0.13672-1.2656 0.13672-0.17969 0-0.40625 0-0.63281 0.046875zm10.977-2.9375s-0.31641 0.089844-0.45312 0.13672c-0.85938-1.2656-1.6719-2.5742-2.4844-3.8398l-7.543-11.746c-1.2656-1.9414-2.5742-3.8867-3.8398-5.6445-0.67578-0.99219-1.3555-1.8516-1.9883-2.5742-0.13672-0.22656-0.31641-0.40625-0.45312-0.54297l2.125-3.9297 0.22656 0.22656c0.49609 0.45312 0.90234 0.94922 1.3086 1.4453 0.8125 0.94922 1.5352 1.9414 2.2148 2.8906 1.4453 1.9414 2.7109 3.8867 3.9766 5.8281l7.5898 11.746c0.99219 1.5352 2.0312 3.1172 3.0273 4.6523l-3.7031 1.3555zm7.543-2.7539c-0.31641-0.49609-0.63281-0.99219-0.94922-1.4922 0-0.13672 0.089844-0.22656 0.089844-0.36328 0.13672-1.3086 0.63281-2.125 1.625-2.5742 2.0781-0.99219 5.9609-0.45312 9.3047 0.8125-1.0859 0.36328-2.125 0.72266-3.1172 1.0391l-6.957 2.5312zm15.855-5.1484-0.046876-0.046875c-3.8398-2.5312-11.879-5.1953-16.758-2.8477-1.1758 0.54297-2.0781 1.3555-2.7109 2.3477l-3.793-5.8711c1.0859-0.13672 2.6211-0.26953 4.4258-0.13672 2.4375 0.13672 5.1055 0.45313 8.1758 0.99219 5.7812 1.0859 11.34 2.6211 16.488 4.5156 0.22656 0.089844 0.45312 0.13672 0.72266 0.13672 0.8125 0 1.582-0.49609 1.8984-1.3086l2.9375-7.7227c0.17969-0.49609 0.17969-1.0391-0.046875-1.5352-0.22656-0.49609-0.63281-0.85938-1.1289-1.0391-5.8711-2.168-11.926-3.8398-18.566-5.1055-3.7031-0.67578-6.8203-1.0391-9.8945-1.2188h-1.1758c-2.9805-0.089844-6.4141-0.13672-10.75 1.8086-0.046875-0.089844-0.089843-0.17969-0.17969-0.22656 4.1094-3.3867 9.6211-5.1953 15.629-4.9688 5.6445 0.13672 11.879 1.8086 18.566 4.9219 6.5508 3.0703 10.75 6.6836 13.73 11.746 1.5352 2.5312 2.8477 4.9219 4.1992 7.5 0.17969 0.36328 0.40625 0.72266 0.58594 1.0859-0.36328-0.17969-0.72266-0.36328-1.1289-0.54297-3.9297-1.7617-9.9375-3.75-16.398-3.2539-1.6719 0.13672-3.207 0.40625-4.7422 0.72266zm-47.293-33.336c0.58594 3.3867 0.17969 6.3242-0.22656 7.5-1.0859-0.13672-2.168-0.17969-3.2969-0.046874-1.8984-0.8125-3.8867-1.5352-5.6445-2.125-2.3477-0.8125-6.3242-2.2148-6.5938-3.0703 0 0 0-0.13672 0.17969-0.40625l0.63281-1.0859c1.8086-3.0703 4.7891-8.2656 7.9961-8.9883 0.99219-0.22656 1.9414 0 2.9805 0.67578 2.6211 1.7617 3.6133 5.5117 3.9766 7.5898zm-18.43-1.2656-0.63281 1.0391c-0.94922 1.625-0.76953 2.9375-0.49609 3.793 0.089844 0.22656 0.17969 0.40625 0.31641 0.58594-0.94922-0.13672-1.9414-0.13672-2.8906-0.089844 0.54297-1.1758 1.0859-2.3047 1.6719-3.3438 0.90234-1.4922 1.7617-2.7539 2.6211-3.7031 0.26953-0.31641 0.63281-0.63281 0.94922-0.90234-0.58594 0.90234-1.0859 1.8086-1.5352 2.6211zm-7.543 16.531 0.31641-1.1289c0.36328-1.4453 0.72266-2.8008 1.1758-4.1094 0.17969-0.58594 0.45312-1.1758 0.67578-1.7617 4.5625-0.54297 6.1445-0.40625 7.4062 3.0273 0.85938 2.3945-0.49609 6.1875-2.3477 8.4922-1.1758 1.4922-2.0312 1.7148-2.2148 1.6719l-5.2852-4.2461s-0.17969-0.089844-0.26953-0.13672c0.17969-0.58594 0.40625-1.1289 0.58594-1.7617zm-7.4531 11.879 2.2578 1.8086c-0.26953 0.046874-0.58594 0.17969-0.8125 0.31641-3.0273 2.2148-5.6016 4.3359-8.1328 6.4141-1.3086 1.0859-2.6641 2.168-4.0195 3.2969-3.3438 2.6641-7.0938 5.6445-10.797 8.1758 0.58594-1.582 0.85938-3.7031 0.67578-6.5938 0-0.36328-0.17969-0.72266-0.31641-1.0391 0.72266 0.40625 1.582 0.67578 2.4844 0.72266h0.63281c2.9805 0 6.2344-1.6719 7.6797-3.3438 0.22656-0.26953 0.40625-0.58594 0.45312-0.94922 0.26953-1.625 0.13672-4.3828-1.4922-6.6836h1.0859c1.9883-0.089844 4.293-0.17969 6.957-0.85938 1.3086-0.31641 2.4375-0.76953 3.3867-1.3086zm-28.23 20.734c-0.31641 0-0.54297 0.046875-0.72266 0.089843-0.36328 0.089844-1.9883 0-2.8477-0.90234-0.67578-0.72266-0.8125-1.9883-0.40625-3.75 0.67578-2.8477 2.9375-3.3867 4.2461-3.4766h0.26953c1.582 0 2.7109 0.67578 2.8008 0.94922 0.45313 6.5938-1.9414 6.8672-3.3438 7.0469zm14.363-13.191c-0.94922 0.76953-2.8906 1.7148-4.5156 1.582-0.76953-0.046875-1.2656-0.36328-1.625-0.94922-0.99219-1.625-1.0859-4.1094-0.17969-5.2383 0.13672-0.17969 0.49609-0.58594 1.3555-0.58594 0.36328 0 0.8125 0.046875 1.3555 0.22656 3.2969 1.0391 3.6133 3.75 3.5703 4.9688zm-9.7578 2.2148c-0.94922-0.49609-1.9883-0.90234-3.2539-0.99219-2.8477-0.22656-5.918 0.76953-7.7695 3.3438 0.49609-1.6719 0.8125-3.5234 0.85938-5.6016 0.67578 0.089844 1.3984 0.17969 2.0312 0.36328 0.49609 0.13672 1.0391 0.089843 1.5352-0.13672 0.45312-0.26953 0.8125-0.67578 0.99219-1.1758l1.2656-4.1562c1.3555 0.089843 2.7109 0.22656 4.0664 0.31641-1.1289 2.3477-1.0391 5.4648 0.36328 7.9961zm-32.387 14.953c-0.089844-0.40625-0.17969-0.8125-0.26953-1.1289-0.089844-0.36328-0.17969-0.67578-0.22656-0.94922-0.13672-0.72266-0.58594-1.2188-1.0859-1.6719 0.72266-0.45312 1.4453-0.90234 2.168-1.3086 0.67578-0.40625 1.3555-0.72266 1.9883-1.0391l0.76953-0.36328c0.72266-0.31641 1.5352-0.63281 1.625-0.67578h0.17969c-1.1289 1.7617-2.4375 3.6133-4.0664 5.7383-0.36328 0.45312-0.72266 0.90234-1.0859 1.3984zm-8.1758 1.582c1.4453-1.2188 3.0273-1.8984 3.8867-2.0781 0 0.13672 0.089844 0.26953 0.089844 0.40625 0.45312 1.625 0.94922 3.6133-0.046875 5.375-0.76953 1.3555-2.4375 2.168-3.6602 2.6211-0.72266-0.99219-1.2188-2.3945-1.2188-3.7031 0-0.63281 0.089843-1.8516 0.90234-2.5742zm11.562 13.777c3.0703-3.6602 5.4219-6.5938 7.543-9.3945 2.0312-2.7109 4.6094-6.3242 6.957-10.48l0.45312-0.8125c0.49609-0.90234 0.99219-1.8984 1.4453-2.8906-0.45312 3.2969 0.58594 5.332 1.6719 6.4141 0.99219 0.99219 2.2148 1.4922 3.3438 1.7617-0.99219 0.26953-2.0312 0.54297-3.2969 0.85938l-0.45312 0.089843c-1.2188 0.26953-2.7109 0.67578-4.3828 1.4922-2.3047 1.1289-3.9297 2.7109-4.9219 3.8867-2.4375 2.9805-3.6602 5.7383-4.7422 8.3125-0.17969 0.49609-0.36328 1.0391-0.54297 1.582-1.8516 0.49609-3.4766 0.99219-4.9688 1.4922l1.8984-2.2578zm36.906 15.043c2.2148-1.0391 4.1562-1.9414 5.2852-2.3945 0.17969 0.94922 0.22656 2.5742-0.40625 4.1562-0.63281 1.5352-1.7148 2.4844-3.207 2.8008-4.1562 0.85938-5.0586 0.17969-6.5039-2.0312 1.6719-0.8125 3.2539-1.6719 4.7891-2.5312zm25.297 12.875 6.957 1.1758c5.9609 0.90234 11.879 1.7148 17.754 2.5312 2.3945 0.31641 4.7891 0.67578 7.1836 0.99219-2.4375 0.089844-4.7422 0.26953-7.0469 0.49609l-13.234 1.4453c-5.4219 0.49609-8.8086 0.45312-10.027-0.089844-0.17969-0.089844-0.45312-0.22656-1.1758-1.8516-0.26953-0.67578-0.58594-1.3984-0.90234-2.168-0.36328-0.94922-0.8125-1.9414-1.2656-2.9375 0.58594 0.13672 1.2188 0.26953 1.8086 0.36328zm53.617 4.293s-0.40625-0.22656-0.67578-0.26953c-4.3828-0.8125-13.461-2.2578-18.023-2.9375-3.207-0.45312-6.4141-0.90234-9.668-1.3086-5.8711-0.8125-11.746-1.582-17.664-2.5312l-6.9102-1.1758s-0.40625-0.089844-0.58594-0.13672c0.26953-0.089844 0.49609-0.22656 0.67578-0.26953 0.94922-0.36328 2.168-0.49609 3.793-0.45313 0.49609 0 1.0391 0 1.582 0.046876 1.3984 0.089843 3.0703 0.17969 5.6914-0.22656 1.0859-0.17969 2.0781-0.54297 3.0273-0.99219 3.6133 0.49609 7.2734 1.0391 10.93 1.5352 3.207 0.45312 6.4609 0.85938 9.9375 1.3555 4.3828 0.63281 8.9453 1.3086 13.418 2.125 2.2578 0.45313 4.5625 0.90234 6.8203 1.4922 1.8086 0.54297 4.1992 1.3984 6.3711 2.3477-2.9805 0.54297-5.918 1.0391-8.7617 1.3984zm2.0312-8.2227s-0.26953 0.13672-0.40625 0.22656c-1.7617-0.40625-3.5234-0.8125-5.2852-1.1289-1.3086-0.22656-2.6211-0.45312-3.9297-0.67578 2.4375-0.72266 5.0586-1.4922 7.4062-2.2148 2.168-0.67578 4.1094-1.2188 5.4219-1.625 4.293-1.2656 9.0781-2.8906 11.609-5.2383 0.72266-0.54297 1.1289-1.0859 1.582-1.7148 0.31641-0.31641 0.49609-0.8125 0.54297-1.2188 0.089844-0.36328 0.31641-1.0859 0.13672-1.582 0-0.31641 0-0.67578-0.13672-0.94922l-0.17969-0.40625c-0.089844-0.26953-0.17969-0.49609-0.22656-0.76953-0.046875-0.22656-0.17969-0.45312-0.31641-0.63281-0.22656-0.31641-0.40625-0.63281-0.63281-0.94922-0.26953-0.45312-0.54297-0.85938-0.99219-1.4453l-4.5156-4.9219c-1.3984-1.4453-2.6641-2.9805-3.9297-4.5156l-0.72266-0.85938c-2.168-2.6641-4.3359-5.6016-6.5938-8.7617l4.1562-1.5352c1.9883 2.7539 3.8867 5.2852 5.7812 7.6328l0.72266 0.85938c1.2188 1.4922 2.4375 2.9375 3.75 4.293l4.7891 5.2383c0.63281 0.8125 1.1758 1.7617 1.7617 2.7109l0.31641 0.45312c0.26953 0.72266 0.54297 1.4453 0.8125 2.168l0.089844 0.26953c-0.046875 0.45312 0 0.85938 0.26953 1.2656v0.67578c0.22656 1.2188 0 2.6211-0.63281 4.1992-0.99219 1.6719-1.8516 2.7539-2.7539 3.4766-2.0781 1.8516-4.1992 2.8906-6.5508 3.9297-2.2148 0.90234-8.8555 3.0273-11.293 3.7031zm6.9102-42.371 2.8008-1.0391c4.1094-1.4453 7.9961-2.8008 11.473-3.0273 2.4375-0.17969 4.9688 0.17969 7.7695 1.1289-0.36328 0-0.72266-0.089844-1.0859-0.089844-6.9102-0.22656-13.914 1.3984-19.785 4.5156-0.36328-0.49609-0.76953-1.0391-1.1289-1.5352zm15.902 16.805c-1.8086-1.4453-2.8477-4.7422-2.6211-5.5117 0.22656-0.49609 1.6719-1.4453 3.4336-1.582h0.36328c0.72266 0 1.6719 0.17969 2.168 0.94922 0.76953 1.2188 1.0391 2.4375 0.72266 3.5234-0.26953 1.1289-1.1758 2.125-2.5312 2.9375-0.26953 0.13672-0.72266 0.40625-1.582-0.26953zm57.414 7.4062s-0.17969-0.31641-0.36328-0.45312c-1.8516-1.625-3.5703-3.4766-5.332-5.4219h1.1289c0.54297 0 1.0391-0.22656 1.3984-0.58594 0.36328-0.31641 0.54297-0.8125 0.54297-1.2656 0.8125 0.36328 1.7617 0.54297 2.8906 0.58594-0.22656 1.2656-0.22656 2.5742 0.26953 3.9297 0.31641 0.85938 0.76953 1.582 1.2656 2.2578-0.40625 0.22656-0.8125 0.36328-1.2188 0.58594-0.22656 0.13672-0.40625 0.26953-0.63281 0.40625zm17.031-11.203c0 0.22656 0.089844 0.45312 0.17969 0.67578-0.046875 0.26953-0.13672 0.58594-0.36328 0.94922-1.3086 2.5742-5.4219 5.6914-11.383 6.5938-0.36328-0.13672-1.1289-1.0859-1.3086-2.4844-0.17969-1.3555 0.31641-2.3477 1.4453-2.9805 0.13672-0.046874 0.22656-0.089843 0.36328-0.17969 3.0703-1.6719 7-2.8477 9.4414-2.8477 0.49609 0 0.94922 0.046875 1.3086 0.13672 0.13672 0 0.26953 0.089843 0.36328 0.13672zm-13.055-0.90234c-0.8125 0.45313-1.7617 0.76953-2.8477 0.90234-1.5352 0.22656-2.4844-0.17969-2.6211-0.36328-1.582-4.293-0.85938-7 0-8.4922 0.94922-1.625 2.3047-2.3945 3.1602-2.5742 0.22656 0 1.0391 0.49609 1.9883 1.8516 1.582 2.3047 2.4375 5.4648 1.8984 7.0469-0.17969 0.58594-0.76953 1.1758-1.5352 1.625 0 0-0.089844 0-0.089844 0.046875zm-9.5781-30.039c-0.31641-0.45312-0.63281-0.8125-0.94922-1.2188 2.4844-0.22656 4.832-0.99219 6.3242-2.2148 0.8125 1.3555 1.582 2.7109 2.2148 4.0195 0.13672 0.31641 0.26953 0.63281 0.40625 0.94922-1.9414-1.0391-4.5156-1.6719-7.9492-1.5352zm-5.1484-16.262c0.36328-0.17969 0.72266-0.45312 0.94922-0.8125 0.22656 0.49609 0.45312 0.94922 0.76953 1.3555v0.046875c-0.58594-0.26953-1.1758-0.45312-1.7617-0.58594zm4.1562-13.055c-0.31641 0.36328-0.63281 0.72266-0.99219 1.1289 0.99219-1.625 1.8984-3.8398 1.3984-6.0078-0.54297-2.4844-1.9414-3.4766-3.0273-3.8398-0.72266-0.26953-1.4922-0.26953-2.3477-0.13672 0.8125-3.4336-0.76953-5.375-1.8984-6.3242-2.3945-1.9883-6.3242-2.168-9.125-1.2188l-3.793-5.0586h0.85938c1.2188 0 3.2969 0.49609 5.375 1.3086 1.9883 0.76953 4.0664 1.8086 6.2773 3.0273 4.5625 2.7109 8.2227 5.6445 10.57 8.4922 1.1289 1.3555 1.582 2.4844 1.582 2.8906 0 0.22656-0.54297 1.2656-2.0781 2.9375l-2.8477 2.8906zm-24.617-21.41 6.5039 8.7617s0.13672 0.31641 0.22656 0.54297c0.17969 0.31641 0.40625 0.58594 0.72266 0.76953l4.7422 6.3711c0.13672 0.31641 0.36328 0.58594 0.63281 0.8125l0.22656 0.31641-2.8477 1.8984-14.547-18.25 1.4922-1.0859s0.046875-0.089844 0.089843-0.13672h0.40625 2.3477zm6.5938 21.367c-1.582 1.0391-2.9375 2.6211-3.7031 4.7891-0.17969 0.63281-0.17969 1.1758-0.26953 1.7617-1.0859-1.7617-2.8008-3.4766-4.5625-4.6992-1.5352-1.0391-3.0273-1.625-4.5156-1.9414 1.4922-1.8086 2.3945-4.0195 2.4844-6.0078 0.13672-1.1289 0-2.3477-0.13672-3.4336l-0.089844-0.45312c-0.13672-0.63281-0.26953-1.3086-0.36328-1.7148-0.31641-1.3086-0.90234-2.9375-1.8086-4.5156l12.965 16.262zm-44.676-34.238c-0.58594-0.13672-1.2188-0.26953-1.8984-0.31641-2.8906-0.31641-6.2773-0.36328-9.8477-0.26953 0.22656-0.58594 0.54297-1.1289 0.99219-1.625 1.3984-1.3984 4.1094-2.2148 7.543-2.2148 1.3555 1.3555 2.4844 2.8477 3.4766 4.4727h-0.26953zm-10.707-6.957c-1.625-3.1172-5.918-5.8281-13.914-5.0156-0.90234 0.089843-1.7617 0.26953-2.5742 0.54297-1.5352-0.54297-2.5742-1.4453-2.9805-2.6641-0.49609-1.5352 0-3.2969 0.72266-4.6094 2.7539 0.45312 5.4648 1.2656 8.3125 2.5742 2.6641 1.2188 5.4648 2.8008 9.3047 5.2383 1.582 0.99219 3.0273 1.9414 4.4258 2.8906-1.2188 0.22656-2.3047 0.58594-3.2539 1.0391zm-23.309-5.9609c0.36328 1.1758 1.1289 2.6211 2.6211 3.793-1.3555 1.2188-2.4375 2.7539-3.1172 4.6992-3.4336 0.22656-5.6914-0.089843-6.6836-1.0391-0.31641-0.26953-0.67578-0.72266-0.8125-1.7148v-0.36328c-0.26953-3.5234-1.582-7.2266-3.2969-9.6211 1.9883-0.58594 3.9766-1.0859 6.0078-1.4922 1.625-0.31641 3.1602-0.45312 4.4258-0.49609 0.45312 0 0.85938 0 1.2656 0.046875-0.72266 1.8984-1.0391 4.0664-0.36328 6.1875zm-15.402-2.8906c1.3555 1.1289 2.9805 4.6992 3.3438 8.2656 0 0.17969 0 0.36328 0.046875 0.54297 0.13672 1.9414-0.17969 3.4766-0.90234 4.2461-1.1289 1.1758-2.0312 1.7148-2.6641 1.9414-2.7109-2.9805-5.1484-5.1484-7.8164-7.0469l1.1758-5.1055c2.4375-1.1289 4.6992-2.0781 6.8203-2.8477zm-37.719 29.18c-0.85938 0.58594-1.3555 1.5352-1.3086 2.168-0.046875 0.31641-0.089843 0.63281-0.089843 0.90234v0.94922c0 0.90234 0.046874 1.9414 0.13672 2.9375v0.63281c0.22656 2.3477 0.54297 4.7422 0.85938 7.1836l1.0859 8.3555c0.17969 1.5352 0.36328 2.9805 0.40625 4.6094l-4.3359-0.22656c-0.13672-2.6641-0.54297-5.6445-0.94922-8.6289-0.17969-1.2188-0.31641-2.3945-0.49609-3.5703-0.31641-2.4375-0.63281-4.8789-0.8125-7.3633v-0.54297c-0.089844-1.0859-0.17969-2.125-0.17969-3.4766 0-0.31641 0-1.3555 0.13672-2.3945l0.089844-1.1758 0.45312-1.625c0.046875-0.36328 0.31641-0.76953 0.58594-1.2188l0.26953-0.45312c0.49609-0.67578 0.85937-1.1289 1.4922-1.4453 1.2188-0.76953 2.7109-1.0859 4.1992-0.90234 0.72266 0.089844 1.5352 0.26953 2.3945 0.54297l5.0586 2.125c1.7148 0.8125 3.8398 0.046875 4.4727-1.3086 0.36328-0.45312 1.0391-1.9414 1.3086-2.7109 0.13672-0.40625 0.31641-0.85938 0.45312-1.3086l4.1992 0.90234c-0.17969 0.67578-0.40625 1.3555-0.72266 2.168-0.49609 1.2656-0.85938 2.168-1.8516 3.7031-0.99219 1.4453-2.2578 2.5312-3.5234 3.0273-1.4922 0.49609-3.1172 0.45312-4.6992 0l-4.9219-2.0312c-0.26953-0.089844-0.54297-0.17969-0.67578-0.22656-0.99219-0.31641-2.125-0.13672-3.0273 0.45312zm6.7305-7.8594c0.76953-0.089843 1.4922-0.17969 2.168-0.31641 0.76953-0.13672 1.5352-0.31641 2.3047-0.54297-0.089844 0.26953-0.13672 0.49609-0.22656 0.76953-0.17969 0.49609-0.45313 1.1289-0.72266 1.582l-3.5703-1.4922zm-11.34 0h-0.046875c-1.3086 0.67578-2.125 1.7617-2.8477 2.7539l-0.13672 0.17969v-2.3945s0-0.40625-0.046875-0.58594h3.0703zm-7.6797 47.883s0.22656 0.089844 0.31641 0.089844c0.089843 0 0.17969-0.046875 0.26953-0.046875 4.0664 0.26953 8.1328 0.40625 12.062 0.31641 2.2578-0.089844 4.0195-0.26953 5.2383-0.58594 0.54297-0.13672 1.1289-0.31641 1.7617-0.8125 0.26953-0.22656 0.45312-0.45312 0.72266-0.8125l0.54297-0.85937c1.0859-1.625 1.625-3.8398 2.3047-6.3711 0.36328-1.3086 0.72266-2.6641 1.1758-4.1094 1.3086-3.9766 2.8477-7.4531 4.7891-10.93 1.2188-2.0781 2.3477-3.6602 3.5234-4.9688l0.26953-0.26953c1.0859-1.1289 2.0781-2.125 3.6133-2.9375l1.1289 4.3359c-0.85937 0.63281-1.5352 1.3984-1.7617 1.6719-1.0391 1.1289-2.0312 2.5312-3.0703 4.3359-1.1289 1.9883-2.125 4.1992-3.0273 6.4609-0.22656 0.31641-0.36328 0.67578-0.40625 1.0391-0.31641 0.85938-0.67578 1.7148-0.99219 2.5742-0.45312 1.3984-0.8125 2.8008-1.2188 4.3359l-0.31641 1.1289c-0.63281 2.3477-1.3555 4.293-2.3047 5.8281-0.31641 0.49609-0.58594 0.90234-0.85938 1.3086l-0.45312 0.54297c-0.26953 0.36328-0.54297 0.67578-0.99219 1.0391-0.72266 0.67578-1.8516 1.2188-3.2969 1.582-2.3047 0.54297-4.293 0.63281-6.1875 0.72266-7 0.17969-13.824-0.36328-20.371-0.90234l-14.5-1.1289h-0.58594c-2.3047-0.17969-4.6523-0.31641-6.8203-0.31641h-1.4922l-0.26953-4.1992c2.6211-0.17969 4.6992 0 7.0469 0.089844l16.172 1.2188c2.6211 0.22656 5.2852 0.40625 7.9492 0.58594zm-35.055 0.40625 0.26953 4.1562c0 0.31641 0.13672 0.58594 0.26953 0.8125-2.3047 0.67578-4.6094 1.3555-6.8672 1.8086-0.54297 0.089843-0.99219 0.40625-1.2656 0.85938-0.26953 0.45312-0.40625 0.99219-0.26953 1.4922l1.7148 7.7227c-3.1602 1.8984-6.2344 3.793-9.168 5.7383l-10.797 7.0938s-0.26953-0.31641-0.49609-0.40625c-1.5352-0.85938-3.3438-1.2188-5.1055-1.3984 1.3555-0.8125 2.7109-1.582 4.1094-2.3477 4.293-2.3945 8.7188-4.8789 13.008-8.7617 0.63281-0.49609 1.2188-1.2188 1.8086-1.8984l0.63281-0.76953c0.31641-0.40625 0.63281-0.85938 0.90234-1.3555l1.0859-1.9414c0.36328-0.76953 0.99219-1.7148 1.9883-2.8477 1.3555-1.5352 3.0273-3.1172 4.832-4.7422l2.8008-2.6641s0.36328-0.36328 0.54297-0.54297zm-25.566 34.059 12.422-8.1328c3.8398-2.4844 7.8164-5.0586 12.016-7.4062 0.26953-0.13672 0.45312-0.36328 0.63281-0.58594 2.7109-0.72266 5.4219-1.4922 7.9961-2.2578 0.67578-0.22656 1.3555-0.40625 2.0312-0.58594 0.26953 0.36328 0.63281 0.8125 1.1289 1.2188l2.6641 1.8984s-0.13672 0.046875-0.22656 0.089844c-0.22656 0.089844-0.45312 0.17969-0.49609 0.22656-0.26953 0.089844-0.54297 0.13672-0.76953 0.22656-0.49609-0.046875-0.99219 0.089844-1.3984 0.40625-0.94922 0.22656-1.9883 0.36328-2.8477 0.45312l-0.99219 0.13672c-0.31641 0.089843-1.4453 0.45312-2.6211 0.99219l-0.8125 0.40625c-0.72266 0.36328-1.4922 0.72266-2.2148 1.1758-4.1094 2.3047-8.3555 5.0586-12.105 7.5l-12.062 7.9062-1.582 0.99219c-3.0703 1.9414-6.0078 3.8398-9.4414 5.5117l-1.6719-3.9297c0.26953-0.13672 0.58594-0.31641 0.85938-0.49609 0.13672-0.046874 0.22656-0.13672 0.36328-0.17969 2.9805-1.582 6.0547-3.5234 9.168-5.4648zm-19.695 8.1328c0.67578-0.85938 2.5312-1.7148 4.6523-2.0781 0.67578 1.5352 1.7617 3.9297 2.5312 5.332l0.22656 0.54297c-0.17969 0.36328-1.2188 1.1289-3.0703 1.2656-2.3047 0.17969-4.1094-2.2148-4.5625-4.4727 0-0.13672 0-0.31641 0.17969-0.58594zm15.539 16.848s-0.089844-0.13672-0.13672-0.17969c-1.2656-1.625-2.168-3.4766-2.5312-5.1953-0.40625-2.0781-0.49609-4.0664-0.17969-5.7812v-0.13672c1.8086-0.90234 3.4766-1.8086 5.1055-2.7539-0.40625 1.2188-0.67578 2.3477-0.8125 3.3867-0.45312 3.2969 0.13672 5.8281 1.8516 7.9492 1.3555 1.7617 3.4336 3.207 5.8711 4.832l-2.3477 3.2969-0.13672 0.17969-0.22656-0.13672c-2.125-1.3984-4.5156-2.9805-6.4609-5.4219zm13.145 0-1.625-1.0859c-2.168-1.4922-4.0664-2.7539-5.0586-4.0664-1.0859-1.3086-1.3555-2.7539-1.0391-4.9688 0.13672-1.0391 0.45312-2.3047 1.0859-4.0195 0.089844-0.22656 0.17969-0.49609 0.31641-0.99219l0.58594-2.0312v-0.046875l11.746-7.6328c0 0.26953-0.046875 0.49609-0.046875 0.72266 0 2.8477 1.3086 5.7812 3.2969 7.4531 0.046875 0 0.13672 0.046875 0.17969 0.089843-0.13672 0.17969-0.26953 0.31641-0.40625 0.49609-0.31641 0.40625-0.58594 0.8125-0.85938 1.2656-1.2656-1.8086-3.2539-2.9375-5.9609-3.0273-2.4844-0.13672-4.4258 0.49609-5.8281 1.8086-1.3086 1.2656-1.9883 3.0273-1.9883 5.2383 0 1.9414 0.99219 3.9766 2.7539 5.6914 2.2148 2.168 5.2852 3.3867 8.4023 3.4336 0.45312 3.1602 1.5352 5.9609 2.3945 8.2227l0.90234 2.2148c0.45313 1.0859 0.85938 2.0781 1.2188 3.0273 0.046876 0.17969 0.089844 0.31641 0.13672 0.45312-4.0664-2.4375-7.9961-4.6094-11.789-6.5938l2.0312-2.8906c0.31641-0.45312 0.45312-0.99219 0.31641-1.4922-0.089844-0.54297-0.40625-0.99219-0.8125-1.3086zm7.0469 24.301c0.63281 0 1.2656-0.31641 1.625-0.85938v-0.089844c0.63281-0.046875 1.2188 0.089844 1.7148 0.31641 0 0.8125 0.046875 1.6719 0.089843 2.4844-0.67578-0.31641-1.3086-0.58594-2.0312-0.85938-0.58594-0.22656-1.1758-0.40625-1.7617-0.58594 0.089844-0.17969 0.22656-0.26953 0.36328-0.45312zm22.633 7.5c-0.40625 0.85938-0.49609 1.7617-0.40625 2.7539-1.4453-0.089844-2.7539-0.22656-4.0664-0.40625-1.2188-3.1602-2.3047-6.3242-2.4375-7.7227-0.26953-1.9883-0.13672-4.1562 0-6.6836 0.089844-1.3086 0.17969-2.7109 0.17969-4.1562 0.089843-1.3555-0.089844-2.9805-0.45312-4.6094 1.3086 1.0859 2.7109 2.6211 4.1562 4.6094 1.2656 1.7617 2.5742 3.793 3.75 6.0078 0.58594 1.0391 1.1289 2.125 1.7148 3.3438 0.40625 0.90234 1.0391 2.2148 1.9883 3.5234-1.625 0.49609-3.6133 1.3555-4.5156 3.3438zm-11.656-33.832c-0.31641-1.3555-0.49609-2.7109-0.31641-3.8398 0.13672 0 0.22656 0.13672 0.36328 0.13672 0.22656 0 0.45313 0 0.67578-0.13672 1.625-0.58594 3.4766-1.2188 5.5547-1.8086-0.17969 1.0859-0.31641 2.168-0.36328 3.3867 0 0.8125 0.089844 1.6719 0.22656 2.5312-2.125-0.58594-4.2461-0.67578-6.1875-0.22656zm20.371 11.066c1.0859 0 2.168-0.046875 3.2539-0.17969 2.8906-0.31641 5.7812-1.1289 8.9453-2.3945 0.089844 0 0.17969-0.089844 0.26953-0.13672 1.7617 2.7109 3.4336 4.6523 7.3164 4.6523h0.40625c-1.8086 1.3555-3.8398 2.8906-5.7812 4.8789-0.94922-1.7617-2.168-3.3438-3.3438-4.1562-2.4844-1.7617-6.3711-1.8984-8.8555-0.36328-0.49609 0.31641-0.90234 0.72266-1.2656 1.1289-0.72266-1.1758-1.4922-2.3047-2.2578-3.3867h1.2656zm40.926 17.254c-0.90234-1.1758-1.4922-2.3477-1.8984-3.3438-0.40625-0.90234-0.76953-1.7617-1.0859-2.5742-0.22656-0.58594-0.45313-1.1289-0.67578-1.6719l3.8867-1.8086c0.31641 0.72266 0.58594 1.3984 0.85938 2.0781 0.31641 0.8125 0.63281 1.582 0.94922 2.2578 0.85938 1.9414 1.625 3.1172 3.1602 3.8867 2.0312 0.94922 5.5547 1.0391 12.152 0.45312l13.234-1.4453c2.2148-0.22656 4.4727-0.40625 6.8203-0.49609 1.1289 0 2.2578-0.046876 3.6602 0.046874 0.67578 0 1.625 0.17969 2.3477 0.31641 0.58594 0.089843 0.99219 0.13672 1.0391 0.13672 3.6133 0.31641 8.2656-0.089844 12.738-0.63281 4.1992-0.49609 8.582-1.2188 13.008-2.0781 2.0312-0.40625 4.3828-0.90234 6.3711-1.5352 0.36328-0.089844 1.1289-0.36328 1.582-0.45312l0.45312-0.089844c0.45312-0.089844 0.94922-0.17969 1.4453-0.22656 1.2188-0.17969 2.3945-0.22656 3.4766-0.26953 4.3828-0.17969 8.582 0 12.242 0.22656 0 0.046875 0 0.13672 0.089843 0.17969l0.99219 3.4336c-3.2539-0.046875-7.1836 0.13672-10.48 0.31641l-2.7539 0.13672c-2.2148 0.13672-4.1094 0.22656-5.8281 0.90234-2.2578 0.67578-4.1562 1.0859-6.1445 1.4922l-0.63281 0.13672c-4.6094 0.90234-8.9883 1.625-13.324 2.125l-1.2656 0.13672c-4.1094 0.45312-7.9961 0.85938-12.559 0.49609-0.72266-0.089843-1.2188-0.17969-1.582-0.22656-0.63281-0.089844-0.99219-0.17969-1.625-0.17969-0.94922-0.089843-2.0781-0.089843-3.1602-0.046874-2.0781 0.046874-4.293 0.22656-6.5039 0.45312l-13.281 1.4453c-1.9883 0.17969-4.3359 0.36328-6.8672 0.40625-2.3477 0-4.7422-0.046875-7.4531-1.2188-1.2188-0.54297-2.4844-1.5352-3.3438-2.6641zm18.07 7.4531 13.281-1.4453c2.125-0.22656 4.1992-0.40625 6.2344-0.45312h2.7539c0.49609 0 0.76953 0.089843 1.2188 0.13672 0.40625 0.046875 0.90234 0.13672 1.8086 0.26953 5.0586 0.45312 9.3516 0 13.461-0.45313l1.3086-0.13672c4.4727-0.54297 8.9453-1.2656 13.688-2.168l0.63281-0.13672c2.125-0.45312 4.1094-0.85938 6.6836-1.6719 0.63281-0.22656 1.3086-0.36328 2.125-0.49609-2.3945 2.6211-4.9219 4.6992-7.5 6.0547-3.5234 1.9414-8.4453 2.5312-15.539 1.7617-1.2188-0.13672-2.4844-0.26953-3.75-0.45312-1.9414-0.22656-3.9766-0.49609-6.0977-0.63281-1.9414-0.17969-3.9297-0.17969-5.8711 0-2.5312 0.17969-5.0586 0.99219-6.2773 1.4453-1.7617 0.63281-3.7031 1.582-5.5117 2.6641-1.3984 0.85938-2.4375 1.5352-3.5703 2.0312-0.17969 0.089844-0.31641 0.22656-0.49609 0.36328-3.7031-2.0312-7.2266-4.293-10.523-6.5508 0.67578-0.046875 1.3984-0.089843 2.0312-0.17969zm14.68 7.7227c1.5352-0.94922 3.2539-1.8086 4.7422-2.3047 1.8516-0.67578 3.75-1.1289 5.2383-1.2188 1.7617-0.13672 3.5234-0.13672 5.2383 0 2.0781 0.13672 4.0195 0.40625 5.918 0.63281 1.3086 0.17969 2.5742 0.31641 3.8398 0.45312 7.9062 0.85938 13.598 0.13672 17.844-2.2148 4.8789-2.5742 8.6289-6.7305 11.066-9.8945 0.8125 0 1.7148-0.089844 2.6641-0.13672 0.13672 0.22656 0.31641 0.40625 0.58594 0.54297l1.2188 0.76953c-4.0664 5.7383-8.4023 9.7109-13.508 12.512-6.5508 3.5234-13.914 3.3438-20.281 2.6641-1.5352-0.13672-3.0273-0.31641-4.4727-0.49609-5.1484-0.63281-9.9844-1.2656-13.867 0.40625-1.1758 0.40625-2.2578 0.94922-3.4336 1.625-1.625-0.63281-3.207-1.3555-4.7422-2.125 0.63281-0.36328 1.2656-0.76953 1.9414-1.1758zm19.559 5.1953c1.4922 0.17969 3.0273 0.36328 4.6094 0.54297 2.125 0.22656 4.3828 0.36328 6.6836 0.36328-1.1289 0.13672-2.3477 0.22656-3.6602 0.31641-2.8906 0.13672-5.9609 0.13672-8.9453 0.13672h-1.7148c-2.4844 0-5.2383-0.49609-8.2227-1.3086 2.9375-1.0391 6.8203-0.58594 11.293 0zm31.031-31.891c-1.2656 0.046875-2.5312 0.13672-3.793 0.31641-0.54297 0.046875-1.1289 0.17969-1.7617 0.26953l-0.54297 0.089844c-0.63281 0.13672-1.582 0.45312-2.125 0.63281-0.45312 0.13672-0.99219 0.26953-1.4922 0.40625l-0.26953-0.26953c-1.8516-1.1758-4.1562-2.2148-6.1875-2.9805 2.5742-0.8125 5.2852-1.7148 6.6406-2.3047 2.6211-1.1758 5.1953-2.3945 7.5898-4.5625 0.63281-0.49609 1.2656-1.1289 1.9414-1.9883 0.36328 0.13672 0.67578 0.26953 0.99219 0.40625l1.3555 0.58594c0.31641 0.13672 0.54297 0.26953 0.72266 0.36328 0.22656 0.13672 0.40625 0.22656 0.63281 0.36328l1.2656 0.99219c1.9883 1.8984 3.793 4.5625 5.5117 7.7695-3.207-0.17969-6.7305-0.26953-10.434-0.089843zm2.3945-22.359-0.089844-0.22656c-0.22656-0.72266-0.49609-1.4453-0.85938-2.3477 0.85938 0 1.7148-0.22656 2.5312-0.72266 0.94922-0.54297 1.7148-1.2188 2.3945-1.9414 2.5312 1.8516 5.2383 3.4336 8.1758 4.5625 0.089844 0 0.13672 0.046876 0.22656 0.089844-0.31641 0.26953-0.63281 0.54297-0.90234 0.90234-0.94922 1.1289-1.625 2.7109-1.9414 4.2461-0.49609-0.40625-1.0391-0.8125-1.6719-1.2188l-0.58594-0.31641c-0.99219-0.54297-2.0781-1.1289-2.7539-1.3984-1.3555-0.54297-2.8906-1.0859-4.5156-1.625zm48.109 11.293c3.207-3.2969 6.4141-5.8711 9.8477-7.8164 3.6133-2.0312 7.1367-3.1602 10.523-3.3867l-0.13672 4.293c-6.2344 0.58594-11.836 4.6992-15.629 8.3555-2.0312 0.17969-4.0664 0.26953-6.1875 0.40625 0.54297-0.63281 0.99219-1.2656 1.582-1.8516zm22.133-2.9805c0.58594 0 1.0391-0.17969 1.4453-0.54297s0.63281-0.85938 0.63281-1.3984l0.22656-7.6797c1.1758 1.9883 2.3945 4.3359 3.1172 6.2773 0.13672 0.58594 0.40625 1.5352 0.49609 1.5352 0 0-0.13672 0.13672-0.36328 0.36328-1.582 1.1289-4.7422 2.2148-7.2734 3.0703-2.7109 0.90234-5.4219 1.5352-8.4453 1.9883 3.5703-2.4375 7.0938-3.7031 10.207-3.6133zm3.207-22.945s-0.17969-0.089843-0.26953-0.089843c-2.125-0.58594-5.0586-0.22656-7.9961 0.67578 0.046875-1.2656-0.13672-2.6641-0.54297-3.9766 0.99219 0.63281 2.0781 1.0859 3.2539 1.3555 1.3984 0.26953 3.0703 0.31641 4.3828 0.31641h1.7617 0.76953c-0.54297 0.58594-0.99219 1.1758-1.3555 1.8086zm7.1836-9.168c0.85938-0.45312 1.625-0.26953 1.9883-0.089843 0.63281 0.26953 1.0859 0.85938 1.0859 1.3086 0 0.13672-0.13672 0.26953-0.26953 0.45313-0.85938 0.22656-1.7617 0.58594-2.7109 1.0859 0-1.0391-0.046875-2.0312-0.13672-2.7539zm-22.902-38.895 2.7539-2.8008c0.26953 0.49609 0.58594 0.99219 0.94922 1.3984-1.0391 0.72266-1.9414 1.7148-2.5312 2.9375l-1.2188-1.5352zm13.418 21.684c-0.40625-0.8125-1.7617-3.2969-2.6641-5.375v-0.046875c-0.22656-0.45312-0.40625-0.94922-0.58594-1.3086 0-0.13672 0.36328-0.72266 1.3555-1.2188 1.3984-0.72266 3.6133-1.0859 5.6914 0 2.8477 1.4453 5.1055 3.75 5.7383 5.7812 0.26953 0.94922 0.22656 1.7617-0.22656 2.4844-0.63281 1.0859-1.8086 1.8086-3.2539 1.9883-2.125 0.26953-4.293-0.58594-6.0547-2.2578zm-3.2539-19.289c1.8516 1.1758 2.168 2.6641 2.0781 3.75-0.089844 1.4453-0.90234 2.3945-0.94922 2.5312-1.1289-0.13672-4.3359-1.7617-7.0938-3.3438 0.13672-1.582 0.85938-2.9375 1.8516-3.5234 0.54297-0.31641 1.0859-0.36328 1.6719-0.26953 0.90234 0.40625 1.7617 0.72266 2.3945 0.94922zm12.379 7.3164c0.58594 1.1289 1.1289 1.7148 1.582 2.168 0.58594 0.63281 1.1289 1.1758 1.7148 4.3828-1.3555-2.3945-3.75-4.6094-6.8203-6.1875-1.1289-0.58594-2.3047-0.90234-3.4766-1.0391 0.089844-0.22656 0.22656-0.40625 0.26953-0.63281 0.63281-1.8086 0.63281-4.1992-0.49609-6.3242 0.31641-0.13672 0.58594-0.31641 0.85938-0.49609 3.7031 3.2969 5.2383 5.8711 6.3711 8.0859zm-8.6719-15.676c1.0391 2.0312 0.76953 3.4766 0.17969 4.1562-0.49609 0.58594-1.3555 0.76953-2.3047 0.49609-0.94922-0.54297-1.8516-0.85938-2.6641-1.0391-1.4922-0.76953-2.6211-1.7148-2.9375-2.6211-0.089844-0.31641-0.40625-1.2656 0.90234-2.9805 0.54297-0.72266 1.582-1.1289 2.7539-0.99219 1.6719 0.13672 3.1602 1.2656 4.0664 3.0703zm-26.109-34.465c0.67578-0.13672 1.2656-0.26953 1.7617-0.36328 0.54297 0.58594 1.4922 2.2578 1.8516 4.0664 0.13672 0.67578 0.13672 1.1289 0.089844 1.4453-0.45312-0.26953-0.94922-0.63281-1.3984-0.90234-2.2148-1.2656-4.3359-2.3047-6.4141-3.207 1.2188-0.45312 3.2539-0.85938 4.1992-1.0859zm-14.953-10.074c0.72266 0 1.625 0.13672 2.4844 0.54297 0.63281 0.26953 1.7148 0.94922 1.7617 2.0312 0.046875 1.4453-0.31641 2.6211-1.0859 3.4766-0.8125 0.85938-2.0312 1.3086-3.6133 1.3555-0.31641 0-0.8125 0-1.2656-0.99219-0.17969-0.45313-0.31641-0.99219-0.36328-1.5352 0.046875-0.90234 0-1.625 0-2.168 0.13672-1.1289 0.45312-2.125 0.72266-2.3945 0.17969-0.13672 0.67578-0.26953 1.3086-0.26953zm-6.1445 4.3828v0.36328c-0.13672 1.6719-0.40625 3.1602-0.67578 3.4766-1.3555 0.17969-3.75-1.2656-4.3359-2.168 0.63281-0.63281 2.7109-1.625 5.0156-1.6719zm-6.3242 7.8164c0.58594-0.046875 2.2148 0.13672 2.8906 0.22656 0.49609 0.046875 0.76953 0.089844 1.0391 0.089844 1.4453 0 3.0703-0.046875 4.7422-0.089844l2.9375-0.089844c3.3438 0 5.8711 0.85938 8.582 1.8516 2.3945 0.94922 4.832 2.125 7.4062 3.6133 4.1094 2.4375 8.8555 5.6445 12.875 10.434 1.0859 1.3086 1.8086 2.4844 2.3945 3.75 0.36328 0.76953 1.1758 2.7539 0.94922 4.832-0.36328 3.5703-2.3477 5.8281-4.3359 8.0391l-2.8906 2.9805c-0.36328 0.36328-0.76953 0.85938-0.99219 1.4453-0.54297 1.0859-0.26953 2.3945 0.54297 3.2539l1.8086 2.3047c0.67578 0.85938 1.3984 1.8086 2.0781 2.8008 0.13672 0.26953 0.26953 0.54297 0.54297 0.76953 2.168 2.9805 4.3359 6.3711 6.1445 10.117 1.3086 2.8008 2.2578 5.375 2.8477 7.9062 0.26953 1.2656 0.49609 2.6641 0.58594 4.2461l0.17969 4.0664c0.046875 0.72266 0.089844 1.0859 0.22656 1.625 0.26953 1.1758 1.2656 2.0312 2.5742 2.168 0.45312 0.089843 1.3086 0.046874 3.793 0h0.72266l0.089844 4.2461h-2.0781c-0.94922 0.089844-3.4766 0.13672-5.1484-0.17969-1.582-0.31641-2.8906-1.2188-3.4766-2.4844-0.8125-1.4453-0.94922-3.8867-0.99219-5.1484l-0.17969-4.1562c-0.089844-1.1289-0.22656-2.3047-0.49609-3.4766-0.49609-2.168-1.3086-4.5156-2.4844-6.957-1.8516-3.9297-4.4258-7.9062-8.3125-12.918l-1.1758-1.4922c-0.22656-0.31641-0.45312-0.58594-0.72266-0.90234-0.36328-0.40625-0.67578-0.8125-1.1289-1.4922-0.40625-0.58594-0.67578-1.2656-0.99219-2.0312-0.13672-0.67578-0.13672-1.3984 0.089844-2.2578 0.36328-1.582 1.8086-3.207 2.8906-4.3828l2.8008-2.8477c2.168-2.2578 3.2539-4.1992 3.207-5.2852 0.31641-1.7617-1.0859-4.1562-2.4375-5.7812-2.6641-3.2539-6.5938-6.4141-11.656-9.3945-2.3945-1.3555-4.6094-2.4375-6.8203-3.2969-1.2188-0.49609-4.3359-1.582-6.8672-1.582l-2.8906 0.089844c-1.625 0.046875-3.2969-0.046875-5.0586 0.089843-1.0859-0.089843-1.625-0.13672-2.0312-0.17969-0.63281-0.089844-1.0391-0.13672-1.9883-0.089844h-1.8086l-0.17969-4.2461h2.2578zm-2.4375 19.152c0.13672 0.40625 0.22656 0.90234 0.31641 1.3984l0.089844 0.40625c0.089844 0.72266 0.17969 1.582 0.089844 2.3945-0.089844 1.3984-0.67578 2.8008-1.7148 4.0195-0.8125 0.99219-1.4453 1.4922-1.9883 2.0312l-0.76953 0.67578c-0.85938 0.8125-1.625 1.5352-2.3477 2.3477-0.99219 1.0859-1.9883 2.2578-2.8906 3.5234l-3.5703-2.3945c1.0859-1.4453 2.2148-2.8008 3.3438-4.0664 0.8125-0.90234 1.7148-1.7617 2.5312-2.5312 0.90234-0.85938 2.0312-1.8984 2.168-2.125 0.58594-0.67578 0.90234-1.4453 0.90234-2.168 0-0.45312 0-0.72266-0.046875-1.0859 0-0.046875-0.089843-0.45312-0.089843-0.49609-0.046876-0.31641-0.13672-0.67578-0.22656-0.99219-0.58594-2.2148-1.3086-3.4336-2.7539-4.6523-2.8477-2.3945-7.9062-2.5312-11.609-1.8984-3.2969 0.54297-6.8203 1.625-10.66 3.3867l-1.9414-3.793c4.293-1.9414 8.1328-3.1602 11.926-3.793 2.4844-0.45313 5.0156-0.49609 7.5-0.17969 2.9375 0.40625 5.4648 1.3984 7.5 2.9805 2.168 1.625 3.6602 4.5625 4.1992 6.957zm-11.156-23.625c1.582 0.36328 2.3945 1.2656 2.4844 1.4922-0.13672 1.2188-0.8125 3.3867-2.3047 4.3359-0.58594 0.40625-1.3086 0.45313-2.125 0.36328-0.36328-0.85938-0.72266-1.7148-1.0859-2.5742-0.31641-0.8125-0.67578-1.6719-1.0391-2.5312 1.3086-1.4453 3.0703-1.3086 4.0664-1.0859zm-59.355-26.652c1.7617-0.36328 3.7031-0.54297 5.918-0.63281 2.2578 0 4.1562 0.13672 5.9609 0.40625 3.6602 0.49609 7.5898 1.6719 11.34 3.4336 3.793 1.7617 7.2266 3.8398 10.074 5.6016l0.58594 0.36328c2.9805 1.8984 6.0977 3.8398 8.8984 6.4609 2.8906 2.6211 5.375 6.0078 7.0938 9.5781 1.0859 2.2148 1.9883 4.3828 2.8008 6.5039 0.26953 0.67578 0.54297 1.3984 0.85938 2.0781l-3.9297 1.6719c-0.31641-0.76953-0.63281-1.5352-0.90234-2.2578-0.85938-2.168-1.7148-4.2461-2.6211-6.0977-1.582-3.2539-3.5703-5.9609-6.1875-8.3555-2.4844-2.3477-5.4648-4.1992-8.8086-6.3242-3.793-2.3945-6.7773-4.0664-9.5781-5.375-3.4766-1.582-6.7773-2.6211-10.164-3.0703-1.582-0.22656-3.2539-0.31641-5.375-0.36328-1.4922 0.046874-3.2539 0.17969-5.1484 0.54297-5.8281 1.1289-11.066 2.8477-17.707 5.918l-2.6211-3.4766c5.8281-2.6641 12.242-5.1953 19.605-6.6406zm-37.855-0.17969 0.58594 0.31641c2.3047 1.2188 4.5156 2.5742 6.7305 4.1094 1.0859 0.72266 2.125 1.5352 3.207 2.3945 0.45312 0.36328 0.85938 0.72266 1.2656 1.1289-1.2188-0.49609-2.4844-1.0391-3.75-1.6719-5.0586-2.3945-8.9453-4.7422-11.383-6.8203-0.13672-0.17969-0.31641-0.31641-0.76953-0.76953-0.089843-0.089844-0.17969-0.22656-0.26953-0.31641-0.17969-0.22656-0.40625-0.45312-0.67578-0.58594 1.8984 0.63281 3.4336 1.3984 5.0586 2.2578zm-9.5781 4.8789c-0.31641-0.31641-0.63281-0.58594-0.99219-1.0391l-0.72266-0.90234c-0.26953-0.49609-0.54297-1.0391-0.72266-1.5352-0.13672-0.40625-0.22656-1.3984-0.089844-1.9883 0.22656-0.67578 0.45312-1.0859 0.76953-1.3984 0.40625-0.40625 0.76953-0.58594 1.0391-0.72266 0.76953-0.22656 1.3086-0.31641 1.7148-0.31641 0.36328 0 0.63281 0.046875 0.90234 0.089843 0.26953 0 0.49609 0.089844 0.49609 0.046876 0.45312 0.089843 0.85938 0.22656 1.2656 0.31641-0.72266-0.046875-1.4922 0.26953-1.8984 0.90234-0.31641 0.54297-0.36328 1.1289-0.17969 1.6719 0.089843 0.40625 0.36328 0.8125 0.72266 1.0859 0.17969 0.22656 0.40625 0.40625 0.58594 0.63281l0.45313 0.45313c2.9375 2.4844 7 4.9688 12.469 7.543 4.2461 1.9883 8.2656 3.5234 11.969 4.5156l-0.58594 2.6211c-0.99219-0.45312-2.125-0.90234-3.5234-1.2188-0.67578-0.13672-1.3086-0.17969-1.9883-0.22656h-0.58594c-0.45312 0-0.85938 0.089844-1.3086 0.17969l-0.85938 0.13672c-1.582-0.63281-3.207-1.3086-4.9219-2.125-4.6094-2.2578-9.125-4.5625-13.461-8.2227l-0.63281-0.58594zm12.332 12.379c0.45312 0.22656 0.85938 0.36328 1.2656 0.54297-0.26953 0.13672-0.63281 0.26953-0.90234 0.40625-1.1758 0.54297-2.168 0.99219-3.1602 1.3086-0.99219-2.168-2.3047-4.5156-4.293-6.0078 2.3477 1.3555 4.6992 2.5742 7.0938 3.7031zm-6.8672 3.1172h-1.3086l-4.7422-0.13672h-1.5352c0.45312-1.9883 1.3984-4.293 2.7109-4.293 2.2578 0 3.5234 1.6719 4.9219 4.3828zm-18.43-6.7305c3.5703-0.63281 6.7773 0.13672 8.0391 1.1758 0.22656 0.17969 0.36328 0.36328 0.40625 0.49609-0.99219 1.6719-1.4453 3.6133-1.6719 4.8789-3.4766 0-7.1367 0.089843-10.887 0.40625-0.13672-0.85938-0.089843-1.8984 0.17969-2.8906 0-0.046875 0.046875-0.13672 0.046875-0.17969 0.13672-0.45312 0.26953-0.90234 0.54297-1.3555 0.76953-1.3984 1.8984-2.2578 3.3867-2.5312zm-18.387 1.8516c1.5352-1.3555 6.0078-1.9883 8.8086-0.76953 1.4453 0.63281 1.7148 1.3984 1.7617 1.8984-0.40625 1.4453-0.49609 2.9375-0.31641 4.3828-3.9766 0.54297-7.4531 1.3555-10.66 2.4844-0.63281 0.22656-1.1758 0.49609-1.8086 0.76953-1.8086-4.0195-0.54297-6.3242 2.2148-8.7188zm-11.34 17.844c-0.94922-0.8125-1.4922-1.8984-1.582-3.1602-0.089844-1.5352 0.54297-3.1172 1.7148-4.4258 1.582-1.6719 3.6602-1.625 4.7422-1.4453 0.17969 0.58594 0.40625 1.1758 0.72266 1.7617-2.168 1.3555-3.9766 2.9375-5.4219 4.832-0.31641 0.40625-0.45312 0.94922-0.40625 1.4922 0.089844 0.54297 0.36328 0.99219 0.76953 1.3086l1.3984 1.0391c-0.45312 0.046875-0.85938 0.13672-1.3086 0.22656 0-0.58594-0.17969-1.1758-0.67578-1.582zm7.2734 4.5625 3.0273-0.45312 5.7812-0.8125c5.375-0.72266 10.48-1.3984 16.125-1.625l-0.089843 4.2461c-5.4648 0.22656-11.43 1.0391-17.211 1.8086l-1.3086 0.17969c-7 0.99219-13.102 1.9414-18.656 2.8906l-0.8125-4.1992c4.4258-0.76953 8.7617-1.4453 13.145-2.0781zm-17.48 0.63281v0.22656l1.582 8.0859c0.17969 0.94922 1.0391 1.625 1.9883 1.625h0.36328c6.0078-1.0859 12.691-2.125 20.461-3.207l1.3086-0.17969c0.63281-0.089844 1.2656-0.17969 1.8984-0.26953-0.17969 0.58594-0.26953 1.0859-0.31641 1.4922-0.13672 2.3047 1.0391 4.6094 2.5312 6.1875-0.36328 0.94922-0.49609 2.0312-0.31641 3.1172 0.8125 4.293 2.9805 7.9492 5.7812 9.7578 0.40625 0.26953 0.76953 0.40625 1.1758 0.58594-0.90234 1.6719-1.5352 3.1172-1.7148 3.793-0.58594 2.168 0.54297 4.4258 2.0312 6.2773-0.85938-0.046875-1.7148-0.13672-2.5742-0.17969l-13.824-1.0859-2.3945-0.13672c-1.9414-0.13672-3.8398-0.22656-6.0078-0.17969 0.49609-0.8125 0.94922-1.7148 1.3555-2.7109 1.0391-2.8477 1.0391-6.2773 0-9.168-0.046875-0.13672-0.13672-0.36328-0.22656-0.49609 0.26953 0.089843 0.54297 0.17969 0.8125 0.26953 0.67578 0.17969 1.3086 0.26953 1.8984 0.36328-1.3086 1.9883-1.3984 4.2461-1.2656 6.4609 0.089844 1.1758 0.31641 2.8477 1.582 3.8867 0.90234 0.76953 2.0312 0.99219 3.3867 0.99219 0.85938 0 1.8086-0.089844 2.8906-0.17969l1.3984-0.13672c5.1055-0.45312 5.8281-4.0664 6.2344-6.2344 0.13672-0.72266 0.26953-1.4453 0.54297-1.9414 0.72266-1.5352 0.45312-3.1602-0.67578-4.4727-1.4453-1.6719-4.1094-2.5312-6.5508-2.3945 0.72266-1.5352 1.2656-3.75 0.8125-5.6914-0.31641-1.3555-1.0859-2.3945-2.168-2.9805-3.6602-1.9414-9.125-2.2148-12.285-0.58594-1.5352 0.8125-2.4844 2.0312-2.6641 3.5234-0.089843 0.54297-0.089843 1.0859-0.089843 1.582-2.125-1.3984-4.1992-2.168-5.8281-2.8008-0.94922-0.36328-1.8086-0.67578-2.3047-0.99219-0.58594-0.36328-0.72266-0.54297-0.99219-1.0859-0.22656-0.45312-0.45313-1.3555-0.45313-2.5312-0.089843-2.125 0.54297-4.6992 1.7148-6.9102 0.31641-0.63281 0.67578-1.1758 1.0391-1.6719zm22.812 24.121c0.94922-0.26953 2.3477-0.089844 3.3438 0.45312 0.54297 0.31641 0.72266 0.58594 0.72266 0.67578-0.45312 0.94922-0.63281 1.9883-0.8125 2.8906-0.40625 2.125-0.54297 2.8477-2.6641 3.0273l-1.4453 0.13672c-1.3086 0.13672-2.9375 0.26953-3.2539 0.17969 0 0-0.17969-0.22656-0.22656-1.1758-0.17969-3.207-0.089843-4.9219 4.3359-6.1875zm-3.4766-5.1484c-0.72266 0.99219-1.2656 1.7148-4.5156 0.94922-2.9375-0.72266-4.1992-2.3477-3.8867-5.0156 0-0.13672 0.31641-0.36328 0.54297-0.49609 0.76953-0.40625 1.9414-0.58594 3.2969-0.58594 1.7617 0 3.75 0.36328 5.2383 1.1758l0.94922-1.7617-0.76953 2.125c0.26953 1.0859-0.36328 2.9805-0.85938 3.6602zm-29.09-28.098c0.72266-0.40625 1.4922-0.63281 2.2148-0.8125-0.17969 0.13672-0.36328 0.31641-0.49609 0.45313-1.582 1.582-2.8906 3.4336-4.0195 5.6445-0.13672 0.26953-0.22656 0.49609-0.31641 0.76953v-1.9883c0.13672-1.8086 0.99219-3.1602 2.5742-4.1094zm-16.035 13.191c0.13672-2.4844-1.1289-4.1094-2.0312-5.332-1.1289-1.4922-1.2188-1.582-0.089844-2.8477 2.5742-2.8906 9.8477-3.8398 11.656-3.207 0.046875 0.13672 0.17969 0.22656 0.26953 0.31641-0.13672 0.54297-0.26953 1.0391-0.31641 1.625-0.26953 3.4766 0.22656 5.8711 1.5352 7.3164 0.13672 0.17969 0.31641 0.26953 0.45312 0.40625-0.31641 1.3984-0.49609 2.8008-0.58594 4.1992-2.8906-0.13672-9.168-0.45312-10.66-2.0781-0.13672-0.17969-0.17969-0.26953-0.17969-0.45312zm20.148 15.176c-1.7148-0.94922-3.3867-2.8008-4.1562-4.6094-0.8125-1.7617-1.1758-3.5703-1.2188-5.7812-0.089844-3.7031 0.76953-7.2734 2.5742-10.84 0.94922-1.8516 1.9883-3.3438 3.2969-4.6523 0.8125-0.8125 1.9414-1.8086 3.4766-2.5312l0.94922 4.3359c-1.582 1.0859-3.1172 3.0273-3.9297 4.7891-1.4453 2.7539-2.2148 5.9609-2.125 8.7188 0 1.5352 0.31641 3.0703 0.85938 4.1992 0.58594 1.2188 1.2656 1.9883 2.3945 2.6641 0.8125 0.58594 1.8984 0.94922 3.1172 1.3984 1.8984 0.67578 4.293 1.582 6.4609 3.4336 1.3984 1.2188 2.6211 3.0273 3.3867 5.0156 0.72266 1.9883 0.67578 4.4727 0 6.3711-1.5352 3.75-3.8398 6.0078-6.0977 8.1758l-2.7539 2.5742c-1.8984 1.7148-3.6602 3.3867-5.1484 5.1055-1.2188 1.3984-2.0312 2.6211-2.4844 3.6133l-0.99219 1.7617c-0.17969 0.31641-0.31641 0.58594-0.49609 0.76953l-0.67578 0.76953c-0.40625 0.49609-0.8125 1.0391-1.3555 1.4453-4.0195 3.6133-8.2656 6.0078-12.379 8.2656-1.8086 0.99219-3.5703 1.9883-5.2383 3.0703-1.3555 0.85938-2.7539 1.7617-3.9297 2.7109-0.58594 0.49609-0.85938 1.3086-0.67578 2.0312 0.17969 0.76953 0.8125 1.3086 1.582 1.4453l2.5312 0.40625c1.3086 0 3.4766 0 5.2383 0.45312-2.125 1.3555-4.2461 2.6641-6.2773 3.75h-0.72266c-1.1289 0.046875-2.0781 0.089844-3.8867-0.22656-0.54297-0.089843-0.90234-0.17969-1.4922-0.49609-0.36328-0.17969-0.72266-0.36328-0.8125-0.36328-0.36328-0.26953-0.67578-0.58594-0.99219-0.94922-1.3086-1.5352-1.1289-3.3867-0.99219-4.0195 0.67578-2.6641 2.0312-3.8867 3.3867-5.0586l0.31641-0.26953c1.4922-1.2188 2.9805-2.168 4.4258-3.1172 1.7617-1.0859 3.5234-2.0781 5.2852-3.0703 4.3359-2.4375 8.4453-4.7891 11.562-7.6328 0.22656-0.17969 0.40625-0.45312 0.49609-0.72266 1.625-4.0664 6.2344-8.4453 10.301-12.332 5.1055-4.8789 9.168-8.7188 8.7188-12.559v-0.089844c-0.22656-1.5352-1.1289-2.8008-2.7539-3.793-0.99219-0.94922-2.3945-1.4922-4.1094-2.125-1.3555-0.54297-2.9375-1.1289-4.6523-2.0781zm-23.082 29.363c0.90234-0.72266 2.5312-2.0312 3.9297-3.3438 1.4922-0.54297 2.9375-0.76953 3.8867-0.67578 0 0.8125 0.046875 1.625 0.26953 2.4375 0.49609 1.6719 1.5352 3.0703 2.9805 4.0664-2.3047 1.8516-5.1953 3.5703-8.2656 5.332-1.9883-1.4922-3.1172-4.4258-2.8477-7.7695v-0.089844zm25.793-18.477c1.7148-0.90234 3.3438-1.3086 4.5625-1.1758-0.90234 2.0781-4.3359 5.375-7.2266 8.1328l-0.45312 0.45312c-0.54297-0.67578-1.1289-1.6719-1.1289-3.0273 0-0.85938 1.4453-2.8906 4.2461-4.3359zm-11.609 9.8477c0.31641 0.17969 1.0391 0.94922 1.5352 1.5352 0.45312 0.49609 0.90234 1.0391 1.4453 1.5352-1.3984 1.5352-2.6641 3.1602-3.7031 4.7891-0.67578-0.49609-1.2656-1.1289-1.4922-1.8984-0.45312-1.4453 0-3.207 1.1758-4.7422 0.63281-0.85938 1.0391-1.1289 1.0391-1.1758zm-4.2461-1.2188c-0.49609 0.63281-0.90234 1.3086-1.2188 1.9883-0.58594-0.089844-1.2188-0.13672-1.8984-0.089844 0-0.54297-0.13672-1.1289-0.49609-1.8516-0.31641-0.63281-0.72266-1.3086-1.2656-1.9414 0.31641 0.089844 0.67578 0.13672 0.94922 0.22656 1.1289 0.26953 2.168 0.54297 3.207 0.54297 0.67578 0 1.3984-0.13672 2.125-0.45312-0.54297 0.49609-1.0391 1.0391-1.3984 1.5352zm3.4766-14.273c1.0391 0.54297 0.94922 0.94922 0.90234 1.1289l-0.089844 0.31641c-0.63281 2.2578-1.4922 5.332-3.5234 7.0469-1.0859 0.90234-1.3555 0.90234-3.7031 0.31641-0.90234-0.22656-1.9883-0.49609-3.3867-0.72266-0.22656 0-0.31641-0.089844-0.36328-0.089844-0.046875-0.31641-0.089844-2.125 4.4727-7.7695 0.72266-0.90234 3.75-1.1758 5.6914-0.17969zm-26.605 3.9297c-0.31641 0-0.54297 0.089844-0.72266 0.089844-0.36328 0.089843-1.9883 0-2.8477-0.90234-0.67578-0.72266-0.8125-1.9883-0.40625-3.75 0.67578-2.8477 2.9375-3.3867 4.2461-3.4766h0.26953c1.582 0 2.7109 0.67578 2.8008 0.94922 0.45312 6.5938-1.9414 6.8672-3.3438 7.0469zm8.5391-3.0703c-0.90234-0.67578-1.1289-1.2188-1.1289-1.3555-0.089844-4.1992 0.72266-5.6016 3.2969-5.7812 2.7539-0.22656 4.6094-1.1758 6.0977-1.9883 1.6719-0.85937 2.3945-1.2188 3.8867-0.58594 0.40625 0.99219-0.36328 3.4766-1.1289 5.1953-0.67578 0.36328-1.2656 0.8125-1.7617 1.3555-1.3984 1.7617-2.5312 3.2969-3.3438 4.6992-2.125 0.26953-4.4727-0.49609-5.8711-1.582zm-1.8984 15.719c0.26953-0.36328 0.49609-0.76953 0.72266-1.1289 1.1289-1.8516 1.7148-2.7109 3.4766-2.7109h0.45312c2.3945 0.17969 4.4727 2.5742 4.7422 3.5703-0.26953 0.26953-0.67578 0.72266-1.1758 1.1289-0.40625 0.17969-0.85937 0.31641-1.2188 0.54297-1.2656 0.72266-2.3047 1.582-3.0273 2.5312-2.4375-1.1289-4.0664-3.3438-3.9766-3.9297zm-19.109-2.8477c1.2656-0.76953 2.8906-1.0391 3.9766-1.0391 0.36328 0 0.67578 0 0.90234 0.089844 1.3555 1.9414 2.8906 5.0586 2.3945 6.3711-0.24219 0.63281-0.70703 1.0234-1.3984 1.1758-0.72266 0.13672-1.7617 0.40625-2.9805 0.99219h-0.046875c-0.089844 0.046875-0.17969 0.046875-0.26953 0.089844-0.13672 0.046875-0.45312 0.22656-1.1758-0.22656-1.3984-0.90234-2.8477-3.2969-2.7109-5.6914 0-0.26953 0.046875-1.0391 1.3555-1.8086zm-2.3047 26.199c-1.9414-2.125-6.5508-7.2266-5.375-9.5312 0.90234-1.8086 3.0273-3.3438 4.5625-3.3438 0.40625 0 0.85938 0.13672 1.2188 0.99219l0.26953 0.63281c1.5352 3.5703 3.8398 8.8984 4.0195 11.562-0.8125 0.22656-2.8477 0.089844-4.6992-0.26953zm7.9961-9.0781c-1.3555-2.168-1.8984-5.1953-1.5352-5.7383 1.7148-0.58594 3.75-0.85938 4.7422-0.94922 0.22656 0.13672 0.45312 0.26953 0.67578 0.36328 0.45312 0.26953 1.1289 0.58594 1.1758 0.63281 0 0 0 0.31641-0.45313 1.1758-1.3555 2.5312-4.0664 4.4258-4.6523 4.5156zm10.84 1.8086c3.0273-1.5352 5.7383-1.7148 6.1875-1.4922 0.17969 0.22656 0.36328 0.40625 0.58594 0.54297 0.45312 0.85938 0.99219 1.582 1.625 2.2578-1.0391 0.58594-2.0312 1.1758-3.0703 1.8086-1.625 0.99219-3.207 2.0312-4.9688 3.4766l-0.36328 0.31641s-0.36328 0.31641-0.54297 0.49609c-2.168-0.40625-3.1602-1.7617-2.9805-4.3359 0-0.54297 1.0391-1.8086 3.5234-3.0703zm-4.6094 37.582 4.1992 1.3555c0 0.58594 0 1.4453 0.76953 2.2148 0.17969 0.17969 0.36328 0.31641 0.58594 0.40625l10.977 5.332c2.3047 2.7539 4.9688 4.5625 7.1367 6.0078 0.63281 0.40625 1.2188 0.8125 1.7617 1.2188 0.36328 0.26953 0.76953 0.36328 1.1758 0.36328h0.31641c0.54297-0.089843 0.99219-0.36328 1.3086-0.8125l0.40625-0.58594c4.0664 2.125 8.3555 4.4258 12.691 7.0938l-2.3945 3.5234c-6.0977-3.75-12.828-7.1836-19.332-10.523l-12.469-6.1875-3.3867-1.582c-1.3555-0.63281-2.7109-1.2656-3.2969-1.9414-0.94922-1.2188-1.0859-3.1602-0.45312-5.918zm-4.4727-2.4375c-0.94922 0.76953-2.8906 1.7148-4.5156 1.582-0.76953-0.046875-1.2656-0.36328-1.625-0.94922-0.99219-1.625-1.0859-4.1094-0.17969-5.2383 0.13672-0.17969 0.49609-0.58594 1.3555-0.58594 0.36328 0 0.76953 0.046875 1.3555 0.22656 3.2969 1.0859 3.6133 3.75 3.5703 4.9688zm-14.547-17.391c-0.58594 0.85938-1.1758 1.3555-1.625 1.3555-0.36328 0-1.2188-0.54297-1.9883-1.4922-0.54297-0.67578-0.40625-0.94922-0.31641-1.0859 0.49609-0.90234 2.3047-1.8086 4.0195-2.0312 0.22656 1.3086 0.26953 2.7109-0.089844 3.2539zm4.2461 5.7383s-0.046875-0.26953 0.22656-0.49609c0.26953-0.17969 0.63281-0.31641 1.1289-0.31641 0.31641 0 0.67578 0.046875 1.0391 0.22656 0.31641 0.40625 0.45312 1.582 0.36328 2.2578-1.1289-0.13672-2.4844-0.63281-2.7109-1.6719zm5.332 20.555c-0.17969-1.3086 0.90234-2.0312 1.3984-2.2578 0.45312-0.22656 1.0391-0.40625 1.625-0.40625 0.58594 0 1.1758 0.17969 1.625 0.58594 0.49609 0.45312 0.67578 0.85938 0.76953 1.1758v0.13672 0.31641c-0.089844 1.2188-1.4922 2.6641-2.7539 3.5234-0.36328 0.22656-0.67578 0.26953-0.99219 0.13672-0.63281-0.26953-1.4453-1.2656-1.6719-3.1172zm10.117 11.746c-0.26953 0.17969-0.85938 0.45313-1.7148 0.58594-1.1289 0.17969-2.0781 0-2.4375 0h-0.13672c-0.046875-0.54297-0.22656-1.1758-0.40625-1.8516-0.54297-2.0781-0.8125-3.5703 0.26953-4.7422 0.22656-0.17969 0.40625-0.36328 0.67578-0.54297 0.40625-0.26953 0.85938-0.54297 1.4922-0.76953 0.40625-0.17969 0.94922-0.31641 1.1758-0.089844 0.99219 0.76953 1.3555 4.3828 1.0859 7.4531zm4.0664-3.1172c0-0.8125-0.089844-1.625-0.26953-2.4375l1.8516 0.90234c-0.54297 0.45312-1.0859 0.99219-1.582 1.5352zm37.039 26.246c-1.0391-0.67578-2.168-1.1758-3.6602-1.7148-2.3945-0.85938-5.0586-1.625-7.6328-2.3477l-1.4453-0.40625c-2.8008-0.8125-5.6445-1.582-8.4922-2.5742-2.8906-1.0391-5.918-2.0781-9.0781-4.1562-0.40625-0.22656-0.99219-0.76953-1.4922-1.2188l-0.40625-0.31641c-0.90234-1.0859-1.4922-1.9414-1.8086-2.6641-1.1758-2.3945-1.625-4.293-1.3086-5.7812 0.31641-1.625 2.168-3.4336 3.9297-4.5625l4.2461 2.0781-1.8086 1.6719c-0.76953 0.54297-1.2188 1.4922-1.3984 2.9805-0.13672 0.76953 0 1.3555 0.26953 1.8984 0.22656 0.49609 0.45312 0.8125 0.63281 0.99219 0.17969 0.31641 0.49609 0.58594 0.76953 0.76953 0.22656 0.22656 0.58594 0.54297 0.99219 0.76953 1.7617 1.1758 4.2461 2.3047 7.8594 3.5234 2.8008 0.94922 5.7383 1.8086 8.7188 2.6211l1.3555 0.36328c1.0391 0.31641 2.0781 0.58594 3.1602 0.90234 0.17969 0.17969 0.45312 0.31641 0.67578 0.40625 0.22656 0.046875 0.40625 0.089844 0.63281 0.089844h0.13672c1.0391 0.31641 2.0781 0.63281 3.1172 1.0391 1.0859 0.36328 2.6211 1.0391 4.1094 1.9414 0.67578 2.4375 1.7617 5.1484 3.0273 7.6797-0.49609-0.36328-0.99219-0.72266-1.5352-1.1758-1.2656-1.0859-2.3047-1.9414-3.4766-2.7539zm38.262 1.9883c-2.6211 2.9375-9.7578 4.3828-13.867 4.9219l0.26953-4.9219v-0.26953c0-0.36328 0-0.67578-0.13672-1.0391-0.40625-0.85938-0.54297-1.582-0.36328-1.9883 0.40625-0.8125 2.2578-1.2656 3.1602-1.4922 0.45312-0.089844 0.8125-0.22656 1.0859-0.31641 1.3555 0.90234 2.8906 1.582 4.4258 1.8516 1.625 0.31641 2.8906 0.31641 3.8867 0.36328h0.99219c1.3984 0.046875 1.8984 0.36328 1.9883 0.40625 0.046874 0.26953 0.13672 0.85938 0.17969 1.7617-0.58594 0-1.1289 0.17969-1.5352 0.63281zm6.6836 7.9062c-0.22656-0.45312-0.40625-0.94922-0.54297-1.3086-0.49609-1.625-0.49609-2.9805-0.54297-4.4727 0.13672-5.1953-0.49609-6.3711-0.94922-6.8672-0.90234-1.2656-2.6211-1.9414-5.0156-2.0781h-1.1289c-0.90234 0-1.9414 0-3.2539-0.26953-1.6719-0.31641-3.3867-1.2656-4.5156-2.5742-1.1289-1.2188-1.8516-2.7539-2.3945-3.8867-0.54297-1.1289-1.1289-2.3047-1.7617-3.4336-1.3086-2.3945-2.6641-4.5625-4.0664-6.4609-1.6719-2.3047-3.3438-4.1094-4.9219-5.4219-0.90234-0.72266-1.8516-1.3086-2.9375-1.7148-0.13672 0-0.26953-0.089844-0.40625-0.13672l-1.1758-4.4258c1.3086 0 2.4844 0.31641 3.207 0.58594l0.54297 0.22656c0.54297 0.22656 1.0859 0.54297 1.625 0.85938 1.2656 1.9883 2.8008 3.4336 4.4727 4.1094 0.22656 0.13672 0.40625 0.17969 0.63281 0.31641 0.94922 1.0859 1.7617 2.125 2.4844 3.1172 1.4922 2.0781 2.9375 4.3359 4.3359 6.9102 0.63281 1.2188 1.2656 2.3945 1.8516 3.6133 0.67578 1.4922 1.0859 2.168 1.6719 2.8477 0.63281 0.67578 1.3086 1.0859 2.2148 1.2656 0.49609 0.13672 1.4453 0.17969 2.6211 0.22656h1.1289c2.7109 0.046875 6.5508 1.1758 8.4922 4.1562 0.49609 0.90234 0.85938 1.7617 1.0391 2.5312 0.22656 0.8125 0.31641 1.582 0.36328 2.3047 0.089843 1.0859 0.089843 2.0781 0.089843 2.9805v1.0859c0 1.4922 0.13672 2.6211 0.36328 3.3438 0 0.089843 0.046876 0.13672 0.089844 0.22656-0.67578 0.67578-1.3086 1.3984-1.9883 2.2148-0.31641 0.40625-0.54297 0.8125-0.8125 1.2188-0.40625-0.49609-0.8125-0.94922-0.85938-1.0391zm27.602 10.434c-3.7031 1.4453-6.8203 2.3047-9.8008 2.7539-0.85938 0.13672-1.7148 0.22656-2.7109 0.26953h-1.3086c-0.36328 0-0.8125 0-1.4922-0.089843-2.6211-0.17969-4.9688-0.85938-6.5938-1.8516-1.6719-0.94922-2.7109-2.4375-2.8008-4.0195-0.089844-1.6719 0.58594-3.4766 1.9883-5.2852 0.8125-1.0391 1.6719-1.8984 2.5312-2.7109 0.8125-0.76953 1.4453-1.2656 2.125-1.8086 1.1289-0.90234 2.5312-1.9414 4.2461-2.9375 1.2656-0.72266 3.0273-1.625 5.1484-2.0781 1.9883-0.45312 4.1562-0.26953 5.918 0.36328 3.207 1.2188 5.2852 3.4766 6.9102 5.918l-3.7031 2.125c-1.0859-1.5352-2.7109-3.3867-4.6094-4.0195-2.0781-0.8125-4.6992-0.31641-7.543 1.3555-1.3984 0.8125-2.8008 1.8516-3.7031 2.5742-0.45312 0.31641-0.90234 0.72266-1.2656 1.0391l-0.36328 0.31641c-0.26953 0.22656-0.49609 0.45312-0.72266 0.72266-0.45313 0.54297-1.1289 1.3555-1.2188 2.4844-0.13672 1.3984 0.76953 2.6641 2.2148 3.1602 0.63281 0.26953 1.4453 0.45312 1.8086 0.40625 0.31641 0.089844 0.54297 0.089844 1.4922 0.089844h0.8125c0.72266 0 1.4453-0.13672 2.2578-0.22656 2.6211-0.40625 5.5547-1.2188 8.8984-2.5312 0.58594-0.22656 1.1758-0.45312 1.7617-0.72266 0.17969 0 0.40625-0.13672 0.58594-0.22656l0.13672-0.089844c0.63281-0.26953 1.3086-0.54297 1.9414-0.85937l2.7539-1.2188c0.58594-0.26953 1.3086-0.54297 2.2578-0.76953 0.63281-0.13672 1.0859-0.17969 1.5352-0.13672 0.31641 0 0.67578 0.046874 0.94922 0.089843 0.22656 0 0.8125 0.046875 0.99219 0 0.046875 0 0.089844-0.046875 0.17969-0.089843 0.49609 0.31641 0.99219 0.63281 1.4922 0.94922 1.2188 0.72266 2.4844 1.4922 3.793 2.2578-1.3555 0.49609-2.8477 0.99219-3.5234 1.0391-0.94922 0.089844-1.8984 0.13672-2.7109 0.089844l-0.94922-0.089844s-0.76953 0-0.94922 0.046875c-0.26953 0.046875-0.54297 0.13672-1.8984 0.67578l-2.168 0.94922c-1.4922 0.67578-3.0273 1.3086-4.6094 1.9414zm-3.2969-7.5898c-2.9375 1.1289-5.5117 1.8516-7.7227 2.2148-0.63281 0.089844-1.2656 0.17969-1.9883 0.17969h-0.8125-0.45312l0.22656-0.17969c0.26953-0.26953 0.67578-0.58594 1.0859-0.90234 1.1758-0.94922 2.3047-1.7148 3.2969-2.2578 1.9883-1.1758 3.3867-1.3086 4.1562-1.0391 0.54297 0.17969 1.3555 0.85938 2.2578 1.9883zm14.141 7.9492c0.94922 0 1.8984 0 2.8477-0.089844 1.3555-0.13672 3.4336-0.90234 5.4648-1.625 0.90234-0.31641 1.7148-0.58594 2.3477-0.8125 3.2539 1.6719 6.7773 3.207 10.57 4.5156-8.0859 1.3984-15.945-0.40625-21.188-1.9883zm79.504 0c-0.089844 0.26953-0.45312 0.49609-0.72266 0.63281-2.4375 1.1758-8.0391 0.67578-12.828-0.49609 1.8086-0.94922 3.5703-2.0312 5.2852-3.2539 1.3555-1.0859 2.5312-2.0781 3.6133-2.9805 2.3047-1.9414 3.8867-3.2969 5.6445-4.0664-0.31641 1.5352-0.36328 3.207-0.40625 4.8789-0.046875 1.8984-0.13672 3.8867-0.54297 5.332zm13.73-16.488c-1.1758 1.4453-3.1172 1.9414-6.0547 1.6719-0.85938-0.089843-1.625-0.13672-2.3477-0.17969-0.45312-0.13672-0.90234-0.13672-1.3086 0.046875-4.7422 0.26953-7.5 2.5742-11.293 5.7812-1.0391 0.85938-2.168 1.8516-3.4336 2.8477-3.207 2.3477-6.8203 4.1562-10.391 5.2383-4.1094 1.2188-8.2227 1.582-11.34 1.7148-3.207 0.13672-6.2773 0.13672-9.3047 0.13672h-1.7617c-3.5703 0-7.2734-0.63281-11.43-1.8516-7.8594-2.3945-14.68-6.2344-20.281-9.668-4.6094-2.8477-8.9883-5.918-12.828-8.7617-0.13672-0.089844-0.22656-0.17969-0.36328-0.26953-1.1758-0.85938-2.3047-1.6719-3.3438-2.4844l0.54297-0.72266s0.089844 0.046874 0.17969 0.089843c2.8906 1.2188 5.4648 1.4453 7.7227 1.5352 8.4922 6.0977 18.566 12.738 29.633 16.215 3.7031 1.1289 7.0938 1.6719 10.207 1.6719h2.7539c2.7539 0 5.4648 0 8.1328-0.13672 4.1992-0.22656 7.5-0.72266 10.344-1.582 3.207-0.99219 6.1875-2.4844 9.125-4.6094 1.3555-0.99219 2.7109-2.125 4.0195-3.2969 1.1289-0.99219 2.8008-2.4375 4.7422-3.5703 1.8984-1.0859 3.8398-1.8516 5.7383-2.2578 1.0391-0.17969 2.125-0.31641 3.2539-0.31641h0.90234l1.6719 0.089844c0.63281 0.046875 2.2578 0.17969 3.2539-1.2656 0.72266-1.1289 0.63281-2.3945 0.54297-2.9805-0.26953-2.7109-1.1758-6.4141-2.3945-9.9375-0.49609-1.4453-1.0859-2.8008-1.625-4.1094l-0.45313-1.4453c-0.089843-0.31641-0.31641-0.58594-0.54297-0.8125-2.2578-4.9219-4.832-8.8555-7.7695-11.609l-1.625-1.2656s-0.31641-0.22656-0.45312-0.26953c-0.17969-0.046875-0.26953-0.13672-0.40625-0.22656-0.36328-0.22656-0.72266-0.45312-1.3086-0.63281l-1.1758-0.49609s-0.36328-0.13672-0.54297-0.22656c0.45312-1.2188 0.85938-2.6211 0.90234-4.1094 0.85937 0.31641 1.7148 0.63281 2.4844 0.94922 0.63281 0.22656 1.4453 0.72266 2.2578 1.1289l0.40625 0.22656c0.90234 0.63281 1.7617 1.3086 2.4844 1.9883 3.2969 3.1172 5.4219 6.6406 6.9102 9.3516 1.7617 3.2539 3.207 6.6406 4.4727 10.344 1.1758 3.5234 2.168 6.8203 2.6211 11.246 0.22656 3.2539-0.22656 5.4219-1.3984 6.9102zm4.6992-12.016c-0.45312-2.0781-0.94922-3.9766-1.5352-5.8281 0.17969 0 0.40625 0 0.58594-0.089844 2.7109-1.0391 5.8711-1.625 9.125-2.0781-0.63281 1.7617-1.3086 3.75-1.0859 7.0469-2.3945 0.36328-4.7891 0.63281-7.0469 0.90234zm17.57-8.8555c-0.45312 0.90234-0.85938 1.7617-1.1758 2.5742-0.31641 0.63281-0.45312 1.1758-0.63281 1.7148-0.046875 0.22656-0.13672 0.49609-0.22656 0.72266 0 0.046876 0 0.13672-0.046876 0.17969l-4.4727 0.85938c0.089844-1.5352 0.49609-2.6211 0.90234-3.793 0.13672-0.40625 0.31641-0.8125 0.45312-1.2656 0.089844-0.22656 0.089844-0.40625 0.089844-0.63281 1.3086-0.13672 2.6641-0.22656 3.9766-0.31641l1.1289-0.089843zm10.48 4.1094c0 2.0312-0.99219 4.2461-2.4375 5.7812-1.4922 1.3555-3.1172 2.3945-4.7891 3.0703-6.0977 2.4375-11.699 3.0703-17.664 3.793h-0.22656l-0.45312-4.1992c5.6445-0.63281 11.699-1.4922 16.488-3.4336 1.625-0.63281 2.7539-1.4922 3.3867-2.0312 0.13672-0.089844 0.22656-0.22656 0.36328-0.31641 0.49609-0.63281 0.99219-1.4453 1.0859-2.7109 0-1.2656-0.58594-2.8477-1.3984-4.3828 1.4922-0.089843 3.0273-0.17969 4.5625-0.31641 0.63281 1.582 1.0859 3.1172 1.1289 4.7422zm30.672-21.277c-0.31641 1.9883-1.9883 4.0195-3.4766 4.9688-2.8906 1.9414-5.5117 2.8477-8.2227 3.793l-1.3086 0.45312c-3.0703 1.0391-6.4609 1.8516-9.8477 2.3477-2.5312 0.36328-5.0586 0.63281-7.543 0.85938h-0.45312c-2.4844 0.22656-4.9688 0.36328-7.4062 0.49609h-1.0391c-0.49609-0.089844-1.0391-0.089844-1.5352 0.17969l-1.7148 0.089844c-5.6914 0.45312-11.562 0.90234-16.668 2.4844l-1.582-3.9766c5.5117-1.7617 10.93-2.168 16.215-2.6211l5.8711-0.40625c5.2852-0.31641 10.254-0.63281 15.176-1.3555 3.2969-0.49609 6.1875-1.1758 9.125-2.168 3.1172-1.0391 6.3242-2.2148 8.4023-3.6602 2.3047-1.8516 2.0781-3.207 1.3086-6.1875-0.76953-2.168-1.9883-4.5156-3.1602-6.5039l2.3047-1.3555c0.72266 0.40625 1.625 0.8125 2.5742 1.0391 0 0.13672 0.046875 0.31641 0.13672 0.45312 0.94922 1.8086 1.6719 3.3867 2.2148 4.9688 0.49609 1.6719 1.0859 3.6133 0.63281 6.0547zm0.90234-17.617c-0.54297 1.5352-1.3086 2.3477-2.2578 2.3945-0.17969 0-1.582-0.31641-3.2539-1.3984-1.6719-1.0859-2.6211-2.125-2.9805-2.8008 0-0.26953-0.089844-0.54297-0.13672-0.8125 0.17969-0.85938 1.3086-2.168 2.8008-3.4336 0.85938 0 1.7148-0.36328 2.3945-0.67578 0.90234-0.40625 2.125-1.1289 3.2539-2.0781 0.72266 1.582 1.3086 5.6016 0.22656 8.7617z"/>
</svg>
