<?xml version="1.0" encoding="UTF-8"?>
<svg width="752pt" height="752pt" version="1.1" viewBox="0 0 752 752" xmlns="http://www.w3.org/2000/svg">
 <g>
  <path d="m245.1 430.13 0.21094 0.027344c-1.3281 0.027344-3.0234 0.18359-4.6367 0.31641v-0.003906c1.6484 1.168 3.2344 2.4297 4.7383 3.7773 7.9414 7.1055 25.02-1.5859 32.559-5.5977 7.082-3.7461 9.8945-12.598-0.050781-15.281-6.5977-1.7578-13.465-2.2812-20.254-1.5352-7.3984 0.73828-14.762 1.9805-22.129 3.0703-0.88281 0.12891-21.504 2.4766-9.707 8.7188 0.55078 0.28906 1.0273 0.71094 1.375 1.2266 0.078125-0.23437 0.17578-0.46094 0.28906-0.67969 0.28125-0.49609 0.65625-0.92969 1.1094-1.2734 0.66406-0.50391 1.3906-0.91406 2.1602-1.2227 2.375-0.875 4.8516-1.4453 7.3711-1.6953 2.2891-0.25781 4.3984-0.38672 6.2891-0.44141 7.6562-0.21094 12.473 0.85938 12.316 1.5859v0.003906c-3.9883 0.76172-8.0234 1.2656-12.078 1.5078-1.8242 0.23438-3.8555 0.54688-5.9648 0.9375-2.1641 0.375-4.2852 0.97656-6.3242 1.7969-0.33984 0.17969-0.65234 0.37109-0.88672 0.51953 0.32422 0.10547 0.65625 0.1875 0.99219 0.23828 2.625 0.22656 5.2656 0.20703 7.8867-0.054687 1.6406-0.10547 3.1758-0.26172 4.9727-0.28906l0.28516 0.027344 1.5625 0.050781c0.625-0.050781 1.25-0.078125 1.875-0.12891 0.73828 0.027344 1.457 0 2.1875 0.050781l1.1719 0.26172 0.59375 0.12891 0.28906 0.078125 0.12891 0.050782 0.003906 0.003906c0.21484 0.082031 0.42188 0.17578 0.625 0.28516 0.38672 0.25391 0.73047 0.57031 1.0117 0.9375 1.1992 1.5078 1.457 3.4648 3.6445 3.5156 1.875 0.050781 6.3789-3.8281 7.6016-5.1016 2.1602-2.1602 2.2383-4.2422 1.2266-5.5195-0.37109-0.53906-0.79688-1.0352-1.2773-1.4805-0.33984-0.37109-0.46875-0.59766-0.41797-0.73828 0.050782-0.14062 0.33984-0.10547 0.83203 0.027344l0.003906-0.003906c0.75391 0.19922 1.4531 0.58203 2.0312 1.1094 1.082 0.89062 1.7109 2.2188 1.7188 3.6211-0.046875 1.7773-0.69922 3.4844-1.8516 4.8438-1.2148 1.5938-2.6953 2.9688-4.375 4.0664-0.93359 0.60938-1.918 1.1406-2.9414 1.5859-0.55078 0.23828-1.1172 0.44531-1.6914 0.625-2.2266 0.99609-4.8438 0.39453-6.4102-1.4727-0.86328-0.94141-0.57422-2.3164-1.9531-2.8906-1.3828-0.57422-4.4727 0.41406-6.1133 0.41406zm351.86-17.938c0.76172 2.9766 1.1094 6.043 1.0352 9.1133 0 0.32812-0.042969 0.64844-0.12891 0.96484v0.082031c-5.7031 34.207-39.672 49.332-68.445 59.695l-0.003907-0.003906c-18.043 6.25-36.938 9.6914-56.023 10.203-20.543 1.0391-40.871 3.957-61.418 5.0234-40.09 2.082-81.539 2.5898-121.42-2.5-18.953-2.418-38.66-5.3867-56.52-12.52-13.32-5.3086-25.773-12.418-38.918-18.094-18.5-7.9922-41.211-19.812-40.328-42.461v0.003906c-0.39062-1.5781-0.63672-3.1875-0.74219-4.8125-1.6953-30.277 36.887-45.637 67.738-53.836 0.11328-0.51172 0.26172-1.0156 0.44141-1.5078 2.7148-5.3516 7.9531-8.9648 13.922-9.5938 1.9844-0.35938 4.0078-0.42188 6.0117-0.18359-0.14062-0.58203-0.082031-1.1914 0.16016-1.7422 2.6523-6.5586 6.6602-11.586 13.172-12.395h-0.003907c2.1836-3.4922 5.4492-6.1797 9.2969-7.6484 3.0469-1.3281 7.3984-2.4766 8.5898-5.8828-4.6094-3.3594-8.9297-7.3984-13.434-10.543v-0.003906c-1.0312-0.625-1.7188-1.6875-1.8711-2.8828-0.15234-1.1992 0.25-2.3984 1.0898-3.2617 11.379-10.594 32.594-18.77 44.027-9.293 2.3516-2.3594 5.4219-3.8711 8.7266-4.2969-0.75781-7.9648 3.6445-16.281 12.855-10.906 2.125 1.2852 3.9023 3.0742 5.1797 5.2031 1.0039-4.4453 4.6289-7.8203 9.1367-8.5078 3.6406-2.793 7.75-4.9219 12.129-6.2891 2.2891-22.988 47.359-20.125 60.164-8.7734 9.9492 0.55078 18.914 6.1719 23.742 14.887 6.293-2.2031 13.188-1.9688 19.316 0.65234 6.2969 2.4297 11.477 7.0938 14.551 13.098 2.7617 5.9883 4.2188 12.648 8.5078 17.777h0.003906c0.15625 0.21484 0.29297 0.44141 0.41797 0.67969 0.10547 0.078125 0.23438 0.12891 0.33594 0.21094 10.91 8.8242 26.348 7.4688 37.516 15.645 11.402 8.332 9.9141 17.391 8.668 30.07v-0.003906c0.25781 0.53516 0.48438 1.082 0.67969 1.6406 6.2891 1.8516 12.469 3.957 18.531 6.4023 19.137 7.6992 53.629 21.602 53.32 46.59zm-7.8867 0.83594c-3.2578-10.781-13.148-18.043-23.199-23.637-6.7656-3.7773-13.746-7.1836-20.828-10.285 0.99219 1.9258 1.875 4.0352 2.7617 6.1719 2.3477 5.625 4.8086 12.184-0.027344 16.141v-0.003906c0.85156 1.8398 1.1992 3.8711 1.0195 5.8867-0.50781 7.3008-3.9219 14.09-9.4805 18.848-0.011718 0.125-0.039062 0.25-0.078125 0.37109-1.0039 3.9961-3.3359 7.5312-6.6133 10.031-3.2773 2.4961-7.3086 3.8047-11.426 3.7148-0.73828 1.8438-2.0781 3.3867-3.8008 4.375-6.1211 3.3281-16.168 3.957-24.262 4.2695-1.9531 6.1172-9.1641 8.0938-14.918 9.0312-10.934 1.7734-21.66 2.1602-32.438 4.9727-19.863 5.1523-52.508 11.609-70.73-2.707-0.21094 0.73828-0.41797 1.5352-0.67578 2.3164-0.12109 0.34375-0.28906 0.66797-0.49609 0.96484-0.375 1.6953-1.8828 2.9023-3.6211 2.8906-16.648 0.46875-38.816 3.1992-52.199-9.5273h0.003906c-2.9609-2.4062-4.418-6.2031-3.8281-9.9727-3.3281 3.1211-6.043 7.4688-10.18 9.1602-8.0977 3.3281-16.039 1.8242-24.109-0.96094h0.003907c-0.74219-0.25391-1.3633-0.77344-1.7422-1.457-8.75 1.2266-17.262-0.73828-22.258-9.0859v-0.027343c-3.4961 0.5-7.0625 0.22656-10.441-0.80859-2.8828-1.332-5.4297-3.2969-7.4453-5.75-4.8086-4.582-10.336-5.1797-16.613-6.1953h0.003906c-0.70703-0.10547-1.3672-0.41406-1.8984-0.88672-0.10547 0-0.31641 0.027344-0.44531 0.027344v-0.003907c-2.1914 0.023438-4-1.7109-4.0703-3.9023 0-0.050782 0.12891-0.078126 0.12891-0.12891-0.078125-0.41797 0-0.83203-0.10547-1.25-0.16016-0.59766-0.31641-1.1992-0.52344-1.7695-0.078124-0.21094-0.12891-0.39062-0.20703-0.59766-0.027343-0.050782-0.027343-0.027344-0.082031-0.12891h0.003906c-0.14844-0.34375-0.26172-0.70313-0.33594-1.0703-9.7891-4.1133-13.043-19.812-5.6758-27.379-1.9258-1.2266-3.8516-2.4492-5.918-3.6445-1.1836-0.71875-1.9062-2.0039-1.9062-3.3867 0-1.3828 0.72266-2.6641 1.9062-3.3828 7.0508-3.9102 14.406-7.2461 21.996-9.9727-0.3125-0.44141-0.59375-0.88281-0.88281-1.3516-16.895 5.4922-34.469 12.703-47.691 24.602h-0.003906c-6.8477 5.9062-11.32 14.098-12.594 23.051 4.7383 12.289 19.785 15.801 32.125 19.473 16.609 4.9453 32.047 12.758 48.289 18.641 39.312 14.293 83.438 16.48 124.96 16.648h0.003907c41.98-0.25 83.883-3.5742 125.38-9.9414 18.77-2.6562 38.633-5.7031 55.66-14.555 14.707-7.668 35.352-20.477 39.516-37.812zm-3.5391 21.66h-0.003906c-9.1523 9.5781-20.023 17.352-32.047 22.91-21.164 9.9727-43.891 13.617-66.93 16.609-57.734 7.4961-115.14 11.789-173.32 6.2188-19.773-1.3164-39.367-4.5859-58.496-9.7617-17.781-5.418-34.285-14.008-51.883-19.98-10.078-3.4375-24.473-6.3281-35.043-12.781h0.003906c1.4531 1.9297 3.1406 3.668 5.0234 5.1797 10.984 8.9062 24.523 12.809 36.938 19.137 16.859 9.1289 34.887 15.922 53.578 20.188 40.328 8.3594 82.211 8.7969 123.27 7.9648 22.023-0.44141 43.867-2.1367 65.785-4.4414 17.887-1.8711 36.523-0.70312 54.098-4.8086 27.48-6.3359 65.105-19.148 79.035-46.434zm-44.309-38.477c3.6719-1.7695-0.9375-9.2148-2.2656-12.078-2.0312-4.4414-4.1406-6.2891-9.2695-4.5547-8.9805 3.0195-8.8516 12.652-5 19.652 2.8828-1.5156 5.9688-2.6094 9.1641-3.2539 2.4453-0.47656 4.9688-0.39844 7.3789 0.23438zm-6.8438 23.844h-0.003906c4.1445-3.4297 6.5586-8.5195 6.5859-13.898-0.73828-6.7148-12.234-0.39062-18.98 4.2422 0.39453 0.26562 0.74609 0.58984 1.043 0.96094 2.4531 3.2305 6.1758 13.477 11.359 8.6953zm-3.3281 9.2148-0.007812 0.003906c-2.8086-0.15625-5.4258-1.4648-7.2344-3.6211-0.28516 0.61328-0.89062 1.0078-1.5625 1.0195h-0.1875c0.38672 2.418 0.54297 4.8672 0.47266 7.3125 3.4102-0.1875 6.5469-1.9219 8.5195-4.7109zm-11.379-52.352h-0.003906c1.375-1.4258 2.9648-2.6289 4.7109-3.5664-10.828-4.5547-21.715-8.1719-33.086-1.8984-6.6914 3.6719-13.199 7.5742-19.711 11.531-9.8164 6.0117-19.812 12.34-30.223 17.492 0.67578 0.078125 1.3281 0.12891 1.9805 0.23438 2.4727 0.33984 4.8086 0.73828 7.082 1.1094v0.003906c0.36328-0.42578 0.82812-0.75391 1.3477-0.96484 23.156-8.7891 41.637-40.809 67.906-23.941zm1.0156-11.559h-0.007812c-0.097657-1.5742-0.42188-3.125-0.96094-4.6055-0.88281-0.32812-1.4961-1.1406-1.5625-2.082-3.5391-3.125-10.414-2.7852-14.578-2.4766-7.7031 0.51172-15.305 2.0703-22.59 4.6328-0.46875 3.5469-1.3867 7.0195-2.7344 10.332 3.2305-1.8516 6.5078-3.5664 9.8672-5.1289v0.003906c10.273-4.8125 22.102-5.0586 32.566-0.67578zm-1.6914-13.355c0.91016-5.918 1.5352-12.363-3.1758-16.531h-0.003906c-4.6367-3.832-10.074-6.5742-15.91-8.0156-8.6406-1.8477-16.883-5.207-24.355-9.918-1.875 0.27344-3.7578 0.44922-5.6523 0.52344 7.8086 18.039 22.516 12.055 37.512 17.336 8.0703 2.8125 11.871 8.0469 10.828 16.281 0.26172 0.11719 0.52734 0.21875 0.75781 0.32422zm-2.707 52.617c0.57422-0.44531 1.1484-0.85938 1.7188-1.2773h-0.007812c-1.6758-2.7422-2.832-5.7695-3.4102-8.9297-3.8047 1.7773-7.125 4.4414-9.6875 7.7695 2.2734-0.49609 4.6055-0.6875 6.9297-0.56641 0.29688 0 0.59375 0.042968 0.88281 0.12891 1.668-0.007812 3.125 1.1172 3.5391 2.7344 0.015625 0.042969 0.027344 0.089844 0.035156 0.14062zm-0.49219-22.023c0.078125-0.17969 0.20703-0.33594 0.28516-0.52344-20.07-11.867-37.227 10.074-55.008 20.984h-0.007813c5.0586 0.16406 10.082-0.91016 14.633-3.125 0.57422-0.25781 1.1094-0.51953 1.6914-0.80469l-0.003906-0.003906c0.11328-0.5 0.34766-0.96484 0.67969-1.3555 8.7969-10.676 23.379-19.133 36.629-11.559 0.25-1.2383 0.61719-2.4492 1.1016-3.6172zm-2.1875 54.668-0.007813-0.003906c0.42969-9.4375-0.94141-18.871-4.0352-27.801-10.152 0.67188-18.383 9.0039-27.18 13.559v0.003906c-4.2422 1.9688-8.332 4.25-12.234 6.8203-1.8086 1.0859-3.0391 2.918-3.3594 5 0.039062-0.12891 0.09375-0.25391 0.15625-0.37109 1.6133-2.6758 4.0664-4.7461 6.9766-5.8828 2.375-1.0391 4.8398-1.8477 7.3711-2.418 3.8164-0.90234 7.7383-1.2969 11.66-1.1719 0.48047-1.5664 1.4023-2.957 2.6562-4.0078 1.1523-1.0078 2.5234-1.7305 4.0078-2.1094 2.5898-0.57422 3.6992 0.078125 3.7461 0.28516 0.078124 0.39062-1.4336 0.46875-3.1211 1.3789-1.082 0.56641-2.0469 1.3359-2.8359 2.2656-0.99609 1.043-1.5469 2.4336-1.5352 3.8711l0.10547 1.6133-1.9023-0.027343v0.003906c-3.9922 0.13672-7.9531 0.76562-11.793 1.8711-2.2344 0.59766-4.4102 1.3906-6.5078 2.3711-1.9883 0.78516-3.6953 2.1562-4.8945 3.9297-0.40234 0.75391-0.47656 1.6406-0.20312 2.4492l0.20703 0.59375 0.44531 0.91406c0.17969 0.25781 0.3125 0.46484 0.46484 0.65234 1.1562 0.40234 2.3711 0.60156 3.5938 0.59766 0.73828 0 2.2188-0.027344 4.1406-0.050781v-0.003907c3-1.332 5.9023-2.8711 8.6953-4.6055 2.5391-1.6406 5.2891-2.9258 8.1758-3.8242 0.86719-0.25 1.7891-0.23828 2.6523 0.027344 0.59766 0.23438 0.80469 0.54297 0.73828 0.65234-0.20703 0.28516-1.1445 0-2.8633 0.96094-2.4375 1.4375-4.7773 3.0469-7 4.8086-0.80469 0.59375-1.668 1.1953-2.5898 1.8516 11.25-0.40234 26.008-1.3945 26.27-4.207zm-1.4336-87.105c0.96094-12.004-18.871-10.414-27.008-11.688l-0.007813-0.003906c-2.0117-0.33203-3.9805-0.91016-5.8555-1.7188 1.3008 5.6914 2.0156 11.5 2.1367 17.336 9.8164-3.6055 20.324-4.9492 30.738-3.9297zm-3.3516 40.219c-7.0312-2.3945-14.109 0.65234-19.891 5.3594h0.003906c3.8594-0.30859 7.707 0.73828 10.879 2.9609 2.5859-3.1953 5.6211-5.9961 9.0078-8.3203zm-12.391 15.047c-0.24609-0.58203-0.32812-1.2227-0.23438-1.8477-5.832-6.7422-22.258 5.3398-28.609 6.043-10.047 1.1094-18.77-2.5898-28.715-3.125-20.484-1.1445-41.207 3.0742-57.27 16.352l-0.003907-0.007812c1.1211 1.3164 2.1523 2.6992 3.0977 4.1406 7.707-6.7656 12.949-13.277 23.844-15.254h0.003906c10.035-1.4023 20.242-1.0156 30.145 1.1445 8.0703 1.5078 19.16 5.418 27.102 2.3203 4.0898-1.5898 7.7344-4.1914 11.871-5.6758 4.4414-1.6445 8.3789-2.3203 11.895 0.12891h0.003906c2.207-1.5352 4.5-2.9414 6.8672-4.2188zm-10.859 43.828c-5.8867 0.75391-11.852 0.57422-17.68-0.51953-3.4766 3.1289-7.75 5.2422-12.348 6.1016 9.7422-0.75391 24.766-1.25 30.027-5.582zm-3.7773-34.91c-4.8398 1.0703-10.648 6.2891-14.371 6.875-7.4023 1.1328-14.949 0.88281-22.258-0.74219-9.3711-2.1719-18.969-3.2188-28.586-3.1211-8.5156 0.27344-16.602 3.8047-22.594 9.8633 10.461-1.8242 19.012-9.0859 30.109-8.2539 9.7344 0.73828 19.238 3.0703 28.922 4.1133 0.31641-0.082031 0.59766-0.18359 0.91016-0.26172 3.4219-1.3359 7.3164-0.25391 9.5586 2.6562 1.5117-1.457 3.1875-2.7344 5-3.8008 4.3789-2.5508 8.9062-4.8438 13.309-7.3164zm-12.727-42.117-0.003906-0.003907c4.6641-8.8633 5.9336-19.125 3.5664-28.859-3.1641 3.6172-7.0391 6.5508-11.375 8.6172-7.5 3.1328-14.492 7.3633-20.75 12.547-2.3477 2.1602-6.7969 6.4297-4.5312 9.7891 5.2305-4.4922 10.848-8.5117 16.793-12.008 4.8438-2.8906 7.9922-4.4414 8.3008-3.957 0.3125 0.48047-2.2188 2.8359-6.6133 6.3789-3.8516 3.125-9.1367 7.0547-14.578 11.926 0.027344 0 0.050782 0.027344 0.078125 0.027344l0.003907-0.003906c1.8672 0.66797 3.8867 0.80859 5.832 0.41406 1.9258-0.34766 3.7852-1.0156 5.4922-1.9766 3.0625-1.7383 5.8828-3.8711 8.3828-6.3516 4.4414-4.2695 6.6914-7.5 7.2656-7.1602 0.46484 0.25781-0.86328 4.1406-4.9727 9.25-2.2227 2.7656-4.8398 5.1875-7.7695 7.1836 5.3008-0.30859 10.379-2.2383 14.551-5.5195 0.10156-0.10156 0.21094-0.19922 0.32422-0.28516zm2.2891-39.957c0.12891-0.15625 0.25781-0.25781 0.38672-0.41797v-0.003907c-1.3516-1.3242-2.5625-2.7773-3.6172-4.3477 0.70703 2.5 1.0938 5.082 1.1445 7.6797 0.70312-0.90234 1.3828-1.8672 2.0859-2.9062zm-9.0625 9.6211c2.0039-7.2891 0.15625-17.621-6.2891-22.387v-0.007812c2.2812 8.7617 2.1211 17.98-0.46875 26.66 0.59375-0.3125 1.1953-0.625 1.793-0.91016h0.003907c1.7109-0.82031 3.3438-1.7969 4.8711-2.918 0.019531-0.15234 0.050781-0.30078 0.089844-0.44922zm4.7227-33.934c-1.5508-4.6172-3.6484-9.0273-6.25-13.145-8.7461-12.055-22.676-10.18-33.297-2.9141l-0.003906-0.003906c6.0312 3.7109 12.301 7.0156 18.77 9.8906-0.70312-0.62109-1.3789-1.2227-2.082-1.7422-1.5938-1.3711-3.4297-2.4297-5.418-3.1211-1.3008-0.41797-2.3945-0.39062-2.3945-0.73828 0-0.26172 0.67578-0.88672 2.5898-0.96484l0.003906-0.003906c2.4844 0.089844 4.8984 0.86328 6.9727 2.2383 2.6289 1.4805 5.3906 3.8828 8.2539 5.7812 1.7031 1.1602 3.5195 2.1523 5.4141 2.9609-0.57422-0.80469-1.1094-1.5898-1.6406-2.3477v0.003907c-1.5547-2.4766-3.2969-4.8281-5.2188-7.0312-3.2812-3.5391-6.4297-4.1914-6.2891-4.8672 0.027343-0.26172 0.85937-0.39062 2.3945-0.15625h-0.003907c2.1523 0.46484 4.1641 1.4375 5.8633 2.8359 2.418 2.0391 4.5742 4.3711 6.4141 6.9453 1.7109 2.3555 3.6992 4.5 5.9219 6.3789zm-7.4844 122.43c-0.066406-0.054687-0.12891-0.11719-0.17969-0.1875-0.16016-0.19922-0.37891-0.34375-0.625-0.41406-0.83203-0.050781-1.6914-0.12891-2.5508-0.20703-6.3672 1.1445-12.668 2.6484-18.867 4.5039-7.5586 0.64844-15.152 0.75391-22.727 0.30859-7.0039-0.078125-23.797-3.5938-28.797 2.5898-1.5625 1.9531-2.8633 3.8242-4.2148 5.625 0 0.078125 0.027343 0.12891 0.027343 0.17969v0.003907c4.7812-2.2266 9.9609-3.4648 15.23-3.6445 6.8984 0.17969 13.746 1.6914 20.645 1.6406 13.641-0.078124 26.711-3.5391 40.145-5.3867v-0.003906c0.35938-1.7617 1.0039-3.457 1.9141-5.0078zm2.2891 15.461h0.003906c-1.5391-1.1172-2.7656-2.6016-3.5664-4.3203-13.508 1.8242-27.047 6.1445-40.789 5.5195-6.7461-0.3125-13.902-2.2656-20.645-1.6641l-0.003906-0.003907c-4.7305 0.55078-9.3672 1.7539-13.77 3.5703 11.32 3.1211 26.578-1.1094 37.512-0.41797 10.387 0.65625 31.371 4.457 41.273-2.6758zm-7.2344-60.051c-3.6211 0.58984-7.3008 0.75391-10.957 0.49219-0.027343 0.078125-0.027343 0.12891-0.050781 0.21094h-0.003906c-1.707 4.4844-5.3945 7.9258-9.9883 9.3203-3.5078 1.293-6.9492 2.7617-10.309 4.3984 1.9258-0.16016 3.8516-0.28906 5.7773-0.31641l0.003906 0.003906c0.37109-0.59766 0.92969-1.0547 1.5859-1.3008 8.332-3.5781 16.34-7.8633 23.941-12.809zm-7.7031-35.043v0.003907c5.6133-11.355 5.9727-24.598 0.98828-36.242-9.832-4.6289-18.988-10.582-27.207-17.695-3.0703-0.30078-6.1641-0.37891-9.2461-0.23828 14.801 6.875 34.312 20.227 33.582 34.625-0.80469 16.281-16.062 28.324-31.758 30.746h-0.003906c0.51172 0.75391 0.96484 1.5469 1.3555 2.3711 0.30859-0.074219 0.62109-0.11719 0.9375-0.13281h13.004c0.54688-0.003906 1.0898 0.066407 1.6133 0.21094 3.5703-4.8047 8.1211-8.7891 13.355-11.691 1.1094-0.67578 2.2578-1.3008 3.3789-1.9531zm0.91016 105.16c-8.2305 0.19922-16.465-0.12891-24.652-0.98828-13.828-0.85938-32.727 4.6328-45.922-1.4336-0.082031 0.078125-0.18359 0.15625-0.26172 0.23438 0.14453 0.10547 0.28516 0.21875 0.41797 0.33984 7.8867 7.3984 20.125 7.2617 30.34 7.8633 13.996 0.82031 26.672-2.7461 40.078-6.0156zm-7.8633-28.41c0.3125-0.078124 0.625-0.21094 0.9375-0.28906-5.5156-1.1836-11.133-1.8555-16.773-2.0078-4.2227 0.125-8.3945 1.0039-12.312 2.5898 2.4453 0.20703 4.8672 0.39062 7.1602 0.44531v-0.003906c7.0039 0.55078 14.043 0.30078 20.988-0.73438zm-32.41-71.309c17.184-0.20703 41.781-18.848 26.059-35.352-1.8203-1.9258-3.8242-3.8008-5.8828-5.6484 6.2891 14.578-5.1289 33.715-20.75 40.641 0.18359 0.125 0.39453 0.23047 0.57422 0.35938zm29.895 28.926c-2.2148-0.66797-4.2578-1.8164-5.9844-3.3594-4.793 3.1484-10.582 4.4023-16.246 3.5156 1.4609 3.6133 2.0312 7.5234 1.668 11.402 2.2344-1.3828 4.5742-2.5859 7.0039-3.5938 4.2305-1.8242 11.574-3.2305 13.559-7.9648zm-9.7852-8.1758c0.18359-0.13281 0.375-0.25781 0.57422-0.37109-0.30859-1.0703-0.5-2.1719-0.57422-3.2812-0.074218-1.3125 0.050782-2.6289 0.37109-3.9023h-12.02c0.20703 3.2852-0.75 6.5391-2.707 9.1875 4.793 1.5391 10.02 0.94531 14.344-1.6328zm-3.3086-92.156c1.5859-1.043 3.2578-2.0039 4.9453-2.8906h0.003907c-3.418-5.8594-9.3047-9.8594-16.012-10.879 0.65234 1.9258 1.0625 3.9297 1.2227 5.957 3.6875 2.0391 7.0078 4.6797 9.8281 7.8125zm-10.332 58.828c8.6172-8.3828 13.094-21.219 5.2852-30.07h-0.003906c2.0938 10.336 0.19922 21.078-5.293 30.078zm4.6328-54.438c0.23828-0.20703 0.49609-0.41797 0.73828-0.625-1.6328-1.8867-3.5664-3.4883-5.7266-4.7383-0.91797 2.582-2.4766 4.8945-4.5234 6.7148 2.8477-0.25 5.707-0.30078 8.5625-0.15625 0.23828-0.44922 0.55859-0.85156 0.9375-1.1875zm-8.3906 111.61c0.54297-3.6992 1.5078-10.934-1.4805-14.238v0.003907c-0.10156 0.58594-0.40625 1.1211-0.85938 1.5078-0.3125 11.766-8.0938 18.273-19.344 20.277-8.4062 1.4805-23.352-6.1211-32.984-4.5547v0.003906c-0.32422 0.91016-1.0859 1.5938-2.0273 1.8203-1.3984 0.26172-2.7109 0.88281-3.8047 1.7969 10.012 0.94531 19.523 4.8047 27.363 11.098 9.6328-7.875 20.957-13.414 33.086-16.188 0.023437-0.09375 0.0625-0.18359 0.10938-0.26562-0.11719-0.41016-0.13672-0.83984-0.058594-1.2617zm-31.645-107.22c12.184-0.67578 29.992-3.0703 29.707-15.699-4.2969 5.418-10.883 7.8359-19.137 8.4375-16.402 1.1445-32.438 5.7773-48.16-0.57422-4.4766 5-3.6719 7.2109 2.5 6.6367 0.9375 0.078124 1.8516 0.13281 2.7812 0.21094 1.2266 0.078125 2.4492 0.17969 3.6992 0.25781 2.4453 0.17969 4.8906 0.37109 7.3672 0.49609h0.003906c7.0703 0.46875 14.16 0.54688 21.238 0.23438zm26.527 82.395c6.9531-8.8516-1.8516-14.867-10.074-17.312-5.1133-1.5625-10.453-2.2656-15.801-2.082-13.77 0.78125-24.316 7.7695-34.984 15.879-0.29297 0.21094-0.60937 0.38672-0.94141 0.52344-4.375 5.8828-0.96094 13.016 8.332 13.016 2.8516 0.125 5.7109 0 8.5391-0.37109 4.5273-0.88672 9.2188-0.29297 13.379 1.6953 8.4453 4.9258 26.113-4.4219 31.559-11.348zm-10.102-25.328c20.203-5.1602 25.996-39.379 8.8398-50.477-0.37109-0.15625-0.73828-0.28516-1.1094-0.41406 4.9453 10.203 3.0977 23.949-1.2266 33.844v-0.003907c-3.6016 8.207-11.156 13.996-20.016 15.332 4.5664-0.070312 9.1172 0.50781 13.523 1.7188zm2.5898-24.992c2.0586-8.957 3.5391-20.348-3.5156-27.57l0.003906-0.003906c-0.10938-0.097656-0.20703-0.21094-0.28516-0.33594l-1.7188 0.38672v0.003906c4.2266 8.5078 3.6016 18.625-1.6406 26.551 0.52344 10.988-9.5 16.844-21.605 18.07-11.469 1.1953-25.277 2.9922-36.707-1.0703-8.7734 10.699-27.625 9.7891-39.703 14.602-21.504 8.5898-27.047 26.012-29.18 47.277 2.1875 0 4.3984 0.10547 6.5586 0.31641 0.046875-0.082032 0.089844-0.17188 0.12891-0.26172 5.2578-8.4062-0.050781-17.887 4.8672-26.605 3-5.6289 7.3242-10.441 12.602-14.031 11.84-7.5508 25.617-10.102 39.363-11.871 15.074-1.9258 29.992-4.4766 45.039-6.4805 12.488-1.668 22.688-5.5469 25.816-18.977zm-20.125-44.355c10.125-1.3281 21.461-0.33984 26.891-8.9062-18.379 6.4062-40.035-0.44141-56.934 9.0859 9.7891 2.7812 19.918 1.1172 30.043-0.17969zm-33.973 123.31c12.625-18.535 57.035 13.512 58.086-16.195h0.003906c-6.8867 4.2227-14.512 7.0938-22.469 8.4609-2.6016 0.32422-5.2344-0.24219-7.4727-1.6133-6.4062-3.7461-12.422-0.83203-19.137-1.3789h0.003907c-0.29688 0.43359-0.69922 0.78516-1.1719 1.0156-6.0156 2.293-11.527 5.7422-16.219 10.152-0.85937 0.94141-1.7148 1.7969-2.5898 2.6289 3.1406-0.44531 6.3086-0.67969 9.4805-0.70312 0.33594-0.54688 0.67187-1.0664 1.0664-1.5859h-0.003906c0.097656-0.28125 0.23828-0.54688 0.42187-0.78125zm44.492-89.789c1.3438-5.3047 0.51953-10.926-2.293-15.621-4.0156 0.5-8.0586 0.76172-12.105 0.78125-10.488 0.078125-26.941 1.6641-36.809-2.4727h-0.003907c-1.3906-0.55859-2.6836-1.3398-3.8242-2.3164 1.1484 4.5117 1.7852 9.1406 1.9023 13.801 0.74219-0.24219 1.4961-0.43359 2.2617-0.57422 17.184-3.0469 34.102-2.4492 49.773 5.5508l0.003906-0.003906c0.40625 0.22656 0.77734 0.51172 1.0938 0.85547zm-30.227-43.031c14.711-2.5273 30.59 0.38672 44.91-5.3125-12.684-5.4414-41.422-7.0586-44.91 5.3125zm21.141 59.938c3.2539-2.2188 4.7656-5.8047 2.5898-11.715-9.0391-4.1562-18.977-5.9609-28.898-5.2578-4.4961-0.089844-8.9883 0.30078-13.402 1.1719-2.4844 0.49219-4.8945 1.2891-7.1836 2.3672-3.0547 1.0156-5.1602 3.8125-5.2891 7.0273 1.0898-0.89453 2.3477-1.5664 3.6992-1.9727 2.418-0.68359 4.9102-1.0586 7.4219-1.1133 0.11719-0.60938 0.37109-1.1875 0.74219-1.6875 0.59375-0.76953 1.4414-1.3047 2.3906-1.5117 1.2305-0.23438 2.4922-0.24219 3.7227-0.03125 1.875 0.33984 2.8359 0.70312 2.8359 0.94141 0 0.23828-1.0664 0.37109-2.8906 0.49219h0.003906c-1.0352 0.0625-2.0586 0.25391-3.0469 0.57422-1.043 0.44531-1.3555 1.043-1.1992 2.4219l0.12891 1.2227s-1.3555 0.18359-1.3555 0.21094h0.003906c-3.3633 0.22656-6.6523 1.1055-9.6836 2.5898-7.0039 4.2695 6.3281 6.1719 9.3203 7.1055 0.91016 0.12891 1.793 0.28906 2.707 0.44531 1.0156 0.20703 2.0312 0.38672 3.0469 0.57422 1.9805 0.37109 4.0352 0.64844 6.0898 0.88281 0.089843-0.003906 0.17578 0.003906 0.26172 0.027344 2.3164 0.042969 4.6289-0.082031 6.9258-0.37109 5.1562-0.34766 10.285-1.0156 15.359-2 0.99609-0.69531 1.7461-1.6875 2.1367-2.8398 0.15234-0.53516 0.24219-1.0859 0.25781-1.6406-0.023437-0.18359-0.03125-0.36328-0.027344-0.54688-0.074219-0.21094-0.13281-0.42969-0.17969-0.64844-0.36328-0.88672-0.95703-1.6602-1.7188-2.2383-1.5781-1.1875-3.3477-2.0977-5.2344-2.6836-1.7422-0.59766-3.2773-1.0156-4.5547-1.3281-2.5547-0.65234-4.0117-0.96094-4.0117-1.3008 0.027344-0.25781 1.5352-0.54687 4.2695-0.37109h0.003906c1.6641 0.070312 3.3164 0.28906 4.9453 0.64844 2.2891 0.4375 4.4727 1.3203 6.4297 2.5898 1.3047 0.83594 2.3438 2.0273 2.9922 3.4375l0.44531 1.2266v-0.003906c0.078125 0.48438 0.12891 0.96875 0.15625 1.457 0.015625 0.62891-0.058594 1.2539-0.21094 1.8633zm2.8633 101.58c-0.49219-0.26172-0.89844-0.66016-1.1719-1.1484-8.7734-15.168-27.984-20.203-44.957-18.5v0.003906c-12.719 1.0898-24.574 6.8828-33.25 16.246-6.7422 6.5078-18.562 18.039-26.762 8.3828-1.6914 0.73828-3.1484 1.3555-4.2188 1.7422-2.8633 1.0703-5.832 2.1602-8.8242 3.0469 7.0547 8.2031 22.832 4.1133 30.25-0.78125 6.875-4.5547 12.758-10.359 19.574-14.969l0.003906-0.003906c10.629-7.1445 23.508-10.152 36.199-8.4531 9.3984 0.9375 24.395 8.5664 30.457 17.727 0.875-1.1445 1.7617-2.2383 2.6992-3.2773zm-7.9141 8.9336c0.23438-0.17969 0.44141-0.38672 0.67578-0.59766v-0.003906c-1.625-4.3672-4.7031-8.043-8.7188-10.41-3.5117-2.207-7.3398-3.8594-11.352-4.8984-7.0586-1.8711-14.434-2.2148-21.633-1.0156-12.859 2.6797-20.879 10.883-31.078 18.379-4.1367 2.9805-8.6445 5.4141-13.406 7.2344 3.5781 0.89844 7.3359 0.76562 10.84-0.38281 3.5039-1.1445 6.6133-3.2617 8.9688-6.0977 2.9219-3.707 7.0977-6.2188 11.742-7.0547 2.6758-2.625 5.6562-4.9141 8.8828-6.8203 16.508-9.9805 38.176-3.5039 45.078 11.668zm-6.5078 16.426c2.1094-8.6445-0.80469-19.082-9.3203-22.883-8.1406-3.8438-17.676-3.2734-25.305 1.5078-3.5156 2.5703-6.7695 5.4805-9.7109 8.6953-0.63281 0.65234-0.95312 1.543-0.88281 2.4492 0.66797-0.73828 1.4297-1.3828 2.2617-1.9258 2.2461-1.3867 4.6719-2.4609 7.2031-3.1914 1.582-0.49219 3.1875-0.90234 4.8125-1.2227-0.10547-0.3125-0.21094-0.65234-0.31641-0.96094l-0.52344-1.668 1.5898-0.17969 0.003907-0.003906c2.7617-0.28516 5.5508 0.03125 8.1719 0.93359 1.7148 0.65234 2.5898 1.1719 2.5273 1.4336-0.10547 0.65234-3.4648-0.41406-8.3594 0.16016 0.12891 0.33594 0.25781 0.62109 0.41797 0.96094l0.64844 1.5078-1.8203 0.54688v0.003906c-4.2383 1.0547-8.2969 2.75-12.027 5.0234-0.77344 0.46484-1.3945 1.1445-1.793 1.9531-0.054688 0.13281-0.054688 0.28125 0 0.41406 4.0977 2.6016 8.6016 4.4922 13.328 5.5977 5.8906 0.98438 11.863 1.3828 17.836 1.1992 0.25-0.074218 0.48828-0.1875 0.70312-0.33984 0.14844-0.10547 0.30469-0.19922 0.46875-0.28516 0.019531-0.003906 0.039063-0.011718 0.050781-0.027343 0 0.027343 0 0.027343-0.027343 0.050781l0.15625-0.15625 0.25781-0.31641 0.003907 0.003906c0.27734-0.28125 0.52734-0.59766 0.73828-0.93359 0.19922-0.35547 0.36719-0.72656 0.49609-1.1133 0.6875-2.6992 0.19531-5.5664-1.3555-7.8867-1.0664-1.7695-2.1094-2.4961-1.9258-2.8125 0.10547-0.20703 1.5117 0 3.2578 1.7461h-0.003906c1.0547 1.0508 1.8867 2.2969 2.4453 3.6719 0.80859 1.9258 1.0078 4.0469 0.57422 6.0898-0.125 0.61328-0.32812 1.207-0.59766 1.7734-0.050782 0.10547-0.12891 0.25781-0.20703 0.38672 2.0547-0.0625 4.1406-0.14062 6.2227-0.19141zm-1.4336-107.07c-0.027344-0.066406-0.054687-0.13672-0.078125-0.20703-1.9805 0.28516-3.957 0.57031-5.918 0.96094-17.758 3.5156-36.656 3.6992-53.965 9.0859-10.23 3.1992-21.008 8.4336-25.723 18.77-3.9805 8.6953 0.050781 16.48-3.9023 24.789 1.6602 0.35547 3.293 0.81641 4.8945 1.3828-0.050781-17.887 5.5156-36.73 24.832-41.574 9.3477-2.3438 29.391-9.8945 38.141-1.8984 6.6484-4.8125 13.965-8.6211 21.719-11.309zm-22.281 40.258c-0.8125-0.29688-1.6055-0.64453-2.375-1.0391-1.293 1.6562-2.7109 3.2148-4.2383 4.6562l0.23438 0.23438c2.0547-1.3984 4.1836-2.6836 6.3789-3.8516zm-5.0781-25.434c-5.5195-2.7617-18.07 0.41406-26.242 2.8633 7.1328 0.45703 14.188 1.7227 21.031 3.7773 1.3047-2.5234 3.0703-4.7734 5.2109-6.6406zm-6.25 33.09c-0.050781-0.070313-0.11328-0.12891-0.17969-0.1875-4.3672 3.1016-9.8359 4.2266-15.074 3.1016-6.457-1.5859-11.871-6.5352-9.3203-12.73-1.1562-0.19922-2.3047-0.46094-3.4375-0.78125-3.9062 7.1328-1.1992 13.562 7.3164 16.008 5 1.4336 12.105 2.9609 16.281-1.3008 1.4844-1.5078 2.9648-2.8633 4.4141-4.1094zm0.41797-17.02c-0.41406-1.0664-0.66406-2.1875-0.73828-3.332-4.4766-1.3398-9.0742-2.2539-13.723-2.7344-1.8203-0.20703-19.5-1.6641-17.598 2.9609 1.9258 4.7617 14.371 4.4414 18.301 4.4414 4.625 0.14062 9.25-0.30859 13.758-1.3438zm-4.0078-70.793c0.32422-6.5703-0.93359-13.125-3.6719-19.105-1.6641-2.8633-7.8359-7.8867-7.1055-0.80469l-0.003906-0.003907c0.30859 2.8672 0.80469 5.7109 1.4805 8.5117 1.6133 5.6992 2.0664 11.668 1.3281 17.547 2.3359-2.4375 5.0234-4.5078 7.9727-6.1445zm-5.6523 84.668c4.8633-1.3477 9.1719-4.1953 12.312-8.1406-6.8242 1.7344-13.867 2.4609-20.902 2.1602-0.027344 0.050781-0.050781 0.078125-0.078125 0.12891-3.5391 4.9844 5.0234 6.8086 8.668 5.8516zm3.1211-57.508h0.003906c-2.7109-1.6367-5.125-3.7227-7.1328-6.168-0.90234-1.0508-1.582-2.2734-2.0039-3.5938-3.0156 6.375-7.0625 12.203-11.977 17.262 7.418-1.4219 15.934-2.9531 21.113-7.5078zm-25.457 2.9609c6.7656-7.1055 15.957-19.707 14.68-30.34h0.003907c-0.62109-3.8945-1.4453-7.7539-2.4727-11.559-0.089843 0.019531-0.17578 0.042969-0.25781 0.078125-2.1641 0.21875-4.125 1.3555-5.3906 3.1211 1.4844 2.6875 2.4844 5.6133 2.957 8.6445 0.070313 0.33594 0.085938 0.67578 0.054688 1.0156 1.0156 1.4336 0.68359 3.418-0.74219 4.4414-1.457 1.2266-3.0195 2.7852-4.6836 4.4414 0.38672 0.55469 0.55859 1.2266 0.49219 1.8984-0.67578 9.8945-8.7188 21.762-19.055 23.949-11.531 2.4492-29.262-9.2148-36.578 1.5078 4.9219-0.37109 9.0625 2.3984 15.281 3.9062v0.003906c13.031 2.8242 26.586-1.3906 35.711-11.109zm14.344 70.457c-1.7383-0.28125-3.4492-0.73438-5.1016-1.3516-11.797-4.4414-17.391-13.75-11.43-24.629-2.3906-1.5352-3.918-4.1133-4.1133-6.9492-4.2031 6.207-6.543 13.488-6.7383 20.98 0.57813 0.29297 1.0469 0.76953 1.3281 1.3555 3.0195 5.9609 10.566 14.031 17.805 13.746h-0.003906c0.60547-0.019531 1.1992 0.13281 1.7227 0.4375 2.0586-1.4023 4.2461-2.6055 6.5312-3.5898zm-14.652-104.34c0.15625 0.027344 0.28516 0.078125 0.44141 0.10547-6.1172-11.66-22.57-5.625-32.75 2.0312 0.44531 0 8.332 6.8984 9.2148 7.5273v-0.003906c3.1367 2.6562 6.9648 4.3594 11.039 4.9141 6.6602 0.41797 9.5273-4.6055 12.625-9.707-4.7617-2.3438-10.984-1.9258-16.191-2.4766-3.8828-0.3125-6.2891-0.85938-6.2891-1.457s2.3945-1.168 6.25-1.6406l-0.003906 0.003906c5.2227-0.71484 10.527-0.47656 15.664 0.70312zm2.0273 113.21c-2.0625-0.53906-4.0352-1.3711-5.8594-2.4766 0.96484 6.4062-7.3672 12.551-15.02 16.691 5.1289 2.6914 15.645-8.668 20.879-14.215zm-19.238-79.738h-0.003906c3.5547-0.78516 6.8359-2.4961 9.5117-4.9609 2.6758-2.4648 4.6484-5.5977 5.7188-9.0742-2.6875 2.2578-6.1094 3.4531-9.6211 3.3594-0.17969-0.039062-0.35937-0.066406-0.54297-0.078124-0.48047 4.0391-2.2578 7.8164-5.0625 10.766zm-0.99219-12.055c0.003906-0.074218 0.019532-0.14453 0.050782-0.20703-1.2148-0.46875-2.3984-1.0195-3.543-1.6445-3.0703 6.1211-11.062 6.4805-15.828 10.805 3.6719 0.83594 7.2891 2.0039 10.957 2.8125h0.003906c0.26953-0.46094 0.65234-0.84375 1.1094-1.1133 4.1133-2.0312 6.8633-6.0664 7.2539-10.641zm-8.9805 30.707c-1.875 0.027343-3.8047-0.050782-5.8047-0.21094-6.3789-0.59375-11.719-5.918-17.992-4.3984 0.054688 0.050782 0.10547 0.078126 0.13281 0.12891 1.043 1.3711 1.9922 2.8164 2.8359 4.3203 5.2617 1.2656 10.613 2.0938 16.012 2.4766 0.58203-0.027344 1.1602 0.11719 1.6641 0.41406 0.72656-0.75 1.5-1.4531 2.3164-2.1055 0.26562-0.21875 0.57812-0.41797 0.83984-0.625zm-11.246 16.648c0.97656-2.8281 2.2305-5.5547 3.7461-8.1367-2.2852-0.19531-4.5547-0.54297-6.793-1.0469 1.1172 1.25 1.3164 3.0703 0.49219 4.5312-0.58203 0.96875-1.2539 1.8867-2 2.7344 1.4141 0.85547 2.9531 1.4961 4.5547 1.9062zm-4.7383 24.16c0.39063-3.7266 0.88672-7.7344 1.5898-11.797l-0.003906 0.003906c-1.4102 0.68359-2.875 1.2578-4.375 1.7148-0.25781 0.18359-0.46484 0.37109-0.73828 0.52344-0.36328 0.23438-0.76953 0.38672-1.1953 0.44141 0.027344 0.50391-0.042968 1.0078-0.21094 1.4805-0.37109 1.1055-0.86719 2.1602-1.4805 3.1484 2.1953 1.3945 4.2266 3.0664 6.4141 4.4727zm-0.96094-19.656h-0.003906c-1.3242-0.65625-2.5781-1.4414-3.75-2.3438-2.1289 1.2773-4.3711 2.3672-6.6914 3.2539 0.6875 1.3555 1.5078 2.6367 2.4492 3.8281 1.0664-0.18359 2.1367-0.39062 3.1992-0.67578 1.6992-1.2383 3.3047-2.6055 4.7969-4.0898zm-5.6758-10.57h-0.003906c-1.2734-1.207-2.3867-2.5742-3.3086-4.0703-0.96875-2.1914-2.2578-4.2266-3.8242-6.043-2.7852-2.4453-8.6445-0.78125-11.301 1.043-4.5039 3.0977-3.1211 6.8711 0.28906 10.309 0.41406 0.42188 0.73047 0.92578 0.9375 1.4805 2.7812-0.015625 5.5117 0.76953 7.8594 2.2656 0.13672-0.082032 0.27344-0.14844 0.41797-0.20703 3.2539-1.0234 6.2852-2.6484 8.9336-4.793zm0.57422 33.609h-0.003906c-1.5078-1.1523-3.082-2.2109-4.7148-3.1758-3.2695 2.2148-7.1133 3.4336-11.062 3.5156 0.17969 0.67578 0.38672 1.3555 0.59766 2.0312 4.9023-0.92969 10.004-1.7852 15.184-2.3867zm-8.4883-9.8633h-0.003906c-0.27344-0.35156-0.59766-0.65625-0.96094-0.91406-1.0508-0.69141-2.2148-1.1914-3.4375-1.4805-3.082-0.60156-6.1914-1.0312-9.3203-1.2773-2.5547-0.3125-4.168-0.83203-4.168-1.4336 0-0.59766 1.5352-1.168 4.0898-1.6641v0.003907c3.4766-0.6875 7.0586-0.64453 10.516 0.12891 0.53125 0.13672 1.0547 0.3125 1.5664 0.51953-2.7617-4.3477-5.1562-8.4609-11.949-6.6875h-0.003906c-5.793 1.5508-11.395 3.7305-16.711 6.5078 4.3203 3.5508 9.3125 6.1953 14.68 7.7695 4.7031 1.0625 11.852 1.9961 15.703-1.4883zm-12.852 13.391c-0.37109-1.25-0.73828-2.4727-1.1094-3.7227-2.0195-0.36328-4-0.91016-5.918-1.6406-0.34375 2.3945 0.042969 4.832 1.1094 7 1.6328-0.64453 3.3242-1.1406 5.0508-1.4805zm-11.191 4.5859v-0.003906c-1.8281-3.9297-2.4805-8.3086-1.875-12.602-1.0156-0.54688-1.9805-1.1094-2.9609-1.6914-0.039063 0.019531-0.074219 0.046875-0.10156 0.078125-5.7773 3.6445-3.5938 13.875 1.7148 17.492 0.89453-1.2539 1.9766-2.3594 3.2109-3.2773z"/>
  <path d="m397.61 370.54c0.50391 1.332 0.51172 2.8047 0.023437 4.1406-0.24219 0.65625-0.55469 1.2852-0.93359 1.875-0.40625 0.53516-0.84375 1.0469-1.3047 1.5352-0.94531 0.96094-1.9844 1.8281-3.0938 2.5898-0.52344 0.33984-1.043 0.67578-1.5664 1.043-0.80469 0.46875-1.2969 0.65234-1.9492 0.98828-0.65625 0.35547-1.3438 0.64453-2.0586 0.85938-0.37109 0.13281-0.70312 0.26172-1.1094 0.37109l-1.2461 0.23438c-0.89844 0.14062-1.8086 0.14844-2.707 0.023437-0.86328-0.17969-1.7031-0.46094-2.5039-0.83203-1.3789-0.65625-2.7148-1.3984-4.0039-2.2188-0.44922-0.27344-0.875-0.57812-1.2773-0.91016-0.37891-0.375-0.72266-0.78516-1.0195-1.2266-0.54297-0.80469-0.64844-0.91016-0.73828-0.96094-0.09375-0.050782-0.078126 0-0.10547-0.050782-0.027344-0.050781-0.38672-0.078125-0.54297-0.10547l-0.33984-0.082032-0.15625-0.027344c-0.10547 0-0.20703 0.027344-0.28906 0.027344-0.51172 0.046875-1.0039 0.24609-1.4023 0.57422-1.457 1.375-3.1602 2.4648-5.0234 3.2031l-0.13281 0.027344-0.12891 0.027344c-1.4688 0.070312-2.9414-0.0625-4.375-0.39453-1.2969-0.27734-2.5664-0.66797-3.7969-1.168-1.2422-0.48828-2.4062-1.1445-3.4648-1.9531-1.2422-0.91797-2.1016-2.2617-2.418-3.7734-0.43359-1.8945 0.09375-3.8789 1.4023-5.3125 1.0508-1.0469 2.3242-1.8398 3.7227-2.3164 2.0156-0.69922 4.1172-1.1016 6.2461-1.1992 3.4648-0.15625 5.3633 0.31641 5.3633 0.65234 0 0.39062-1.9023 0.67578-5.0508 1.4336l0.003906-0.003907c-1.8594 0.40234-3.6641 1.0039-5.3906 1.7969-0.90625 0.4375-1.7227 1.0469-2.3945 1.7969-0.52734 0.66016-0.66797 1.5508-0.37109 2.3398 0.13281 0.91406 1.8516 2.1602 3.8047 2.8125 1.0234 0.35547 2.0781 0.625 3.1484 0.80859 0.94922 0.1875 1.918 0.26953 2.8906 0.23438 5.3633-0.31641 8.4883-7.7695 13.148-0.85938v0.003906c0.21484 0.37109 0.52734 0.67969 0.91016 0.88281 1.25 0.73828 2.4961 1.5625 3.5391 2.0586 0.47656 0.22266 0.97266 0.40625 1.4805 0.54297 0.47656 0.066406 0.95703 0.066406 1.4336 0l0.78125-0.10547h-0.003906c0.27734-0.0625 0.54688-0.14844 0.80859-0.25781 0.57031-0.15625 1.125-0.35938 1.6641-0.59766 0.49609-0.23437 1.2266-0.54687 1.5352-0.70312 0.54688-0.3125 1.1094-0.625 1.6172-0.9375 0.91016-0.56641 1.7773-1.2031 2.5898-1.9023 1.3398-0.85156 2.0508-2.4102 1.8242-3.9805-0.55078-1.4141-1.4414-2.6758-2.5898-3.6719-1.0898-1.0156-2.1367-1.8516-2.9922-2.5273-1.7148-1.3555-2.6836-2.1367-2.5234-2.418 0.16016-0.28516 1.3516 0.027343 3.4062 0.96094 1.2773 0.59766 2.5039 1.2969 3.6719 2.0859 1.7266 1.1211 3.1094 2.7031 3.9883 4.5664zm-26.711 6.6953v-0.027343h-0.027343 0.003906c0 0.015624 0.011718 0.027343 0.023437 0.027343z"/>
 </g>
</svg>
