<?xml version="1.0" encoding="UTF-8"?>
<svg width="752pt" height="752pt" version="1.1" viewBox="0 0 752 752" xmlns="http://www.w3.org/2000/svg">
 <g>
  <path d="m280.94 475.46h-0.023438l-0.33984 0.31641v-0.003906c-4.2109 3.8203-8.7656 7.2383-13.605 10.215-5 3.1758-10.344 5.7773-15.93 7.75-3.0547 1.0859-6.2461 1.7617-9.4805 2.0078-3.8711 0.42969-7.7695-0.5-11.031-2.6289-3.2852-2.4141-5.5117-6-6.2188-10.016-0.19922-0.96094-0.31641-1.9258-0.42578-2.8867-5.2773 3.1914-10.383 6.6484-15.309 10.359-0.96875 0.57031-2.1289 0.73047-3.2188 0.44141-1.0859-0.28516-2.0156-0.99609-2.582-1.9688-1.5273-2.9609-3.0508-5.8555-4.582-8.7734h0.003906c-0.93359 1.7812-1.6641 3.6602-2.1797 5.6016-1.1719 3.8203-0.77344 7.9492 1.1094 11.469 0.88672 1.4844 2.1055 2.7344 3.5664 3.6523 0.81641 0.3125 1.582 0.76172 2.4297 1.0469 0.90625 0.19531 1.7539 0.50781 2.6914 0.65234 0.93359 0.054688 1.8945 0.14063 2.8281 0.22656h-0.003906c4.3359-0.58203 8.7031-0.86719 13.074-0.85156-0.82031 0-1.2422 4.2734-1.1875 4.7852 8.2422 2.4102 16.988 2.5156 25.293 0.30859 8.8086-1.8555 17.5-4.2383 26.027-7.1289 1.9258-0.65234 3.7617-1.3008 5.4609-2.0078l1.1875-0.51172c0.32812-0.125 0.64062-0.28516 0.93359-0.48047 0.76562-0.50781 1.5273-1.0156 2.293-1.5 3.082-1.9258 5.8281-3.9023 8.4336-5.7734 2.6055-1.8672 4.7812-3.8164 6.9297-5.6016 1.8945-1.9805 3.9336-3.6484 5.4062-5.4922l-0.003906 0.003906c1.457-1.6562 2.8242-3.3828 4.1016-5.1797 0.85156-1.3594 1.6719-2.5898 2.4062-3.793-0.48047 0.45703-0.96094 0.90625-1.5 1.332-2.1992 1.7734-4.5977 3.2812-7.1445 4.4961-2.7539 1.3867-5.7539 2.2148-8.8281 2.4297-1.6562 0.11719-3.3203 0.023438-4.9492-0.28125-1.6562-0.37109-3.2539-0.96094-4.7578-1.7539zm-101.75-35.148c-0.070312-0.26953-0.10938-0.54297-0.11328-0.82031l-0.054687-1.7539h-0.003907c0.003907-1.1719 0.13672-2.3398 0.39844-3.4805 0.51562-2.2266 1.5-4.3203 2.8867-6.1406 1.2539-1.6289 2.7188-3.082 4.3516-4.3281-12.73-24.953-7.3242-55.129 2.5195-80.996-0.03125-0.33984-0.054687-0.67969-0.085937-1.0469-1.1094 2.2891-2.2188 4.6094-3.168 7.1016-1.3633 3.5078-2.5898 7.2148-3.7383 11.031h0.003906c-2.3984 8.0742-4.2305 16.312-5.4844 24.645-1.3984 9.1523-2.0156 18.406-1.8516 27.668 0.12109 9.5352 1.5859 19.004 4.3516 28.133zm416.04-93.172c6.2539 21.461 2.1523 43.77-15.137 58.789-1.0156 0.875-2.0664 1.668-3.1367 2.4648 0.59375 4.1602 1.2734 8.4297 1.4805 12.926v0.003907c0.48438 5.3047-0.44141 10.645-2.6836 15.477-1.3672 2.5977-3.3633 4.8164-5.8008 6.4492-1.625 1.125-3.4062 2-5.293 2.5898v0.19531c-5.1211 24.133-9.5352 47.445-23.965 68.043-12.105 17.316-25.688 35.223-44.586 45.578-40.93 22.426-86.754 39.387-134 36.781-43.711-2.4062-95.938-14.117-131.22-41.531-27.926-21.703-45.211-52.395-59.84-83.941-0.33594-0.42578-0.65234-0.85156-0.96094-1.2773-3.6758-5.207-3.7344-10.73-5.4297-16.52-1.6406-5.5742-4.5547-10.781-6.2109-16.438-3.3789-11.934-4.8594-24.328-4.3867-36.723 1.2227-24.777 7.793-48.996 19.254-70.996 9.1836-18.352 21.246-38.477 39.27-49.473 20.242-12.055 42.055-21.242 64.816-27.301-0.085938-0.17188-0.19922-0.3125-0.28516-0.48047h0.003906c-2.8555-4.5664-4.7422-9.668-5.5508-14.992-0.13281-1.5703-0.0625-3.1484 0.19922-4.6992 0.10547-0.79297 0.26562-1.5781 0.48047-2.3516l0.875-2.2617 0.003906 0.003906c0.66797-1.4531 1.4922-2.8281 2.457-4.1055l0.17187-0.22656s-0.03125 0-0.19531-0.25391c-0.82031-1.3125-1.4609-2.7305-1.8984-4.2148-0.80469-2.8828-0.91406-5.9219-0.3125-8.8555 1.1523-5.3477 3.5234-10.352 6.9336-14.625 3.3008-4.3164 7.2578-8.0898 11.73-11.18 2.3828-1.6367 4.9453-2.9922 7.6406-4.043 1.9961-0.73828 4.0781-1.2148 6.1953-1.418 1.4453-4.0625 4.0898-7.5938 7.582-10.125 18.656-14.543 51.469-14.23 73.711-11.91 8.8008 0.93359 20.117 1.582 27.379 7.2422 10.098 7.7695 18.527 19.578 17.457 32.367v-0.003906c0.84766 0.54688 1.6094 1.2148 2.2617 1.9805 0.60547 0.66797 1.1367 1.3984 1.5859 2.1797 0.42578 0.71875 0.78516 1.4766 1.0742 2.2656 1.0273 2.7422 1.582 5.6406 1.6406 8.5703 0.054687 1.3711 0.027343 2.7383-0.085938 4.1055-0.03125 0.67578-0.085937 1.4414-0.17188 2.0938l-0.17188 1.4805h0.003907c-0.03125 0.18359-0.042969 0.375-0.027344 0.56641v0.67969h0.22656-0.003906c0.23047-0.16406 0.44922-0.34766 0.65234-0.53906l1.1602-0.33594 0.003906-0.003906c2.668 0.96094 4.9688 2.7461 6.5625 5.0938 2.4336 3.6953 4.0039 7.8906 4.5938 12.273 0.35547 2.1016 0.46875 4.2383 0.33594 6.3633-0.10156 1.457-0.30859 2.9062-0.62109 4.332 30.473 2.8594 64.379 24.645 80.234 50.164v-0.003906c3.707-0.039063 7.4023 0.30469 11.039 1.0195 12.359 2.6914 23.781 8.6289 33.09 17.195 9.3047 8.5703 16.164 19.461 19.867 31.555zm-16.605 48.578 0.003906 0.003906c5.7188-6.7773 9.4297-15.02 10.711-23.793 1.2773-8.7734 0.074218-17.734-3.4727-25.859-8.543-20.598-27.895-39.75-51.516-40.09-20.426-0.28125-37.262 9.3945-50.59 24.332-0.19531 0.90625-0.42578 1.8125-0.59375 2.6914-1.332 5.375-2.7461 10.102-3.3672 14.457l0.003907-0.007813c-1.2227 7.5625 0.36719 15.312 4.4688 21.785 3.5352 6.3359 6.1133 11.84 8.4023 16.297l1.5273 3.0547c1.7227 1.5547 3.3945 3.082 4.9805 4.6094 0.22656 0.22656 0.45312 0.42578 0.70703 0.65234 5.4414 2.5625 10.449 5.9492 14.852 10.047 0.058593 0.027343 0.085937 0.085937 0.11328 0.10937 20.98 7.7695 47.699 10.102 63.773-8.2695zm-10.41 37.09v0.003906c1.5156-3.4922 2.1094-7.3125 1.7266-11.098-0.10938-2.7695-0.48047-5.6562-0.90234-8.6289-1.332 0.62109-2.6602 1.1875-4.0195 1.6992-0.14453 0.10938-0.25391 0.17188-0.39453 0.28125v-0.003906c-2.3789 1.668-4.9297 3.0742-7.6133 4.1914-3.4961 1.4141-7.2695 2.0234-11.035 1.7812-4.4297-0.36719-8.7812-1.3633-12.926-2.9609-1.1328-0.39453-2.3203-0.875-3.4805-1.2969-1.1562-0.19922-2.3203-0.45703-3.4766-0.71094 1.8945 2.2383 3.7617 4.5 5.6875 6.6797h-0.003906c4.832 6.2812 11.07 11.34 18.219 14.77 3.3242 1.2969 6.9648 1.5547 10.438 0.73828 3.2656-0.57812 6.1133-2.5625 7.7812-5.4258zm-15.445 28.234v0.003906c-0.86719 0.6875-1.7734 1.3203-2.7148 1.8984-10.473 18.305-24.656 34.215-41.648 46.707-14.055 10.48-29.227 19.371-45.238 26.508-28.488 13.102-52.227 20.258-70.926 22.438h-0.003907c-7.9102 0.85547-15.867 1.1875-23.82 0.99219-6.5898-0.085938-11.84-0.37109-15.91-0.53516v-0.003907c-3.9258 0.082031-7.8516-0.24219-11.715-0.96094 3.875-0.67188 7.8125-0.91016 11.742-0.71094 4.0703-0.027344 9.3086-0.10938 15.871-0.16797 7.8398-0.074219 15.672-0.60547 23.453-1.5859 18.168-2.5156 41.504-9.8438 69.629-23v0.003906c15.707-7.1367 30.598-15.957 44.395-26.316 14.719-10.914 27.316-24.422 37.18-39.859-7.3789 2.9688-15.398 3.9883-23.285 2.957-10.75 19.352-31.207 31.656-49.09 43.766-19.32 13.129-40.43 25.039-63.602 29.652-41.137 8.1758-89.004 9.875-126.41-11.938-0.39453 0.11328-0.79688 0.25391-1.1914 0.39453-1.9492 0.51172-3.8477 0.96094-5.7422 1.3008-1.8945 0.33984-3.7344 0.56641-5.5508 0.73828 2.4648 1.3828 4.8398 2.7695 7.0742 4.0703h0.003907c4.8242 3.0273 9.8203 5.7656 14.965 8.2031 4.1133 1.9023 8.418 3.3438 12.848 4.3047 3.9336 0.98828 7.3555 1.8516 10.328 2.5898 12.051 2.3789 16.648 3.5664 16.551 4.1602-0.10156 0.59375-4.7812 0.42578-17.117-1.1875l-10.609-2.1484-0.003906-0.003906c-4.6758-0.83203-9.2344-2.2148-13.578-4.1289-5.3398-2.3906-10.52-5.1172-15.512-8.168-4.5781-2.7773-9.3086-5.2891-14.172-7.5273-2.3438-0.11328-4.6758-0.35938-6.9922-0.73828-6.5977-1.0156-12.859-3.6094-18.246-7.5547-0.69141-0.5-1.3438-1.0469-1.9531-1.6406-0.94531-0.80078-1.8125-1.6914-2.5898-2.6602-0.84766-1.2188-1.6953-2.3477-2.5469-3.5078-1.7422-0.070313-3.4766-0.30469-5.1797-0.70703-2.207-0.47656-4.2266-1.5742-5.8242-3.168-0.45703-0.54688-0.875-1.1211-1.25-1.7266-0.15625-0.30469-0.26953-0.625-0.33984-0.96094h-0.027343v-0.054688c0.054687-0.058593-0.17188 0.027344-0.22656 0.027344l-0.14453 0.03125c-0.10938 0.03125 0.11328 0-0.22656 0.03125l-0.96094 0.082031c-1.2734 0.11328-2.5469 0.23047-3.8477 0.28516-1.3281-0.085937-2.6875-0.17187-4.0195-0.28516l0.003906-0.007812c-1.0508-0.16016-2.0898-0.38672-3.1094-0.67578 8.6094 13.75 19.477 25.957 32.141 36.098 34.262 26.594 85.641 40.176 128.47 41.59 44.477 1.4805 87-12.211 125.81-33.469 20.402-11.176 35.887-29.168 48.211-48.719 8.1133-13.812 13.746-28.941 16.641-44.695zm1.3594-13.949v0.003906c-2.4414-0.19922-4.8438-0.74219-7.1328-1.6133-1.4453-0.56641-2.8555-1.2266-4.2148-1.9805l-1.3594 0.59375-4.0977 1.8516c-2.7188 1.1914-5.4336 2.4062-8.1406 3.5977-1.3281 0.56641-2.6914 1.1562-4.1016 1.6953l-2.7695 1.0781c-1.5273 0.53516-3.0547 1.0781-4.5859 1.582h-0.003906c-2.5469 0.79688-5.1328 1.4688-7.75 2.0078 10.852 9.9961 38.973 5.0391 44.156-8.7969zm-17.883-6.9297 2.1211 0.51172c-1.2422-0.90625-2.4609-1.8516-3.6172-2.8047l-0.003906 0.003906c-3.3047-2.9844-6.4219-6.168-9.3359-9.5312-5.8516-7.5625-12.293-14.648-19.266-21.191-4.4844-3.9102-9.9219-6.5625-15.758-7.6992-2.9883-0.59766-6.0898-0.23047-8.8594 1.0469-3 1.5625-5.7266 3.6055-8.0625 6.0547-4.6094 4.6797-7.457 10.805-8.0625 17.344-0.074219 2.9414 0.57812 5.8594 1.8984 8.4883l1.1328 1.8516h-0.003906c0.28906 0.39453 0.59766 0.77344 0.93359 1.1328 0 0.027344 0.085938 0.085937 0.14062 0.10938l0.085938-0.17188 1.1602-2.0664 1.4141-2.2656v0.003907c1.9844-3.2969 4.668-6.1172 7.8672-8.2617 1.7891-1.1328 3.7734-1.9219 5.8555-2.3203 1.0312-0.15234 2.0703-0.23828 3.1133-0.25391 1.0039 0.007813 2.0039 0.09375 2.9961 0.25391 3.5312 0.65625 6.9219 1.9297 10.016 3.7656 5.7461 2.9961 10.891 6.4492 15.91 9.2773 1.2773 0.67578 2.5195 1.4141 3.7656 2.0078l1.8945 0.875 1.2188 0.53516-0.003906 0.003906c0.68359 0.32031 1.3945 0.57422 2.1211 0.76562 3.1289 0.85547 6.2422 1.7031 9.3281 2.5547zm-14.801 4.2422c0.19531-0.11328 0.62109-0.25391 0.56641-0.33984v0.003906c-0.25-0.042968-0.5-0.10937-0.73828-0.19531 0 0-0.054688-0.03125-0.054688 0l-0.82031-0.37109-2.1484-0.98828c-1.418-0.67969-2.7734-1.4414-4.1602-2.1797-5.4609-3.0273-10.496-6.3945-15.816-9.1133-5.1797-2.9609-10.242-4.2422-13.918-1.668l-0.003907 0.003906c-2.1836 1.5508-4.0156 3.5469-5.375 5.8555l-1.1875 1.9531-1.2461 2.2656c-0.027344 0.054688-0.054688 0.085938-0.085938 0.14063 0.19922 0.1875 0.375 0.41016 0.50781 0.64844 0.73828 1.1562 1.4141 2.3203 2.0938 3.5078h0.003906c1.3906 0.87891 2.8359 1.6602 4.3281 2.3516 4.7773 2.2695 10.012 3.4219 15.305 3.3672 5.6875-0.14844 11.316-1.1719 16.691-3.0312 1.3867-0.48047 2.8008-0.98828 4.2422-1.5zm-7.1055-144.46 0.003906 0.003907c2.3984-0.71094 4.8359-1.2891 7.2969-1.7227-15.645-22.234-46.852-41.305-73.629-42.777h0.003906c-0.66406 1.2539-1.4023 2.4648-2.2188 3.6211 3.5625 0.58984 7.0859 1.4023 10.551 2.4336 9.1133 2.6562 17.891 6.3672 26.145 11.062 5.8398 3.2695 11.379 7.0547 16.547 11.309 5.7812 4.6758 10.926 10.086 15.309 16.09zm-26.926 191.45c9.4609-6.4844 17.57-14.75 23.875-24.332-4.7148-1.9727-8.6289-5.4805-11.098-9.957-0.48047 0.027344-0.98828 0.085938-1.4805 0.085938-5.0742-0.003906-10.109-0.92578-14.855-2.7188 4.293 11.809 5.5195 24.512 3.5586 36.922zm22.66-189.95h0.003906c-3.9844-5.3125-8.5781-10.133-13.691-14.371-4.9766-4.1289-10.285-7.8398-15.871-11.098-7.9531-4.6875-16.348-8.5703-25.066-11.598-2.2656-0.79297-4.3047-1.4414-6.1406-2.0078l-0.003906-0.003906c4.5312 5.0273 8.0234 10.902 10.273 17.285 16.438 4.5273 26.199 17.09 31.52 32.395v0.003907c5.7969-4.4062 12.188-7.9766 18.98-10.605zm-32.277 91.641c3.2422-1.5898 6.8281-2.3516 10.438-2.2227l-0.42188-0.33984c-5.1484-4.7539-11.516-7.9844-18.395-9.3359-3.4258-0.30078-6.8555 0.58594-9.7031 2.5156-3.168 2.2812-5.8398 5.1758-7.8633 8.5117-2.2305 3.3711-3.5625 7.2578-3.875 11.289-0.17578 4.2383 0.77344 8.4492 2.7422 12.207 1.7773 3.4023 3.9648 6.5742 6.5039 9.4492-0.042968-0.50781-0.0625-1.0156-0.054687-1.5273 0.62891-8.5664 4.2695-16.633 10.273-22.773 2.9805-3.1641 6.4844-5.7969 10.355-7.7734zm4.3008-13.664c0.76172 0.45313 1.4414 0.96094 2.1797 1.4414-1.5586-2.6602-3.2578-5.5195-5.1797-8.5469h-0.003906c-2.2773-3.4727-4.0508-7.2578-5.2617-11.23-1.3672-4.7227-1.7227-9.6758-1.0469-14.543 0.59375-5.0664 1.9805-10.07 3.0859-15.137l0.054687-0.45313c-0.03125-0.11328 0.085938-0.33984-0.14062-0.23047v0.003906c-0.15625 0.035156-0.30859 0.09375-0.45312 0.17188l-0.45312 0.19922-1.6406 0.84766h0.003907c-2.4336 1.332-4.6953 2.957-6.7344 4.8398-1.6797 1.5117-3.1641 3.2344-4.4141 5.1172-0.070312 0.30859-0.15234 0.60938-0.25391 0.90625-0.25391 0.89844-0.80078 1.6797-1.5586 2.2227-1.1328 2.2188-2.2188 4.7539-3.6758 7.5h-0.003907c-0.59766 1.125-1.3594 2.1523-2.2578 3.0508l-1.9531 1.8516h-0.003906c-6.1094 6.2891-10.5 14.047-12.746 22.523-0.70703 3.3945-0.57422 6.9102 0.39453 10.242 0.64453 1.9609 1.6211 3.7969 2.8867 5.4297 0.85547-2.4453 2.0156-4.7734 3.4492-6.9297 2.5664-4.0742 5.9414-7.582 9.918-10.301 4.0586-2.6445 8.9062-3.8047 13.723-3.2812 4.2891 0.55469 8.4102 2.0234 12.082 4.3047zm-1.8516-57.742c1.2461-1.3008 2.5195-2.5469 3.8203-3.7383-3.6211-12.281-9.9883-22.938-21.418-28.18 2.8359 12.535 3.5625 25.453 2.1484 38.223 1.5234-1.0938 3.1211-2.082 4.7812-2.9609 0.82031-0.39453 1.418-0.73828 2.3789-1.1328l3.6484-1.2734c1.5391-0.37891 3.0664-0.6875 4.6211-0.94141zm-2.5156 174.47c2.9922-11.305 2.832-23.211-0.45703-34.434-0.58984 3.9688-2.1641 7.7227-4.582 10.922-5.6328 7.3008-15.305 9.5352-21.898 15.758-6.2891 5.9688-13.723 14.539-23.199 14.539-4.5 0-7.3555-3.3086-11.121-5.0898-8.2305-3.9023-13.551 8.6016-16.324 13.352v0.003906c-1.1992 2.0117-3.793 2.6914-5.8242 1.5273-0.45312-0.25391-0.93359-0.50781-1.4141-0.76172-10.215 9.2227-22.973 11.312-34.801 2.3477-12.816-9.6797-10.656-30.16-26.875-33.973-0.03125 0.70703-0.058594 1.4141-0.11328 2.1211h-0.003906c-0.51953 10.082-4.8203 19.594-12.051 26.641 3.2773 10.473 7.8594 20.488 13.637 29.82 24.109 2.8438 48.535 1.4062 72.145-4.2461 22.164-5.6133 43.062-15.387 61.574-28.805 3.6484-2.5508 7.4414-5.0664 11.23-7.6406-0.14844-0.69141-0.12891-1.4023 0.058594-2.082zm-20.512-22.266c11.172-6.4492 12.645-13.41 11.879-25.633-0.066406-0.66797 0.046875-1.3398 0.32031-1.9492-1.7539-1.3867-3.5078-2.7734-5.0898-4.2734-0.17188-0.19922-0.28516-0.3125-0.42578-0.45313v0.003907c-7.918-6.2461-14.5-14.02-19.352-22.863-1.4609-2.9531-2.4727-6.1094-3-9.3633-2.9336-1.293-5.9727-2.3438-9.0781-3.1406-1.8203-0.41797-3.6836-0.64453-5.5508-0.67578-0.67969 0-1.3008 0.054688-1.9258 0.10938-8.6016 12.504-21.09 23.227-35.957 19.719-6.2266-1.4805-10.016-5.0352-15.539-7.8086-8.5469-4.3281-16.352 5.1484-22.094 9.4805-3.9297 3.0977-8.5703 5.168-13.5 6.0273-0.76172 0.62109-1.8516 1.3281-3.1406 2.1797v-0.003906c-3.3555 2.4883-6.207 5.5898-8.4023 9.1406-0.33984 0.59375-0.56641 1.1875-0.84766 1.7812v-0.003906c-0.03125 0.074218-0.0625 0.15234-0.082031 0.23047-0.25391 0.62109-0.56641 1.2148-0.82031 1.8086h-0.003906c-0.81641 2.1953-1.4805 4.4453-1.9766 6.7344 1.0391 0.83203 1.9844 1.7695 2.8242 2.8008 1.9102 2.4648 3.3438 5.2695 4.2188 8.2617 0.52734 1.8672 0.92188 3.7656 1.1875 5.6875 8.8281 1.2969 15.445 4.4688 19.805 13.043 2.5156 4.9492 3.4766 10.668 6.5039 15.418 8.4062 13.27 20.992 15.168 32.031 3.5664 1.3789-1.3438 3.4766-1.6094 5.1445-0.65234 0.14453 0.085938 0.3125 0.17188 0.45703 0.25391 3.1367-5.6328 7.0703-12.336 13.184-13.949v0.003906c2.8203-1.0508 5.8828-1.2773 8.8281-0.65234 3.3281 0.90625 9.1641 6.8477 12.703 5.4609 10.223-4.0234 17.973-14.688 27.68-20.289zm-3.3008-134.25c5.7109-19.691 4.3555-60.234-13.754-74.184-3.5625 3.2148-7.4375 6.0664-11.57 8.5117-5.8555 3.5352-11.684 6.3359-17.23 8.9961-5.5469 2.6602-10.582 5.2891-15.418 8.2305-4.832 2.9453-9.4219 6.0078-14.023 8.8633-8.5938 5.8516-18.07 10.285-28.066 13.129-2.3672 0.5625-4.7695 0.97656-7.1875 1.2461l-3.8164 0.085938c-1.3047-0.082031-2.6016-0.26172-3.8789-0.53906-1.25-0.375-2.4766-0.82812-3.668-1.3555-1.0195-0.625-2.1797-1.2461-3.0312-1.8672v-0.003906c-1.4844-1.1602-3.0547-2.2109-4.6953-3.1406l-1.0781-0.59375c-0.37109-0.16797-0.76172-0.28125-1.1094-0.42188-0.67578-0.28125-1.3789-0.49609-2.0938-0.65234-1.2539-0.18359-2.5352-0.019531-3.6992 0.48047-2.7148 1.0156-5.375 3.2539-8.8594 4.8398-1.8672 0.85938-3.9102 1.2656-5.9648 1.1875-2.082-0.14453-4.0703-0.90234-5.7188-2.1797-1.4844-1.2188-2.6172-2.8125-3.2812-4.6133-0.52344-1.5312-0.82031-3.1328-0.875-4.75-0.09375-2.793 0.33984-5.5742 1.2695-8.207 0.19922-0.60937 0.43359-1.207 0.69922-1.7891 0.0625-0.22266 0.15625-0.43359 0.28125-0.62109l0.19922-0.33984 0.003906-0.003906c0.11328-0.16406 0.24609-0.3125 0.39453-0.44922-0.94922-0.39453-1.8594-0.87891-2.7148-1.4453-1.7695-1.1836-3.2188-2.7891-4.2188-4.668-11.469 16.578-17.258 32.426-9.5352 53.359 7.3008 19.75 18.023 38.277 38.023 47.277 17.473 7.4727 36.457 10.738 55.426 9.5352 20.992-1.0156 37.406-8.3711 56.699-15.648 1.9062-8.1211 5.7266-15.664 11.145-22.008 1.2539-1.5312 2.5859-2.9922 3.9922-4.3867l1.9492-1.8125c0.19141-0.14062 0.34766-0.32422 0.45312-0.53516 0.14062-0.25391 0.22656-0.28125 0.42188-0.65234 1.4727-2.6484 2.8008-5.8047 4.5312-8.875zm-10.668-97.195c0.070312-1.543-0.023438-3.0898-0.28125-4.6133-0.42969-3.0898-1.5078-6.0469-3.1719-8.6836-0.55078-0.85547-1.3359-1.5352-2.2617-1.9531-0.078125-0.003906-0.15625-0.019531-0.22656-0.058594-0.042969-0.03125-0.089844-0.046875-0.14062-0.054687l-0.79297 0.28125c-1.1328 0.42578-2.0391 0.67969-3.3281 1.2734-2.7461 1.332-5.4922 2.7148-8.2344 4.0703 0.82031-2.3477 1.668-4.7266 2.5195-7.1016h-0.003906c0.91406-2.3398 1.6367-4.7539 2.1523-7.2148 0.085937-0.45312 0.28125-1.2188 0.28125-1.4414l0.11328-0.79297c0.054688-0.51172 0.11328-1.0469 0.14062-1.582 0.078125-1.0547 0.089844-2.1133 0.03125-3.1719-0.035156-1.6367-0.28516-3.2617-0.74219-4.8359-8.0469 12.77-20.078 22.535-34.23 27.781-0.45703 2.1016-1.1797 4.1367-2.1523 6.0547-1.6484 3.0508-3.7148 5.8555-6.1445 8.332-5.3867 5.2344-11.59 9.5625-18.359 12.816-5.0898 2.4883-8.4297 3.5938-8.7422 3.0273-0.31641-0.56641 2.4648-2.7422 7.0312-5.9414h-0.003906c5.9336-3.9102 11.504-8.3398 16.648-13.238 2.1211-2.1719 3.9883-4.5742 5.5742-7.1602 0.44531-0.77734 0.84375-1.5781 1.1875-2.4062-12.594 3.2031-25.891 2.1484-37.824-2.9961-2.1523 4.6602-4.8711 9.043-8.0898 13.043-1.1055 1.4375-2.3164 2.7891-3.625 4.043-1.2305 1.2773-2.5547 2.457-3.9609 3.5391-1.332 1.1094-2.7617 2.0977-4.2695 2.957-1.4141 0.875-2.8789 1.6602-4.3867 2.3516-2.8164 1.375-5.7656 2.4648-8.8008 3.25-1.7617 0.45312-3.5898 0.60547-5.4023 0.45312-2.2344-0.25391-4.3047-1.3047-5.8281-2.9609-1.1836-1.3203-2.0781-2.8711-2.6328-4.5547-0.28125-0.70703-0.42188-1.3594-0.65234-2.0391-0.14062-0.48047-0.054687-0.28125-0.085937-0.37109l0.003906-0.074218-0.027344-0.48047-0.03125-0.28125c-0.027344 0-0.054688 0.054687-0.10938 0.11328-0.085937 0.097656-0.19531 0.17188-0.3125 0.22656-0.054687 0-0.082031 0.027343-0.054687 0.054687h-0.054688l-0.33984 0.11328-0.73828 0.17187h-0.003906c-1.0352 0.125-2.0859-0.003906-3.0586-0.37109-1.4883-0.59375-2.7734-1.6055-3.6992-2.9102-0.65625-0.94141-1.2148-1.9492-1.668-3-1.4297-3.3906-2.0625-7.0625-1.8516-10.73 0.58594-4.7852 1.7539-9.4805 3.4805-13.98 2.1797-6.4766 2.3203-9.3359 3.2266-9.3906 0.62109-0.14453 1.9805 3.0508 0.90625 10.359v0.003906c-0.90234 4.332-1.4609 8.7305-1.6758 13.156 0.082031 2.7109 0.75 5.375 1.957 7.8086 0.27734 0.5625 0.62109 1.0938 1.0156 1.582 0.09375 0.16016 0.23047 0.28906 0.39453 0.37109l0.23047-0.19531c0.48438-0.46875 0.91406-0.98828 1.2734-1.5586 0.875-1.1875 1.7812-2.4336 2.6875-3.6484s1.7539-2.4883 2.6602-3.7617c0.19531 0.67578 0.39453 1.2734 0.59375 2.0352 0.19922 1.0195 0.39453 2.0664 0.59375 3.1133 0.39453 2.0938 0.79297 4.3594 1.2734 6.5391l0.39453 1.668c0.11328 0.48047 0.28516 1.3008 0.33984 1.3867 0.17187 0.45312 0.3125 0.98828 0.51172 1.4141v-0.003907c0.23047 0.71094 0.60938 1.3672 1.1094 1.9258 0.27344 0.26172 0.63672 0.41406 1.0156 0.42578 0.90234 0.011718 1.7969-0.11328 2.6602-0.37109 2.4883-0.72656 4.9062-1.6836 7.2148-2.8555 9.1016-4.9102 16.234-12.801 20.203-22.352-1.6445-0.96094-3.3125-1.9805-4.9258-3.0859-10.891-7.4961-31.488-23.395-34.375-38.816-3.0938 0.72266-6.0195 2.0508-8.5977 3.9062-3.7148 2.5586-7 5.6914-9.7344 9.2773-2.6094 3.2148-4.457 6.9766-5.4023 11.008-0.35156 1.6445-0.3125 3.3516 0.10938 4.9805 0.21484 0.72266 0.51953 1.418 0.90625 2.0625 1.3281 1.5586 2.9414 3.2812 4.5859 4.9258-1.6992 1.7773-3.3984 3.5312-5.0938 5.2617-0.53906 0.74219-1.0117 1.5273-1.4141 2.3477-0.14062 0.39453-0.3125 0.79297-0.48047 1.1875-0.17188 0.39453-0.14062 0.84766-0.25391 1.2734h-0.003906c-0.13672 0.87891-0.17578 1.7734-0.11328 2.6602 0.66797 4.1445 2.168 8.1094 4.4141 11.656 2.1797 3.9336 4.6992 7.7266 6.9609 11.91 1.1602 2.1641 2.1484 4.4141 2.957 6.7344 0.76562 2.4648 1.1328 4.6992 1.5586 6.707 0.16406 3.1797 1.4688 6.1953 3.6797 8.4883 1.207 0.77344 2.5508 1.3086 3.9609 1.582 1.5117 0.19141 3.0469 0.17188 4.5547-0.054687 3.2539-0.64844 6.3633-1.8633 9.1953-3.5938 0.76172-0.45703 1.3594-0.79688 2.2188-1.3867 1.4414-0.96094 2.7734-2.1797 4.1602-3.2578 1.3633-1.2148 2.6914-2.4062 4.0469-3.5625l1.9258-1.7227 1.4805-1.1328c-0.14453 2.0352-0.28516 4.043-0.39453 6.0547l-0.19922 2.9609-0.003906-0.003906c-0.035157 0.41406-0.027344 0.83203 0.027343 1.2461l0.10938 1.1094 0.11328 1.0742 0.003906-0.003906c0.027344 0.10547 0.078125 0.19922 0.14062 0.28516 0.070312 0.18359 0.16797 0.35547 0.28516 0.50781 0.21875 0.26562 0.46484 0.5 0.73828 0.70703 1.5625 1.0156 3.3516 1.6172 5.207 1.7578 4.3242 0.375 8.6836 0.15625 12.949-0.65234 4.0586-0.70312 8.0664-1.6758 11.996-2.9141 1.7812-0.55859 3.5273-1.2188 5.2305-1.9805 1.7578-0.79297 3.4531-1.582 5.125-2.3477 10.707-4.3594 20.598-10.5 29.25-18.164 4.5703-4.3789 8.4258-9.4492 11.426-15.02 1.9492-3.5352 2.8281-5.2305 3.2539-5.0898 0.33984 0.11328 0.19531 2.0391-1.1602 6.0273l-0.003906-0.003906c-2.2578 6.3633-5.7891 12.199-10.383 17.145-8.5547 8.6406-18.637 15.625-29.734 20.598-1.668 0.81641-3.3672 1.668-5.1211 2.5469-1.8867 0.9375-3.832 1.75-5.8281 2.4297-4.1953 1.457-8.4883 2.6172-12.844 3.4805-4.9219 1.0586-9.9727 1.4102-14.992 1.0469-3.1445-0.22266-6.168-1.2773-8.7734-3.0547-0.76953-0.55859-1.4609-1.2148-2.0625-1.9531-0.29297-0.34375-0.55078-0.71484-0.76562-1.1094l-0.33594-0.56641-0.03125-0.054688c-0.082031-0.14844-0.12109-0.3125-0.11328-0.48047v-0.14062l-0.14062 0.14062-0.25391 0.22656-0.22656 0.19922c-0.62109 0.45312-1.582 1.0742-2.4062 1.5547v-0.003906c-3.6016 2.2656-7.5781 3.8633-11.742 4.7266-2.3633 0.40234-4.7773 0.45312-7.1562 0.14453-0.027344 0-0.054688-0.03125-0.10938-0.03125l-0.59375 0.96094h-0.003906c-0.19141 0.28516-0.32422 0.60156-0.39844 0.93359-0.19141 0.46094-0.35156 0.93359-0.48047 1.418-0.58203 2.0977-0.78906 4.2773-0.62109 6.4492-0.003906 2.043 0.87109 3.9922 2.4062 5.3438 0.78516 0.53125 1.707 0.82812 2.6562 0.85156 1.1289-0.023438 2.2344-0.3125 3.2266-0.85156 2.4336-1.1328 5.0078-3.5078 8.9414-5.2617v0.003906c2.2031-0.98438 4.6367-1.3438 7.0312-1.0469 1.1367 0.17969 2.25 0.47266 3.3281 0.875 0.53906 0.19922 1.0781 0.33984 1.6133 0.56641l1.5 0.76172c1.8633 1 3.6602 2.125 5.375 3.3672 0.82031 0.53906 1.5273 0.875 2.293 1.332 0.74609 0.30078 1.5117 0.55469 2.2891 0.76172 0.82422 0.16406 1.6562 0.26953 2.4922 0.3125 0.93359-0.054687 1.8516-0.085937 2.7695-0.14062 2.0898-0.27344 4.1602-0.67969 6.1992-1.2188 9.1719-2.832 17.84-7.0898 25.688-12.617 4.4727-2.8867 9.082-6.0273 14.059-9.1367 5.1758-3.1758 10.508-6.0898 15.98-8.7227 5.5156-2.7148 11.148-5.4609 16.492-8.7695v0.003906c5.4414-3.0938 10.258-7.1719 14.207-12.027 1.8047-2.4062 3.168-5.1172 4.0156-8.0039 0.31641-1.4883 0.55469-2.9883 0.71484-4.5zm-20.719-42.41c4.2422-12.73-6.3984-28.629-19.07-32.109v-0.003907c-7.9141-2.0664-16.039-3.2227-24.219-3.4531-17.758-0.70703-39.27-0.81641-55.496 7.5547-26.398 13.688 9.3359 40.008 23.281 48.578 27.727 17.059 58.055 7.7227 75.254-18.871v0.003906c-0.019531-0.58203 0.070312-1.1641 0.26172-1.7148zm1.9258 189.9h-0.003906c-9.4688 4.7188-19.523 8.1523-29.906 10.211-10.465 1.6523-21.066 2.3047-31.656 1.9531-14.996-0.44141-29.797-3.4961-43.742-9.0273-1.7852 1.6992-3.6211 3.3125-5.4883 4.8945h0.003906c3.375 1.8281 6.4023 4.2422 8.9375 7.1289 3.1211 3.7109 5.2812 8.1328 6.2891 12.875 0.49609 2.3125 0.78125 4.668 0.85156 7.0312 12.902 1.1875 17.598-7.4961 27.836-13.41 5.2344-3.0273 11.66-5.6562 17.57-2.6562 12.023 6.082 22.125 13.129 34.43 1.5l0.003906-0.003906c6.1914-5.8555 11.238-12.812 14.887-20.512zm-101.79 91.789c0.46094-4.4453 0.085937-8.9336-1.1094-13.238-0.56641-1.9688-1.4961-3.8125-2.7461-5.4375-0.5625-0.69531-1.207-1.3164-1.9219-1.8477-0.42188 0.59375-0.84766 1.1602-1.3281 1.7266-0.17188 0.875-0.42578 1.8086-0.73828 2.8555-0.45312 1.418-0.96094 3.0039-1.5273 4.7539-0.84766 1.6406-1.7539 3.4531-2.7422 5.4297l-0.003907 0.003907c-1.2109 2.0898-2.5547 4.1016-4.0195 6.0273-1.707 2.2031-3.5312 4.3203-5.4609 6.3359-2.1797 2.0352-4.4688 4.2695-7.1016 6.3633-2.6289 2.0938-5.4336 4.3047-8.5469 6.4219-0.79297 0.53516-1.582 1.1094-2.375 1.668l0.003906 0.003906c-0.5 0.33203-1.0234 0.63281-1.5586 0.90625l-1.4805 0.67578c-1.8984 0.85156-3.8203 1.6133-5.8008 2.3477-6.082 2.2656-12.73 4.4414-20.059 6.3672v0.003906c1.6641 0.20312 3.3359 0.31641 5.0078 0.33594 3.168-0.070313 6.3203-0.42969 9.418-1.0742 4.6562-1.0273 9.1875-2.5391 13.52-4.5156 6.8203-3.0273 9.8164-4.5 10.156-3.957 0.25391 0.45312-2.0664 2.8555-8.6289 6.9297l0.003906-0.003906c-4.3281 2.668-8.9883 4.7422-13.863 6.168-3.3828 0.96875-6.8555 1.5938-10.359 1.8711-4.1641 0.14062-8.332-0.11328-12.449-0.76953-2.1523-0.3125-4.3594-0.62109-6.5625-0.875-0.56641-0.054687-1.1328-0.14062-1.6719-0.14062l-1.4805-0.10938c-0.28516 0-0.56641 0.019532-0.84766 0.054688-0.45703 0.085937-1.332 0.085937-0.59375 0.70703 0.18359 0.21094 0.38281 0.41016 0.59375 0.59375 0.085938 0.085937 0.19531 0.14062 0.25391 0.19531 0.25 0.17187 0.84766 0.76562 1.3281 1.0469 8.1406 5.8867 21.09 7.8359 34.348 5.3477 1.668-0.3125 3.3203-0.70703 4.9492-1.1875 1.6719-0.53516 3.3945-1.1094 5.1211-1.7539 3.5508-1.2852 7.0273-2.7695 10.41-4.4375 7.2539-3.4297 13.895-8.0156 19.668-13.586 2.9336-2.8438 5.3555-6.1719 7.1562-9.8438 1.7344-3.9102 2.7617-8.0977 3.0391-12.363zm-4.7539-38.477c3.4062-7.3555 4.5391-15.562 3.25-23.566-0.70703-3.5156-2.2695-6.8008-4.5508-9.5664-2.2734-2.5938-5.043-4.7109-8.1406-6.2227-6.3828-2.1055-13.273-2.0781-19.637 0.085938-3.293 0.90234-6.5312 1.9883-9.7031 3.2539l-2.4062 0.96094c-1.3594 0.56641-2.6875 1.1094-4.0195 1.6719-2.8555 1.2148-5.7734 2.5469-8.4336 3.5938 0.39844-2.8008 0.82031-5.5156 1.1094-8.3164l0.003907-0.003906c0.21484-1.3164 0.30859-2.6523 0.28125-3.9922-0.027344-0.59375-0.027344-1.2148-0.085938-1.8086-0.21094-2.3086-0.80469-4.5664-1.7617-6.6758-1.6484-3.7852-5.0742-6.5-9.1367-7.2422-3.1719-0.48828-6.4102-0.21094-9.4492 0.81641-0.48047 0.27734-1.0078 0.46094-1.5547 0.54297-0.28516 0.10938-0.59375 0.19531-0.875 0.3125v-0.003906c-3.6953 1.5078-7.1875 3.4531-10.414 5.7969-5.7109 4.2773-11.191 8.8594-16.41 13.723-3.3281 2.9609-6.4492 5.6875-9.4766 8.0352 3.6211-1.2188 7.1016-2.293 10.359-3.3672v0.003906c4.4922-1.2539 8.7578-3.2031 12.648-5.7734 1.3906-1.3516 2.5547-2.918 3.4492-4.6406 1.1094-1.8945 2.1797-3.8477 3.4531-5.7734v0.003907c1.2891-2.1211 3.0039-3.9531 5.0391-5.375 1.2578-0.82422 2.7109-1.293 4.2148-1.3594 0.73047-0.050781 1.4688 0.015626 2.1797 0.19531 0.65234 0.13672 1.2852 0.34766 1.8945 0.625 0.53516 0.3125 1.0781 0.59375 1.6133 0.875 0.45312 0.3125 0.84766 0.65234 1.2734 0.96094l-0.003906 0.003907c0.81641 0.68359 1.5625 1.4531 2.2227 2.2891 1.3711 1.7031 2.1836 3.7891 2.3164 5.9727 0 3.4297-1.1992 6.75-3.3906 9.3906-2.6875 3.4375-5.918 6.4102-9.5625 8.8008-5.4609 3.6484-8.293 4.3555-8.543 3.9023-0.33984-0.56641 1.8516-2.2188 6.4766-6.4766 2.9258-2.6289 5.5078-5.6133 7.6953-8.8789 1.3164-1.8359 1.9922-4.0547 1.9258-6.3125-0.16016-1.043-0.63281-2.0078-1.3594-2.7695-0.83984-0.96094-1.8867-1.7188-3.0547-2.2227-0.80859-0.38672-1.7656-0.27344-2.4648 0.28516-1.207 1.0078-2.2109 2.2383-2.9609 3.6211-0.99219 1.6406-1.9531 3.5352-3.0547 5.5703v0.003906c-1.1758 2.4531-2.7656 4.6836-4.6992 6.5938-4.4844 3.3438-9.5078 5.8984-14.852 7.5547-5.207 1.8516-10.695 3.5938-16.156 5.7422-2.7539 1.0547-5.4297 2.3008-8.0078 3.7305-2.4336 1.2617-4.5742 3.0156-6.2891 5.1523-0.69531 0.92578-1.1836 1.9844-1.4453 3.1094-0.11328 0.5625-0.16797 1.1289-0.16797 1.6992l0.058594 0.90625c0.003906 0.16406 0.023438 0.32422 0.054688 0.48047l0.14062 0.70703c0.45313 1.7227 1.0156 3.4219 1.4805 5.1211l0.19531 0.65234c0.058594 0.19531 0.19922 0.45312-0.14062 0.48047l-1.2422 0.48047-2.5508 0.98828c-0.81641 0.33984-1.6953 0.59375-2.5469 1.0195l-1.0469 0.53516 0.003906 0.003906c-0.69922 0.33594-1.3711 0.72266-2.0117 1.1562-0.62109 0.41406-1.2148 0.86719-1.7773 1.3594-0.50781 0.46484-0.97266 0.97656-1.3867 1.5273-0.82031 1.0078-1.375 2.2031-1.6133 3.4805-0.10938 0.67578-0.14844 1.3594-0.11719 2.0391 1.1094 2.4609 2.2188 4.9219 3.3281 7.3984 4.1836 4.8398 7.9492 4.9258 13.383 3.1719-0.085938-0.33984-0.14453-0.67969-0.19922-1.0195-1.2422-8.7695 10.242-16.18 16.836-20.793 8.7969-5.9336 18.324-10.699 28.348-14.176 19.859-7.2148 40.699-11.008 60.801-17.426 0.42188-0.13281 0.85938-0.19922 1.3008-0.19922 1.3047-0.54297 2.793-0.41406 3.9844 0.34766 1.1875 0.76172 1.9297 2.0586 1.9844 3.4688 0.58594 5.7188 1.8008 11.355 3.6211 16.809 1.0703 1.1133 1.5234 2.6797 1.2148 4.1875-0.3125 1.5117-1.3477 2.7695-2.7695 3.3672-25.008 9.9297-50.754 18.648-74.293 31.547v-0.003906c-0.125 1.9883-0.011719 3.9805 0.33984 5.9414 0.26172 1.8945 1.2422 3.6172 2.7422 4.8086 1.7148 1.0039 3.7148 1.4141 5.6836 1.1641 2.4883-0.23047 4.9414-0.76172 7.3008-1.582 4.9609-1.7852 9.7148-4.1016 14.176-6.9062 4.3906-2.6953 8.5273-5.7812 12.363-9.2227l0.39453-0.37109 0.70703-0.73828 2.7734-2.8828 0.67578-0.70703 0.33984-0.37109c0.10938-0.14062 0.22656-0.3125 0.33984-0.10938l3.168 2.4297 0.76562 0.59375 0.39453 0.3125 0.64844 0.45312 0.62109 0.29688c0.79688 0.41797 1.6406 0.74219 2.5156 0.96484 0.91406 0.14844 1.8477 0.19531 2.7734 0.14453 4.1953-0.55469 8.1328-2.3398 11.312-5.125 6.8594-5.6953 12.211-12.992 15.586-21.242zm3.8164 93.871v0.003906c-3.7734-7.0312-6.9688-14.355-9.5625-21.902-4.9297 3.7422-10.242 6.957-15.844 9.5898-1.6406 0.82031-3.2812 1.5273-4.9492 2.2188v0.003907c9.6445 4.6484 19.852 8.0391 30.359 10.09zm-17.707-142.2c2.3477-1.8945 4.668-3.8477 6.9023-5.8555h0.003907c-2.9961-1.6289-5.8906-3.4414-8.6602-5.4336-16.918-12.211-29.969-37.062-32.734-57.574l0.003906 0.003907c-1.5898-11.188 0.28516-22.59 5.375-32.68-2.9297-0.1875-5.8672-0.20703-8.7969-0.058594-4.332 0.82422-8.2969 2.9805-11.348 6.1602-3.0508 3.1836-5.0312 7.2383-5.6719 11.602-2.4062 11.469 1.3008 18.164 6.6172 28.008 2.5898 4.8086 5.4609 10.695 3.8477 16.324-1.7812 6.3125-11.57 16.777-12.336 23.852 2.832-0.60547 5.7461-0.68359 8.6055-0.22656 6.1758 1 11.465 4.9805 14.145 10.637 1.3711 2.8203 2.2461 5.8516 2.5898 8.9688 0.085938 0.76172 0.085938 1.5547 0.14453 2.3203h-0.003907c0.015625 0.14062 0.015625 0.28125 0 0.42187 0.019531 0.22656 0.011719 0.45703-0.027343 0.67969 0.17187 0 0.48047-0.22656 0.70703-0.3125l0.70703-0.3125 2.3789-0.99219v0.003907c3.3984-1.4023 6.875-2.6133 10.41-3.6211 3.8242-1.1172 7.7617-1.8086 11.738-2.0664 1.8047-0.085938 3.6094-0.035157 5.4023 0.15234zm-4.3281 42.547c-1.1094-4.1875-2.375-8.3164-3.1133-12.562-32.391 9.8438-72.453 14.539-96.137 40.625 2.2656 5.1484 4.8672 10.102 7.4688 15.082 27.699-19.855 60.238-30.832 91.781-43.137zm-12.531-163.46c0.15625-0.19922 0.32422-0.39062 0.50781-0.56641-0.37109-1.668-0.70703-3.2578-1.1328-4.6133-0.67578-1.8398-1.4883-3.625-2.4297-5.3477-0.76562-1.3867-1.582-2.7695-2.4609-4.1875-0.53125 0.55859-1.207 0.94922-1.9531 1.1328-20.703 5.3359-40.578 13.465-59.086 24.164-17.117 10.438-29.109 27.008-37.992 44.77-18.078 36.098-28.547 79.242-11.574 117.29 0.39453-0.39453 0.82031-0.79297 1.2188-1.2148h-0.003907c0.87109-0.73828 1.7852-1.418 2.7461-2.0391 0.17188-0.11328 0.37109-0.25391 0.56641-0.37109-3.1953-9.9258-4.875-20.277-4.9805-30.707-0.14453-9.5078 0.52734-19.012 2.0078-28.406 1.293-8.5117 3.1914-16.922 5.6875-25.16 1.1875-3.9336 2.4883-7.6953 3.9336-11.348 1.4414-3.6523 3.2266-6.9844 4.7812-10.359 6.0195-11.777 14.043-22.418 23.707-31.449 3.9727-3.7344 8.1914-7.1992 12.621-10.383 2.1484-1.3867 4.2148-2.6875 6.1953-3.9883 1.0195-0.62109 1.9844-1.2734 2.9609-1.8516 1.0195-0.53516 2.0078-1.0469 2.9609-1.5586l-0.003906 0.003906c10.887-5.9219 22.375-10.672 34.262-14.176 3.4766-1.1953 7.0859-1.9414 10.75-2.2188-3.2812 1.5938-6.7109 2.8633-10.242 3.793-11.512 4.1094-22.652 9.1914-33.297 15.191-0.93359 0.53516-1.8945 1.0469-2.8555 1.6133-0.45703 0.25391-0.875 0.56641-1.332 0.84766 10.359-4.7734 21.535-7.5195 32.926-8.0938 1.6289-0.17578 3.2695-0.22656 4.9023-0.14453 0.19141 0.023438 0.38281 0.0625 0.56641 0.11719 2.3477 0.027343 4.668 0.14062 6.9883 0.37109 0.41797 0.058594 0.82422 0.16406 1.2188 0.30859 2.3281-3.8047 4.9766-7.5938 7.8359-11.414zm-47.16 96.844c4.2422-6.082 14.316-13.582 10.863-22.199-4.0195-10.129-11.77-17.797-11.289-29.395 0.22656-7.9922 2.6211-15.77 6.9297-22.504-19.266 5.7969-36.465 18.527-44.559 37.23-11.035 25.547-21.191 58.254-8.3203 84.82 0.33984-0.25391 0.625-0.48047 0.96094-0.70703 1.7852-1.2188 3.7383-2.4336 5.5508-3.9062 4.3555-3.5156 8.5156-7.2734 12.449-11.258 5.168-5.2188 10.633-10.133 16.375-14.711 3.0391-2.3398 6.3164-4.3594 9.7734-6.0273-1.2383-3.7852-0.77734-7.9219 1.2656-11.344zm-52.258 113c0.4375-1.6484 0.99609-3.2695 1.668-4.8398-1.7227 0.37109-3.4961 0.41797-5.2344 0.14062 1.0469 2.1523 2.125 4.2734 3.1992 6.4219 0.11328-0.58984 0.22656-1.1523 0.36719-1.7227z"/>
  <path d="m576.82 358.64c0.03125 0.62109-1.2734 1.1328-4.6953 1.9805-1.7227 0.39453-3.9883 0.93359-6.9883 1.4414h-0.003906c-2.1484 0.36328-4.3242 0.58203-6.5039 0.65234v0.11328c0.64453 2.6758 0.89453 5.4297 0.74219 8.1758 3.7227 1.3906 7.543 2.5039 11.43 3.3281 2.8867 0.73828 3.957 1.3867 3.9023 1.9805-0.054688 0.59375-1.2461 0.99219-4.3008 1.0156h0.003906c-2.0469-0.0625-4.0859-0.25-6.1133-0.56641-1.3008-0.3125-2.7461-0.64844-4.3281-1.043-0.39453-0.14453-0.84766-0.33984-1.2734-0.51172v0.003906c-0.33203 1.4219-0.83594 2.7969-1.4961 4.1016 2.0039 2.375 3.9297 4.3555 5.4023 6.1953 1.4531 1.6797 2.6797 3.5469 3.6484 5.5469 0.55859 1.0898 0.91406 2.2695 1.0469 3.4844 0.058594 0.76172-0.082031 1.1094-0.37109 1.2422-0.28906 0.13281-0.65234-0.085937-1.1562-0.59375-0.50781-0.51172-1.1094-1.3828-2.0664-2.5469-0.95703-1.1602-2.2188-2.6602-4.0195-4.5234-1.3594-1.418-3.0508-3.0273-4.9219-5.1211v-0.003906c-1.9531 2.2578-4.4141 4.0156-7.1875 5.1211 0.19922 1.8984 0.57812 3.7773 1.1328 5.6016 0.5625 2.1211 0.98828 3.082 1.2422 4.4414 0.48047 2.6914 0.19922 3.8477-0.37109 3.9922-0.57031 0.14453-1.3008-0.33984-2.4883-2.6914-0.81641-1.4727-1.5273-3.0039-2.125-4.582-0.66797-1.7891-1.168-3.6367-1.4961-5.5156-0.875 0.17188-1.8125 0.3125-2.7461 0.39453-1.1094 0.085938-2.2188 0.11328-3.3281 0.11328-0.054688 0.56641-0.11328 0.99219-0.19922 1.6406-0.25391 1.2461-0.48047 2.5898-0.67578 3.5977-0.45703 1.9805-0.96094 3.5078-1.3008 4.6406-0.65234 2.2617-1.3008 3.1367-1.8945 3.082-0.59375-0.054687-0.99219-1.0156-1.0781-3.5625l-0.003906-0.003906c0.035156-1.6562 0.16406-3.3125 0.39844-4.9531 0.14063-0.98828 0.28516-2.1484 0.42578-3.3672 0.054687-0.59375 0.085937-0.90234 0.14062-1.4414h-0.003907c-1.6328-0.22656-3.25-0.56641-4.8359-1.0195-0.50781 0.79297-1.043 1.582-1.5 2.2656-0.62109 1.0781-1.1875 2.0078-1.6992 2.8867-0.80859 1.4336-1.6953 2.8203-2.6562 4.1562-1.5586 2.0078-2.4648 2.5195-2.9609 2.2188-0.49609-0.30078-0.51172-1.3828 0.3125-3.6484 0.42578-1.1328 0.98828-2.6289 1.8516-4.5 0.45312-0.96094 0.98828-2.0078 1.5547-3.168 0.31641-0.51172 0.65234-1.0781 0.99219-1.6133l-0.003906 0.003907c-2.3594-0.97266-4.625-2.168-6.7617-3.5664-7.2695 6.9609-10.184 8.4609-11.004 7.6406-0.76562-0.82031 0.76172-3.5625 7.4961-10.156-2.6562-2.168-5.0195-4.668-7.0312-7.4414-0.17188 0.054688-0.37109 0.14062-0.53516 0.19531-1.1094 0.48047-2.125 0.90625-3.0312 1.3008v0.003906c-1.4883 0.64844-3.0312 1.168-4.6094 1.5586-2.4883 0.48047-3.4805 0.28125-3.6484-0.28516-0.16797-0.56641 0.5625-1.3867 2.5469-2.4883 0.98828-0.56641 2.2891-1.4141 4.0195-2.3203 0.90234-0.45312 1.8945-0.96094 2.9961-1.5547v-0.003906c-0.57422-1.0156-1.0938-2.0664-1.5547-3.1406-0.54687-1.3398-0.96875-2.7266-1.2617-4.1445l-1.3008 0.085937c-1.3281 0.085938-3.0508 0.19531-4.1602 0.28125v-0.003906c-1.7695 0.14453-3.543 0.18359-5.3164 0.11719-2.7461-0.25391-3.7617-0.73828-3.7617-1.332s1.1328-1.1562 3.6484-1.668c1.2734-0.25391 3.0547-0.67578 5.2344-1.0156 1.1094-0.17188 2.5898-0.33984 3.957-0.53516 0.39453-0.03125 0.76562-0.085937 1.1602-0.11328v-0.007812c-0.058593-1.2812-0.023437-2.5703 0.11328-3.8477-1.3594-0.3125-2.5898-0.59375-3.6992-0.875-2.0391-0.3125-3.6523-0.51172-4.8672-0.79297-2.4609-0.56641-3.3945-1.1602-3.3945-1.7539s0.96094-1.0469 3.5625-1.2734c1.7422-0.125 3.4883-0.14453 5.2344-0.058594 1.1562 0.17188 2.4609 0.37109 3.9023 0.625 0.25391-0.96094 0.56641-1.9258 0.90625-2.8594-0.96094-0.39453-1.8672-0.76172-2.7148-1.1562-1.7539-0.90625-3.3125-1.7539-4.7266-2.5195-2.7461-1.5-4.7812-2.8555-6.3672-3.7891-3.168-1.8125-4.2695-2.9141-4.043-3.4531 0.22656-0.53516 1.668-0.48047 5.3477 0.76172 2.3516 0.89062 4.6562 1.9023 6.9023 3.0273 1.3867 0.65234 2.9102 1.3867 4.6406 2.2188 0.84766 0.33594 1.7539 0.70703 2.7148 1.0742 0.14062-0.25391 0.3125-0.48047 0.45312-0.73828-0.62109-0.67578-1.2148-1.3281-1.7227-1.9492-0.82031-1.1094-1.5586-2.125-2.2188-3.0273-1.2969-1.7266-2.1484-3.2266-2.9102-4.1875-1.5273-1.9531-1.9258-3.0859-1.5586-3.5352 0.36719-0.45312 1.418-0.19531 3.7383 1.4805l-0.003906-0.003906c1.3906 1.1602 2.668 2.4453 3.8164 3.8477 0.70703 0.84766 1.4805 1.7812 2.3477 2.8008l1.0469 1.1328h0.003907c0.85937-1.0078 1.8125-1.9297 2.8555-2.7461-0.65234-1.3594-1.2461-2.6289-1.6992-3.6992-0.82031-1.6406-1.4805-2.8867-1.8672-3.9336-0.79297-2.0664-0.81641-3.1133-0.33594-3.4766 0.48047-0.36719 1.3594 0.085938 2.8867 1.8516l-0.003906-0.003907c1.0156 1.1758 1.9414 2.4258 2.7734 3.7383 0.56641 0.93359 1.1602 2.0352 1.8086 3.2812 2.2539-1.1328 4.7031-1.8125 7.2148-2.0078-0.14062-3.3281-0.25-5.2344-0.28125-7.4688-0.22656-2.9141-0.39453-5.375-0.42578-7.1289-0.054688-3.5078 0.28516-4.9219 0.875-5.0078 0.59375-0.085937 1.2734 1.2734 2.125 4.7266 0.39453 1.7227 0.875 4.0703 1.2969 7.0312 0.23047 2.3477 0.45703 4.4688 0.65234 7.9766v-0.003907c2.332 0.27344 4.6289 0.79297 6.8516 1.5586 4.2734-10.695 6.4492-13.832 7.4688-13.469 1.0195 0.36719 0.50781 4.1016-3.5977 15.082v-0.003906c2.7773 1.3828 5.3711 3.1055 7.7266 5.1211 1.5-1.8672 2.8555-3.5078 4.0469-4.8945 1.6406-2.1211 2.9102-3.8164 3.9883-5.0352 2.1211-2.4336 3.2539-3.1719 3.7617-2.8555 0.51172 0.31641 0.22656 1.6406-1.2734 4.5547-0.76562 1.4414-1.8125 3.3281-3.3125 5.6562-1.1602 1.582-2.5195 3.3945-4.1016 5.4609 1.8125 1.8828 3.4688 3.9062 4.9531 6.0547 6.3359-2.3477 10.555-4.6953 13.383-5.6016 2.9609-1.0469 4.2422-1.1094 4.5-0.56641 0.25391 0.54297-0.59375 1.5273-3.1406 3.2266-1.2734 0.84766-2.9961 1.9531-5.2617 3.2266-1.1875 0.59375-2.4883 1.2734-3.9336 2.0078-0.98828 0.45312-2.0938 0.875-3.2266 1.3281 0.90625 1.6133 1.7578 3.2812 2.4883 4.9492 2.5352 0.035157 5.0664-0.089843 7.5859-0.36719 2.9609-0.28516 5.2891-0.51172 7.1016-0.53516 3.6523-0.125 5.0977 0.44141 5.0977 0.97656zm-37.941 25.348c11.66-1.0469 16.777-9.1367 13.863-20.312-3.6484-10.41-13.07-22.66-24.641-24.699-17.176-3.0547-26.852 16.836-16.949 30.02 6.3945 8.5156 16.547 15.953 27.727 14.992z"/>
  <path d="m453.09 448.39c0.5 2.1172 0.11328 4.3477-1.0625 6.1797-1.1797 1.8281-3.0547 3.1016-5.1875 3.5234-0.53516 0.14453-1.0156 0.17188-1.5 0.25391 0.41016 1.8008 0.54297 3.6523 0.39453 5.4922-0.28516 2.3516-1.3047 4.5508-2.9141 6.2891-0.99609 1.1055-2.2734 1.918-3.6992 2.3477-0.99219 0.25391-1.5273 0.28516-1.6445 0.03125-0.11328-0.25391 0.22656-0.73828 0.84766-1.3594 0.87109-0.81641 1.625-1.75 2.2383-2.7734 0.83594-1.4648 1.2734-3.1211 1.2734-4.8086-0.125-2.2344-0.64062-4.4258-1.5273-6.4805l-1.2461-3.0547 3.3672-0.085938c1.9258 0.14844 3.8359-0.44141 5.3438-1.6484 1.3008-1.3867 0.625-4.9258-0.45312-7.5547h0.003906c-1.0352-2.4922-2.2734-4.8945-3.6992-7.1875-2.4883-4.0195-4.4141-6.2266-4.0156-6.7617 0.39844-0.53516 3.3086 0.93359 6.7031 4.7266v-0.003906c2.0156 2.2383 3.707 4.75 5.0234 7.457 0.83984 1.7148 1.4297 3.5391 1.7539 5.418z"/>
  <path d="m449.16 294.61c0.62891 2.0664 0.30859 4.3047-0.87891 6.1133-0.89844 1.2656-2.0664 2.3203-3.4219 3.0781 0.79297 2.9141 1.668 6.0273 2.3477 9.4219v0.003906c0.96875 4.2266 1.3477 8.5703 1.1289 12.902-0.11719 3.4961-1.4492 6.8477-3.7617 9.4727-1.2656 1.2617-2.8203 2.1914-4.5234 2.7188-0.84375 0.26172-1.7109 0.43359-2.5898 0.50781-0.21484 3.8008-1.0898 7.5352-2.5898 11.035-1.375 3.3828-3.7188 6.2891-6.7344 8.3477-1.9727 1.2969-4.2383 2.0781-6.5938 2.2617-1.6133 0-2.4609-0.17188-2.4609-0.42578-0.11328-0.67578 3.4766-0.73828 7.3984-4.0195 3.9609-3.1953 6.8203-10.582 6.6172-19.32l-0.054687-2.1797 2.293-0.054688h0.003906c2.1602 0.10156 4.2734-0.67578 5.8516-2.1523 1.5-1.875 2.3359-4.1914 2.3789-6.5898 0.16797-3.9062-0.13672-7.8203-0.90625-11.656-0.67578-3.7891-1.5586-7.3555-2.2891-10.836l-0.37109-1.7539 1.6445-0.67578v-0.003907c1.3164-0.46094 2.5039-1.2383 3.4531-2.2617 0.69922-0.88672 0.96094-2.043 0.70312-3.1445-0.55078-2.1914-1.9023-4.0977-3.7891-5.3438-1.3125-0.875-2.7266-1.5781-4.2148-2.0938-1.1602-0.28125-1.7852-0.53516-1.7539-0.76172 0.03125-0.22656 0.65234-0.39453 1.8516-0.51172h-0.003906c1.8555 0.003906 3.6875 0.42969 5.3516 1.2461 2.8164 1.3047 4.957 3.7227 5.9141 6.6758z"/>
  <path d="m413.43 474.64c0.37109 0.48047-2.1797 3.5938-7.2422 7.8633v-0.003906c-3.0312 2.582-6.4258 4.6992-10.074 6.293-2.3398 1.0352-4.8789 1.5547-7.4414 1.5273-3.0078-0.089844-5.8633-1.3398-7.9766-3.4844-0.62891-0.60547-1.1875-1.2773-1.668-2.0078-1.0039 0.92969-2.1523 1.6914-3.3945 2.2656-0.30078 0.11719-0.59375 0.24609-0.87891 0.39453l-1.0469 0.19922c-0.67578 0.16406-1.375 0.20312-2.0625 0.11328-0.69922-0.03125-1.3828-0.20313-2.0117-0.50781-0.59766-0.23047-1.1523-0.56641-1.6367-0.99219-1.6211-1.3047-2.8672-3.0117-3.625-4.9492-0.64453-1.4805-1.1172-3.0273-1.4141-4.6094-0.47656-2.2227-0.63672-4.5-0.48047-6.7656 0.14453-1.5586 0.45703-2.375 0.73828-2.4062 0.67969 0 0.96094 3.3672 2.7461 8.3164v0.003906c0.47656 1.3164 1.0625 2.5938 1.7539 3.8164 0.62891 1.2734 1.5625 2.3711 2.7148 3.2031 0.99219 0.68359 2.2969 0.70313 3.3125 0.054688 1.5117-0.90234 2.8438-2.0703 3.9297-3.4531l2.1484-2.4336 1.7852 2.9141c0.66797 1.2461 1.4844 2.4062 2.4336 3.4531 2.9336 2.5039 7.0859 2.9961 10.523 1.2422 3.3828-1.293 6.6133-2.9453 9.6484-4.9219 5.3711-3.4023 8.7891-5.6914 9.2188-5.125z"/>
  <path d="m404.66 177.61c4.3281 1.9531 6.168 5.5742 5.2305 6.3359-1.043 0.96094-3.8477-0.48047-7.1016-1.9531-2.832-1.2148-6.5938-2.3477-6.3359-3.6992 0.058594-0.65234 0.96094-1.1602 2.3477-1.4414h0.003907c1.9844-0.29688 4.0117-0.035156 5.8555 0.75781z"/>
  <path d="m401.35 190.42c4.7266 1.1094 7.6406 3.6992 7.1289 4.8398-0.56641 1.2422-4.1602 0.76172-8.0625-0.14453-1.8672-0.22656-3.5078-0.84766-5.0938-1.0742-1.4805-0.39453-2.375-0.96094-2.4062-1.6133-0.03125-0.65234 0.85156-1.3008 2.293-1.7852h0.003907c1.9961-0.57031 4.1055-0.64844 6.1367-0.22266z"/>
  <path d="m392.21 208.7c0.19922 1.2422-4.3828 2.8867-10.156 2.4609-5.8555-0.53516-9.8438-2.6289-9.6484-3.875 0.19922-1.3594 4.9258-1.332 10.047-0.875 5.2305 0.36328 9.5625 0.92969 9.7578 2.2891z"/>
  <path d="m387.57 176.28c2.2656 1.0469 3.4531 2.1211 3.2266 2.7148s-1.7852 0.70703-4.0195 0.56641-5.3203-0.28516-8.7148-0.48047c-3.3945-0.11328-6.5078-0.14062-8.7734-0.33984-2.3477-0.14062-3.875-0.51172-3.957-1.1602-0.085937-0.65234 1.2188-1.4805 3.5078-2.1758l0.003906-0.003906c3.0625-0.85547 6.2383-1.2266 9.418-1.1094 3.1992 0.09375 6.3516 0.76563 9.3086 1.9883z"/>
  <path d="m375.09 189.18c3.9023 0.37109 6.7344 1.9805 6.5078 3.2539-0.22656 1.2734-3.3672 1.8516-6.8789 1.4805-3.1367-0.28125-6.5039-0.84766-6.5625-2.2188-0.054687-1.2148 2.5781-2.8242 6.9336-2.5156z"/>
  <path d="m360.78 211.3c2.7422 0.76562 4.7812 2.4648 4.5547 3.7617-0.22656 1.2969-3.0273 1.6445-6.2266 0.71094-2.8867-1.1094-4.8359-3-4.3828-4.2422 0.44922-1.2461 3.168-1.3359 6.0547-0.23047z"/>
  <path d="m362.5 369.96c0.25391 0.027344 0.53516 1.1875-0.11328 3.168v-0.003906c-1.1172 2.7461-3.1602 5.0195-5.7695 6.4258-3.6875 2.0234-7.7695 3.2227-11.969 3.5078-5.0898 0.48828-10.23 0-15.137-1.4453-3.082-0.88672-5.9414-2.4102-8.4023-4.4688-1.25-1.0898-2.2695-2.4141-3-3.9023-0.42578-0.9375-0.69531-1.9375-0.79297-2.9609-2.4102-0.59766-4.6953-1.6328-6.7305-3.0547-1.9062-1.375-3.5352-3.0938-4.8125-5.0625-2.1211-3.3672-2.2891-5.4609-1.9805-5.6602 0.45312-0.3125 1.6445 1.6992 3.9609 4.0703h0.003907c3.1172 3.3008 7.3203 5.3711 11.84 5.8281l1.8945 0.14062 0.03125 2.0938h-0.003906c0.074218 1.9844 1.0547 3.8203 2.6602 4.9805 2.0195 1.5508 4.3125 2.7031 6.7617 3.3945 7.8984 2.4336 16.371 2.2539 24.164-0.50781 2.2227-0.875 4.168-2.3242 5.6406-4.207 1.0195-1.4062 1.3867-2.4219 1.7539-2.3359z"/>
  <path d="m347.45 189.06c4.8672 1.7852 8.4336 4.2422 7.9766 5.4922-0.45703 1.2461-4.8945 0.73828-9.9023-1.1328-4.8398-2.0664-8.3164-4.7266-7.7695-5.9414 0.55078-1.2188 4.8555-0.51172 9.6953 1.582z"/>
  <path d="m344.51 175.29c5.0664 0.33984 8.9961 1.6992 8.7969 3-0.19531 1.3008-4.1602 2.0938-8.8594 1.7812-4.8906-0.054687-8.8555-1.1562-8.8242-2.4883 0.035156-1.3359 3.9922-2.3477 8.8867-2.293z"/>
  <path d="m333.16 196.19c4.5 3.5078 7.4688 7.1836 6.6602 8.2305-0.80859 1.0469-5.1211-0.96094-9.6211-4.5-4.5-3.5352-7.4688-7.1836-6.6602-8.2305 0.8125-1.0469 5.125 0.96875 9.6211 4.5z"/>
  <path d="m307.05 327.69-1.9492 10.73c-0.38281 2.8906-0.30859 5.8203 0.22656 8.6875 0.33984 2.2656 0.3125 3.6484-0.11328 3.7617-0.42578 0.11328-1.1328-1.0156-2.1484-3.1133l-0.003906 0.003907c-0.61719-1.332-1.1133-2.7148-1.4805-4.1328-0.625 0.65234-1.2461 1.2773-1.8125 1.8125l-1.3281 1.2422-1.5039-0.90234c-2.332-1.3867-4.332-3.2695-5.8516-5.5195-2.082-3.3711-3.2695-7.2188-3.4531-11.176-0.22266-3.0156-0.16406-6.0469 0.17188-9.0508 0.56641-5.0352 1.1875-8.0352 1.8516-8.0625s1.2148 3.168 1.5273 8.1172c0.19531 2.4648 0.33594 5.4062 0.81641 8.4883 0.36328 3.2109 1.418 6.3086 3.0859 9.082 0.82812 1.1836 1.8242 2.2422 2.9609 3.1406 1.2461-1.0195 2.332-2.2227 3.2227-3.5664z"/>
  <path d="m214.69 340.96c0.45312 0.50781-1.9531 3.3672-5.5742 8.0078v-0.003906c-2.1289 2.668-4.1055 5.4531-5.9219 8.3438-2.1797 3.1836-3.5352 6.8594-3.9336 10.695-0.058593 2.2969 0.95703 4.4844 2.7461 5.9219 1.8555 1.4453 3.9531 2.5469 6.1992 3.2539l2.8008 1.0195-1.7266 2.1484h-0.003906c-2.2148 2.7852-3.3164 6.2969-3.082 9.8477 0.10938 2.5898 0.48047 4.4141 0 4.5234-0.37109 0.085938-1.4414-1.1289-2.3789-4.1289-0.53906-1.8242-0.71094-3.7383-0.50391-5.6328 0.19922-1.5781 0.64844-3.1133 1.3281-4.5547-2.0078-0.66016-3.8945-1.6562-5.5742-2.9414-1.3867-1.1016-2.5352-2.4805-3.3672-4.0469-0.82422-1.6797-1.2305-3.5312-1.1875-5.4023 0.054688-2.543 0.64063-5.0508 1.7266-7.3555 0.91016-2.0156 2.0078-3.9414 3.2852-5.7461 2.082-2.9609 4.4531-5.707 7.0742-8.2031 4.4336-4.2188 7.6602-6.2266 8.0938-5.7461z"/>
 </g>
</svg>
