<?xml version="1.0" encoding="UTF-8"?>
<svg width="752pt" height="752pt" version="1.1" viewBox="0 0 752 752" xmlns="http://www.w3.org/2000/svg">
 <path d="m228.87 423.07c-0.24219-1.0039-0.61719-1.9727-1.1172-2.875-9.7734-12.438-19.828-24.66-29.367-37.273-15.723-21.344-28.242-44.863-37.164-69.824-4.0195-10.738-5.082-19.145 3.0234-26.465v0.003906c5.5508-4.6094 12.027-7.9648 18.992-9.8438 19.695-5.8867 39.379-13.043 59.59-15.676 29.859-3.8906 144.71-10.398 171.96-11.375 18.055-0.64844 111.91 4.1406 140.54 7.2695v0.003907c7.2695 0.44922 14.289 2.8281 20.332 6.8906 6.0469 4.0625 10.902 9.6641 14.066 16.223 3.7227 7.3516 4.8516 15.75 3.2031 23.824-7.5352 24.762-16.977 48.906-28.234 72.215-7.8789 15.426-21.039 28.316-32.68 41.598-7.4531 8.5039-17.316 14.957-24.395 23.707-4.0898 5.4453-6.2031 12.121-5.9883 18.926 1.4023 24.512-11 32.812-33.285 34.66-32.703 2.7109-65.41 7.0977-98.133 7.2656-27.293-0.57812-54.504-3.1758-81.41-7.7734-20.254-2.9336-25.121-9.9297-29.262-32.895-1.8711-10.379-33.168-39.07-30.672-38.586zm232.08-93.328c9.125 0.375 18.246 0.75 27.371 1.125l-0.11328-5.1641v0.003906c-2.8047-0.16406-5.6172-0.10547-8.4141 0.17969-6.3594 1.1172-12.648 2.6289-18.965 3.9805l-1.3984-15.219c-5.207 3.7344-10.672 7.0977-16.352 10.062-4.5117 2.3828-9.6523 3.3047-14.711 2.6406-2.5117-0.63281-3.5078-7.2891-5.1836-11.23-28.637 14.57-30.977 14.574-35.41 1.1992-6.7734 3.0078-13.656 6.0664-20.539 9.125-1.3203-3.8359-2.6367-7.6719-3.9453-11.477-5.4492 3.3789-11.207 7.4414-17.441 10.555h-0.003906c-2.7227 1.1523-5.8164 1.0391-8.4492-0.3125-1.4102-0.90625-1.8164-5.4492-0.85547-7.5312 2.1484-3.8555 4.6484-7.5039 7.4688-10.898-14.324 0.46094-21.668 20.418-39.977 13.551l7.8359-14.895-9.1836-1.4102c5.2891-4.5742 8.9727-7.7656 12.656-10.953l-1.9648-2.8086-31.43 21.609 9.9961 1.5508c-5.3828 5.0195-9.1992 8.5781-13.59 12.676 21.273 1.4727 41.359 3.1016 61.477 4.1836 18.707 1.0078 37.449 2.0781 56.164 1.9453 21.656-0.15625 43.301-1.5977 64.957-2.4844zm107.02-0.97656c-12.207 2.2344-22.621 3.6328-32.777 6.0859-46.797 11.305-94.348 10.969-141.96 9.6328-33.262-0.93359-66.535-1.7305-99.766-3.3477-22.836-1.1133-45.598-3.6758-68.41-5.3047-12.18-0.86719-24.398-1.1289-37.766-1.7188l-0.003906 0.007813c0.67578 2.6445 1.6211 5.2109 2.8203 7.6602 12.734 18.516 25.211 37.223 38.52 55.32 18.152 25.738 45.836 43.152 76.898 48.367 40.883 7.9258 82.703 9.8555 124.14 5.7227 21.605-2.5625 44.176-6.4688 62.555-19.875 12.754-9.2656 24.621-19.695 35.449-31.152 18.684-19.891 28.73-44.98 40.301-71.395zm-9.1133-14.785c2.6055-1.3906 4.9922-3.1602 7.0859-5.2422 4.1641-6.125 11.875-13.586 10.629-18.672-1.4766-6.0312-10.188-13-16.902-14.52-18.613-4.375-37.582-7.0742-56.676-8.0703-42.707-1.8242-85.492-2.9375-128.23-2.5547h0.003907c-30.508 0.1875-60.98 2.1055-91.27 5.7422-30.57 3.7617-60.805 10.434-91.027 16.609-6.0234 1.2305-12.555 4.4922-11.926 13.516 0.58203 8.3008 3.4336 14.039 8.8555 15.301 7.4492-7.1289 12.547-13.828 19.215-18.051 20.27-12.832 44.051-15.219 66.867-17.195 38.203-3.3086 76.699-3.207 115.07-4.5586 21.988-0.77344 43.996-2.6172 65.953-2.0938l-0.003906-0.003906c24.297 0.39844 48.543 2.3164 72.602 5.7383 8.1992 1.2305 16.199 9.0195 22.527 15.527 3.9453 4.0625 4.5938 11.328 7.2227 18.527zm-283.84 140.48c1.0234 9.8984 1.7344 22.523 16.328 24.578 26.926 3.7969 53.988 7.1914 81.109 8.8242v0.003906c17.562 0.58594 35.145-0.21484 52.578-2.3984 17.547-1.7344 35.023-4.5664 52.367-7.8008 9.3867-1.75 10.379-9.7617 8.918-17.527-1.8906-10.07-8.6211-3.5859-13.035-2.8398-16.656 2.8125-33.145 8.2656-49.836 8.8828v0.003907c-28.988 1.0078-58.008 0.44141-86.93-1.6992-20.375-1.4727-40.496-6.4688-61.5-10.023zm270.01-135.9c-2.0117-4.8086-4.4258-9.4375-7.2148-13.844-2.4023-3.6055-5.8359-6.4023-9.8555-8.0234-8.0625-2.3828-16.641-2.9492-24.887-4.8047-8.2773-1.8633-15.344-2.9219-20.164 6.8242-4.0352 6.8477-8.6211 13.359-13.707 19.465l2.8867 2.7773c6.7109-3.5508 15.125-5.625 19.758-10.977h-0.003907c2.9102-4.1445 7.1172-7.2031 11.957-8.6914 4.8398-1.4922 10.039-1.3281 14.777 0.46094 7.6641 2.3242 8.8398 6.2188 4.0898 11.895-4.043 4.3359-8.3242 8.4414-12.816 12.309zm-100.7-28.262c-33.523-6.8125-52.332-0.34766-64.219 23.73 11.383-8.332 20.324-15.301 29.77-21.512 2.4375-1.6016 6.4453-0.81641 9.7344-1.1289h-0.003906c-0.98047 3.0352-2.3516 5.9336-4.0742 8.6172-4.1523 4.9727-8.9297 9.4258-13.449 14.094h0.003906c16.695-1.9648 31.91-10.539 42.238-23.801zm-6.1406 28.359 40.832-26.816c-19.398-2.9727-30.168 4.0664-40.832 26.816zm-199.27-15.797c-11.766 3.0859-24.52 3.6758-32.574 16.672 13.957 1.4141 26.777 7.4531 35.406-7.5703l-13.027 2.8242-0.75391-1.7891zm44.273-9.2305c-17.305 3.6875-22.52 19.855-33.195 30.176 8.4023 3.8945 13.363 2.5352 17.273-5.8711h0.003906c4.707-8.4805 10.027-16.602 15.922-24.305zm72.887-1.6797c-16-3.2695-21.223-0.71484-31.676 15.293zm28.547 0.45312-2.9453-4.2734-28.477 20.574 1.9844 2.8242z"/>
</svg>
