<?xml version="1.0" encoding="UTF-8"?>
<svg width="752pt" height="752pt" version="1.1" viewBox="0 0 752 752" xmlns="http://www.w3.org/2000/svg">
 <path d="m508.23 511.59c1.1172 2.2383 1.6758 5.0312 1.6758 7.2695v15.656c0 11.184-8.9453 20.129-20.129 20.129h-227.57c-11.184 0-20.129-8.9453-20.129-20.129v-15.656c0-2.2383 0.55859-5.0312 1.1172-7.2695-62.621-36.902-97.848-92.816-96.73-166.62 9.5039-10.625 37.461-25.719 52-30.191-6.7109-55.355 53.676-94.492 101.2-64.301 63.18-90.578 201.84-61.504 223.09 52.559 44.172-8.9453 69.332 16.215 82.75 41.934 1.1172 73.805-34.664 129.72-97.289 166.62zm-333.24-166.62h409.28c-19.57-31.871-57.59-29.074-77.719-17.332-6.7109-117.42-139.78-157.11-202.4-49.762-48.645-43.055-98.965-7.2695-83.867 49.762-16.215 4.4727-30.754 8.3867-45.289 17.332zm412.08 18.453h-422.14c3.3555 60.945 44.73 110.15 96.73 137.55l16.773 8.9453-16.773 7.8281c-1.1172 0-1.1172 0.55859-1.1172 1.1172v15.656c0 1.1172 0.55859 1.6758 1.6758 1.6758h227.57c1.1172 0 1.6758-0.55859 1.6758-1.6758v-15.656c0-0.55859-0.55859-1.1172-1.1172-1.1172l-16.773-7.8281 16.215-8.9453c52.559-27.398 93.934-76.602 97.289-137.55z"/>
</svg>
