<?xml version="1.0" encoding="UTF-8"?>
<svg width="" height="" version="1.1" viewBox="0 0 752 752" xmlns="http://www.w3.org/2000/svg">
 <g>
  <path d="m374.9 228.01c-12.012 0.28516-23.461 5.1289-32.027 13.555-11.258 11.066-23.98 20.539-37.809 28.156-28.629 15.773-56.656 32.621-84.023 50.496-23.742 15.504-40.934 39.215-48.285 66.598-7.3555 27.383-4.3555 56.516 8.4258 81.824 12.777 25.309 34.441 45.02 60.844 55.359h267.95c30.262-11.855 54.109-35.934 65.668-66.309 11.559-30.375 9.7578-64.219-4.9688-93.191-15.465 6.1992-32.828 5.5938-47.824-1.668-14.996-7.2617-26.242-20.508-30.969-36.484-12.121 0.38672-23.57-5.5703-30.211-15.715-6.6406-10.148-7.5156-23.023-2.3086-33.973-4.1289-2.3359-8.2734-4.6484-12.43-6.9375-13.828-7.6172-26.547-17.09-37.809-28.156-9.1055-8.957-21.449-13.848-34.223-13.555zm0.34766 14.801c8.7695-0.20312 17.246 3.1562 23.5 9.3047 12.223 12.02 26.031 22.309 41.047 30.582 0.67188 0.36719 1.3477 0.73047 2.0195 1.0977-2.0234 12.703 0.96484 25.695 8.3359 36.234 7.3711 10.535 18.555 17.797 31.18 20.246 6.8672 15.039 18.566 27.344 33.242 34.957 14.672 7.6094 31.473 10.09 47.719 7.043 8.832 24.199 8.0273 50.867-2.25 74.488-10.273 23.625-29.234 42.395-52.957 52.434h-262.17c-22.473-9.5078-40.711-26.871-51.316-48.844-10.605-21.977-12.848-47.059-6.3086-70.566 6.5391-23.504 21.414-43.828 41.84-57.172 27.059-17.672 54.77-34.32 83.074-49.918 15.016-8.2734 28.824-18.562 41.047-30.582 5.8828-5.7852 13.746-9.1133 21.996-9.3047z"/>
  <path d="m314.04 364.67c22.93-21.945 39.684-49.543 48.57-80.012 1.0742-3.8984-1.1836-7.9375-5.0625-9.0664-3.8828-1.1328-7.9531 1.0625-9.1445 4.9258-8.1602 27.98-23.543 53.316-44.598 73.469-2.875 2.8398-2.9375 7.4609-0.14453 10.383 2.7969 2.918 7.4141 3.0547 10.379 0.30859z"/>
  <path d="m437.96 364.67c-22.93-21.945-39.684-49.543-48.574-80.012-1.0703-3.8984 1.1836-7.9375 5.0664-9.0703 3.8828-1.1289 7.9531 1.0664 9.1406 4.9297 8.1641 27.98 23.543 53.316 44.602 73.469 2.8711 2.8398 2.9375 7.4609 0.14062 10.383-2.793 2.918-7.4102 3.0547-10.375 0.30859z"/>
 </g>
</svg>
